<svg xmlns="http://www.w3.org/2000/svg" xmlns:xlink="http://www.w3.org/1999/xlink" width="102" height="102" viewBox="0 0 102 102"><defs><style>.a{fill:none;}.b{fill:#fff;}.c{clip-path:url(#a);}.d{fill:#273a60;}</style><clipPath id="a"><rect class="a" width="102" height="102"/></clipPath></defs><g transform="translate(-492.992 -209.764)"><rect class="b" width="102" height="102" transform="translate(492.992 209.764)"/><g transform="translate(492.992 209.764)"><g class="c" transform="translate(0 0)"><path class="d" d="M596.649,299.982c3.656,0,4.822,0,6.634-.492a4.339,4.339,0,0,0,2.563-1.787c1.5-2.527,1.5-7.27,1.5-9.55s0-6.316-1.5-8.813a4.041,4.041,0,0,0-2.563-1.818c-1.85-.484-3.038-.455-6.634-.463h0c-3.595.008-4.782-.021-6.632.463a4.04,4.04,0,0,0-2.563,1.818c-1.5,2.5-1.5,6.532-1.5,8.813s0,7.023,1.5,9.55a4.334,4.334,0,0,0,2.563,1.787c1.811.493,2.977.492,6.632.492Zm.007-32.351a12.839,12.839,0,0,1,3.068.369,13.724,13.724,0,0,0,0,4.069c.532,1.541,3.552,2.259,4.771,1.55,1.344-.8,1.035-3.23,1.035-4.832,0,0,1.981.461,3.194.909.986.365,2.44,1.076,2.44,1.076.287,2.027.014,5.025-2.017,6.042,1.531,1.509,2.045,3.3,2.7,6.593a30.257,30.257,0,0,1,.372,6.745,25.93,25.93,0,0,1-.717,5.732,11.32,11.32,0,0,1-2.938,5.265c-3.338,3.436-8.78,3.234-11.912,3.232s-8.573.2-11.913-3.232a11.319,11.319,0,0,1-2.938-5.265,26,26,0,0,1-.717-5.732,30.226,30.226,0,0,1,.374-6.745c.655-3.3,1.169-5.083,2.7-6.593-2.031-1.016-2.3-4.015-2.017-6.042,0,0,1.455-.711,2.44-1.076,1.214-.448,3.194-.909,3.194-.909,0,1.6-.309,4.031,1.035,4.832,1.219.709,4.238-.009,4.77-1.55a13.562,13.562,0,0,0,0-4.069,12.869,12.869,0,0,1,3.07-.369" transform="translate(-545.713 -244.409)"/><path class="d" d="M609.042,307.881c3.125,0,3.057,0,3.057.988v6.209h4.25v-17.2H612.1v5.162c0,1.017.066,1.014-3.057,1.014h0c-3.123,0-3.057,0-3.057-1.014v-5.162h-4.249v17.2h4.249v-6.209c0-.986-.066-.988,3.057-.988Z" transform="translate(-558.098 -262.52)"/><path class="b" d="M701.858,368.879h.181c.178,0,.347-.017.347-.2s-.141-.184-.325-.184h-.2Zm.686-.209a.29.29,0,0,1-.136.248.434.434,0,0,1-.185.054c.15.054.188.088.363.483h-.164c-.183-.4-.229-.464-.5-.464h-.064v.464h-.136v-1.069h.453c.369,0,.369.253.369.283m-.4-.652a.891.891,0,1,0,.908.891.9.9,0,0,0-.908-.891m0,1.908a1.017,1.017,0,1,1,1.036-1.016,1.026,1.026,0,0,1-1.036,1.016" transform="translate(-617.589 -304.435)"/><path class="d" d="M568.95,372.82h-1.867v4.445c0,1.257-.512,1.895-1.563,1.895a1.28,1.28,0,0,1-.923-.369,1.841,1.841,0,0,1-.4-1.348V372.82h-1.854V377.6a3.079,3.079,0,0,0,.746,2.3,2.632,2.632,0,0,0,2.035.7,2.814,2.814,0,0,0,1.983-1.052v.851h1.842Z" transform="translate(-534.513 -307.385)"/><path class="d" d="M641.2,374.562a1.912,1.912,0,0,0-.57-1.415,3.215,3.215,0,0,0-2.4-.829c-1.1,0-2.964.227-3.179,2.292h1.865c-.026-.962,1.216-.878,1.216-.878a1.653,1.653,0,0,1,1.023.331.8.8,0,0,1,.282.642c.021.513-.229.76-1.975.927-1.349.128-2.955.488-2.955,2.4a2.092,2.092,0,0,0,.609,1.531,2.883,2.883,0,0,0,2.051.737,2.781,2.781,0,0,0,2.328-.9l.091.7h1.791v-.283c-.232-.179-.18-.932-.18-.932Zm-4.837,3.409c-.049-.569.287-.978,1.167-1.128.231-.045.468-.066.7-.1a2.737,2.737,0,0,0,1.119-.383v1.161c0,.94-.948,1.291-1.641,1.281s-1.291-.261-1.341-.83" transform="translate(-577.717 -307.085)"/><path class="d" d="M605.586,382.148v-9.623l-1.77,0v.948a2.55,2.55,0,0,0-2.127-1.15c-2.219,0-3.507,1.544-3.507,4.031a4.342,4.342,0,0,0,1.117,3.1,2.81,2.81,0,0,0,2.114.853,2.88,2.88,0,0,0,2.306-1.135v2.99Zm-3.67-3.347a1.55,1.55,0,0,1-1.193-.488,3.2,3.2,0,0,1,.045-4.021,1.5,1.5,0,0,1,1.147-.5c1.087,0,1.661.687,1.828,1.932.023.188.034.878.023,1.007-.121,1.335-.7,2.069-1.852,2.069" transform="translate(-555.969 -307.085)"/><path class="d" d="M539.03,376.618h2.023v-4.5h4.241v4.5h2.024V366.508h-2.024v3.869h-4.241v-3.869H539.03Z" transform="translate(-520.555 -303.606)"/><path class="d" d="M584.035,378.835c-.8.02-1.418-.318-1.535-1h-1.877c.088,1.916,2.039,2.491,3.389,2.463a3.249,3.249,0,0,0,2.565-.937,2.122,2.122,0,0,0,.637-1.568c0-1.478-1.139-1.962-2.434-2.266l-.408-.092c-1.006-.194-1.833-.393-1.785-.966s.679-.7,1.173-.713a1.114,1.114,0,0,1,1.2.647H586.9c-.193-1.47-1.564-2.105-3.018-2.085-1.43.02-3.129.579-3.129,2.21,0,1.536,1.08,2,2.376,2.278.175.039.351.076.522.112.968.2,1.7.391,1.711,1.021s-.524.877-1.323.9" transform="translate(-545.456 -307.084)"/><path class="d" d="M624.832,372.82H622.9l-1.653,5.828-1.712-5.828h-2.014l2.668,7.577h2Z" transform="translate(-567.548 -307.386)"/><path class="d" d="M657.141,372.162a2.494,2.494,0,0,0-1.636,1.572V372.41h-1.76v7.577h1.867V376.37a2.97,2.97,0,0,1,.439-1.932,1.784,1.784,0,0,1,1.316-.719,2.9,2.9,0,0,1,.807.117V372.2a3.1,3.1,0,0,0-1.033-.036" transform="translate(-589.235 -306.975)"/><path class="d" d="M673.068,374.918a2.528,2.528,0,0,0-.691-1.879,2.773,2.773,0,0,0-2.03-.72,2.493,2.493,0,0,0-2.151,1.336V372.52h-1.758V380.1h1.854v-4.47a1.9,1.9,0,0,1,.464-1.391,1.732,1.732,0,0,1,1.279-.462c.856.016,1.145.5,1.179,1.585V380.1h1.853Z" transform="translate(-596.834 -307.085)"/><path class="d" d="M691.13,374.573a1.912,1.912,0,0,0-.571-1.415,3.537,3.537,0,0,0-2.522-.829c-1.1,0-2.963.228-3.179,2.291h1.866c-.026-.962,1.217-.877,1.217-.877a2.044,2.044,0,0,1,1.147.331.8.8,0,0,1,.284.642c.02.513-.231.76-1.977.926-1.349.129-2.955.489-2.955,2.4a2.1,2.1,0,0,0,.608,1.53,2.882,2.882,0,0,0,2.053.738,2.782,2.782,0,0,0,2.325-.9l.091.7h1.792v-.285c-.232-.179-.179-.931-.179-.931Zm-4.838,3.407c-.048-.569.287-.978,1.167-1.127.23-.046.469-.066.7-.1a2.72,2.72,0,0,0,1.118-.382v1.161c0,.939-.947,1.29-1.639,1.28s-1.291-.261-1.343-.831" transform="translate(-607.612 -307.091)"/></g></g></g></svg>