<?xml version="1.0" encoding="utf-8"?>
<!-- Generator: Adobe Illustrator 14.0.0, SVG Export Plug-In . SVG Version: 6.00 Build 43363)  -->
<!DOCTYPE svg PUBLIC "-//W3C//DTD SVG 1.1//EN" "http://www.w3.org/Graphics/SVG/1.1/DTD/svg11.dtd">
<svg version="1.1" id="Layer_1" xmlns="http://www.w3.org/2000/svg" xmlns:xlink="http://www.w3.org/1999/xlink" x="0px" y="0px"
	 width="102px" height="102px" viewBox="0 0 102 102" enable-background="new 0 0 102 102" xml:space="preserve">
<g transform="translate(-492.992 -209.764)">
	<rect x="492.992" y="209.764" width="102" height="102"/>
	<g transform="translate(492.992 209.764)">
		<g transform="translate(0 0)">
			<path d="M49.618,20.481c0.261-0.001,0.521,0.111,0.775,0.334c-0.051,1.223-0.051,2.466,0,3.688
				c0.135,1.396,0.898,2.047,1.207,1.404c0.339-0.725,0.262-2.927,0.262-4.379c0,0,0.5,0.417,0.807,0.824
				c0.25,0.33,0.617,0.975,0.617,0.975c0.073,1.837,0.004,4.554-0.51,5.476c0.388,1.368,0.518,2.991,0.683,5.975
				c0.096,2.019,0.127,4.069,0.095,6.113c-0.007,1.75-0.067,3.493-0.182,5.194c-0.123,1.803-0.38,3.451-0.743,4.771
				c-0.844,3.114-2.22,2.932-3.012,2.93c-0.792-0.004-2.169,0.18-3.013-2.93c-0.364-1.32-0.621-2.969-0.743-4.771
				c-0.114-1.701-0.175-3.443-0.182-5.194c-0.032-2.044-0.001-4.095,0.095-6.113c0.166-2.99,0.296-4.606,0.683-5.975
				c-0.514-0.921-0.581-3.639-0.51-5.476c0,0,0.367-0.645,0.617-0.975c0.307-0.407,0.808-0.824,0.808-0.824
				c0,1.45-0.078,3.653,0.262,4.379c0.308,0.643,1.071-0.008,1.206-1.404c0.052-1.222,0.052-2.466,0-3.688
				c0.254-0.223,0.515-0.335,0.776-0.334"/>
			<path d="M74.269,64.443h0.181c0.178,0,0.347-0.017,0.347-0.199c0-0.184-0.141-0.184-0.324-0.184h-0.2L74.269,64.443z
				 M74.955,64.234c0.001,0.102-0.051,0.195-0.136,0.248c-0.057,0.032-0.12,0.051-0.186,0.055c0.15,0.054,0.188,0.088,0.363,0.482
				h-0.164c-0.183-0.399-0.229-0.464-0.5-0.464h-0.063v0.464h-0.137v-1.068h0.453C74.955,63.951,74.955,64.204,74.955,64.234
				 M74.554,63.582c-0.491,0.01-0.883,0.416-0.873,0.908c0.009,0.491,0.416,0.883,0.907,0.873c0.485-0.009,0.874-0.405,0.874-0.891
				C75.458,63.977,75.052,63.577,74.554,63.582 M74.554,65.49c-0.562-0.011-1.008-0.475-0.997-1.036
				c0.01-0.562,0.474-1.009,1.035-0.998c0.555,0.011,0.999,0.464,0.998,1.018C75.586,65.041,75.122,65.495,74.554,65.49
				C74.555,65.49,74.555,65.49,74.554,65.49"/>
			<path d="M44.437,65.436H42.57v4.444c0,1.257-0.512,1.896-1.563,1.896c-0.345,0.006-0.677-0.127-0.923-0.369
				c-0.307-0.379-0.45-0.863-0.399-1.348v-4.623H37.83v4.779c-0.075,0.836,0.194,1.667,0.746,2.301
				c0.548,0.512,1.288,0.767,2.035,0.699c0.778-0.061,1.496-0.441,1.982-1.052v0.851h1.843L44.437,65.436z"/>
			<path d="M27.915,72.6h2.022v-4.5h4.241v4.5h2.024V62.49h-2.024v3.869h-4.241V62.49h-2.022V72.6z"/>
			<path d="M48.579,71.751c-0.8,0.021-1.418-0.317-1.535-1h-1.877c0.088,1.916,2.039,2.491,3.39,2.463
				c0.95,0.079,1.889-0.263,2.564-0.937c0.421-0.412,0.651-0.98,0.637-1.568c0-1.479-1.139-1.962-2.434-2.266l-0.408-0.092
				c-1.006-0.194-1.833-0.394-1.785-0.967c0.049-0.572,0.68-0.699,1.173-0.713c0.501-0.083,0.994,0.184,1.2,0.646h1.94
				c-0.193-1.469-1.564-2.104-3.019-2.084c-1.43,0.02-3.129,0.578-3.129,2.209c0,1.537,1.08,2,2.376,2.279
				c0.176,0.038,0.352,0.075,0.522,0.111c0.968,0.2,1.7,0.391,1.711,1.021c0.011,0.629-0.524,0.877-1.323,0.899"/>
			<path d="M65.234,67.833c0.038-0.694-0.212-1.374-0.691-1.879c-0.552-0.504-1.284-0.764-2.029-0.72
				c-0.907,0.021-1.73,0.532-2.151,1.336v-1.135h-1.758v7.58h1.854v-4.471c-0.037-0.507,0.13-1.008,0.464-1.391
				c0.346-0.322,0.808-0.489,1.279-0.463c0.856,0.017,1.146,0.5,1.179,1.586v4.738h1.854L65.234,67.833z"/>
			<path d="M72.518,67.482c0.014-0.531-0.193-1.043-0.571-1.416c-0.701-0.593-1.605-0.891-2.522-0.828
				c-1.1,0-2.963,0.228-3.179,2.291h1.866c-0.026-0.963,1.217-0.877,1.217-0.877c0.407-0.007,0.807,0.108,1.147,0.33
				c0.188,0.159,0.293,0.396,0.283,0.643c0.021,0.513-0.23,0.76-1.977,0.926c-1.349,0.129-2.955,0.489-2.955,2.4
				c-0.014,0.571,0.206,1.123,0.608,1.529c0.561,0.506,1.298,0.771,2.053,0.738c0.873,0.084,1.735-0.25,2.325-0.9l0.091,0.701h1.792
				v-0.285c-0.232-0.18-0.179-0.932-0.179-0.932V67.482z M67.68,70.889c-0.049-0.568,0.286-0.978,1.167-1.127
				c0.229-0.046,0.469-0.066,0.699-0.1c0.396-0.044,0.778-0.174,1.118-0.383v1.162c0,0.938-0.947,1.289-1.639,1.279
				c-0.692-0.01-1.291-0.261-1.343-0.83"/>
		</g>
	</g>
</g>
</svg>
