<?xml version="1.0" encoding="UTF-8"?>
<svg xmlns="http://www.w3.org/2000/svg" xmlns:xlink="http://www.w3.org/1999/xlink" version="1.2" >
<font id="Husqvarna Gothic">
<font-face  font-family="Husqvarna Gothic" units-per-em="2048" ascent="1434" descent="-369" font-style="normal" font-weight="400" font-stretch="normal" cap-height="1434" x-height="1024" underline-position="-154" underline-thickness="102" />
<missing-glyph  horiz-adv-x="410" d="M41 0 L41 1434 L369 1434 L369 0 L41 0 Z M328 41 L328 1393 L82 1393 L82 41 L328 41 Z " />
<glyph glyph-name="space" unicode="&#x20;" horiz-adv-x="410" d="" />
<glyph glyph-name="exclam" unicode="&#x21;" horiz-adv-x="483" d="M320 176 L320 0 L164 0 L164 176 L320 176 Z M320 1434 L320 369 L164 369 L164 1434 L320 1434 Z " />
<glyph glyph-name="quotedbl" unicode="&#x22;" horiz-adv-x="680" d="M401 1434 L557 1434 L557 963 L401 963 L401 1434 Z M123 1434 L279 1434 L279 963 L123 963 L123 1434 Z " />
<glyph glyph-name="numbersign" unicode="&#x23;" horiz-adv-x="1331" d="M348 1434 L463 1434 L463 1024 L868 1024 L868 1434 L983 1434 L983 1024 L1249 1024 L1249 913 L983 913 L983 521 L1249 521 L1249 410 L983 410 L983 0 L868 0 L868 410 L463 410 L463 0 L348 0 L348 410 L82 410 L82 521 L348 521 L348 913 L82 913 L82 1024 L348 1024 L348 1434 Z M463 913 L463 521 L868 521 L868 913 L463 913 Z " />
<glyph glyph-name="dollar" unicode="&#x24;" horiz-adv-x="1106" d="M624 1585 L624 1456 Q881 1417 968 1132 L819 1095 Q764 1276 624 1315 L624 786 Q824 701 896 631 Q1003 527 1003 360 Q1003 178 881 72 Q781 -14 624 -27 L624 -152 L501 -152 L501 -25 Q201 13 102 323 L253 360 Q285 262 350 198 Q415 134 501 114 L501 669 Q321 752 248 831 Q151 936 151 1095 Q151 1264 261 1364 Q354 1447 501 1460 L501 1585 L624 1585 Z M839 360 Q839 441 789 499.5 Q739 558 624 614 L624 110 Q726 125 786 199 Q839 266 839 360 Z M315 1095 Q315 1011 359 950.5 Q403 890 501 841 L501 1323 Q412 1310 360 1241 Q315 1181 315 1095 Z " />
<glyph glyph-name="percent" unicode="&#x25;" horiz-adv-x="1413" d="M399 1463 Q651 1463 651 1127 Q651 789 399 789 Q143 789 143 1127 Q143 1463 399 1463 Z M399 1348 Q270 1348 270 1127 Q270 904 399 904 Q526 904 526 1127 Q526 1348 399 1348 Z M1167 1434 L389 -29 L245 -29 L1024 1434 L1167 1434 Z M1017 645 Q1269 645 1269 309 Q1269 -29 1017 -29 Q761 -29 761 309 Q761 645 1017 645 Z M1017 530 Q888 530 888 309 Q888 86 1017 86 Q1144 86 1144 309 Q1144 530 1017 530 Z " />
<glyph glyph-name="ampersand" unicode="&#x26;" horiz-adv-x="1331" d="M1092 -29 L942 164 Q821 54 743 16 Q652 -29 537 -29 Q355 -29 231 103 Q123 217 123 371 Q123 511 201 622 Q266 713 420 836 Q331 953 297.5 1022 Q264 1091 264 1158 Q264 1299 356 1385 Q439 1463 569 1463 Q711 1463 802 1363 Q881 1277 881 1158 Q881 1077 813.5 982 Q746 887 631 805 L963 373 L1114 508 L1206 399 L1051 260 L1208 57 L1092 -29 Z M569 1328 Q504 1328 462 1280 Q420 1232 420 1158 Q420 1110 447.5 1056 Q475 1002 545 914 Q725 1039 725 1158 Q725 1234 672 1285 Q627 1328 569 1328 Z M854 277 L510 721 Q382 624 330.5 546 Q279 468 279 371 Q279 256 362 176 Q436 106 537 106 Q612 106 679 142 Q746 178 854 277 Z " />
<glyph glyph-name="quotesingle" unicode="&#x27;" horiz-adv-x="401" d="M123 1434 L279 1434 L279 963 L123 963 L123 1434 Z " />
<glyph glyph-name="parenleft" unicode="&#x28;" horiz-adv-x="655" d="M123 610 Q123 1226 440 1624 L533 1565 Q287 1129 287 610 Q287 97 533 -338 L440 -397 Q123 0 123 610 Z " />
<glyph glyph-name="parenright" unicode="&#x29;" horiz-adv-x="655" d="M533 610 Q533 0 215 -397 L123 -338 Q369 97 369 610 Q369 1130 123 1565 L215 1624 Q533 1226 533 610 Z " />
<glyph glyph-name="asterisk" unicode="&#x2a;" horiz-adv-x="844" d="M369 1211 L348 1434 L494 1434 L471 1209 L678 1303 L721 1160 L502 1115 L655 942 L541 854 L422 1055 L301 854 L189 940 L340 1115 L123 1160 L166 1303 L369 1211 Z " />
<glyph glyph-name="plus" unicode="&#x2b;" horiz-adv-x="1106" d="M102 631 L102 766 L485 766 L485 1169 L620 1169 L620 766 L1003 766 L1003 631 L620 631 L620 227 L485 227 L485 631 L102 631 Z " />
<glyph glyph-name="comma" unicode="&#x2c;" horiz-adv-x="360" d="M258 176 L258 0 L196 -176 L122 -176 L164 0 L102 0 L102 176 L258 176 Z " />
<glyph glyph-name="hyphen" unicode="&#x2d;" horiz-adv-x="696" d="M102 528 L102 684 L594 684 L594 528 L102 528 Z " />
<glyph glyph-name="period" unicode="&#x2e;" horiz-adv-x="360" d="M258 176 L258 0 L102 0 L102 176 L258 176 Z " />
<glyph glyph-name="slash" unicode="&#x2f;" horiz-adv-x="852" d="M811 1462 L197 -29 L41 -29 L655 1462 L811 1462 Z " />
<glyph glyph-name="zero" unicode="0" horiz-adv-x="1098" d="M549 1463 Q809 1463 923 1239 Q1016 1056 1016 717 Q1016 -29 549 -29 Q82 -29 82 717 Q82 1463 549 1463 Z M549 1328 Q383 1328 309 1152 Q246 1002 246 717 Q246 106 549 106 Q717 106 791 283 Q852 431 852 717 Q852 1046 771 1194 Q697 1328 549 1328 Z " />
<glyph glyph-name="one" unicode="1" horiz-adv-x="627" d="M463 1434 L463 0 L311 0 L311 1248 L117 1121 L41 1237 L332 1434 L463 1434 Z " />
<glyph glyph-name="two" unicode="2" horiz-adv-x="1024" d="M942 135 L942 0 L82 0 L82 106 L361 395 Q615 660 699 798 Q778 929 778 1057 Q778 1187 703 1261 Q634 1328 520 1328 Q422 1328 347 1254.5 Q272 1181 232 1045 L88 1082 Q199 1463 522 1463 Q723 1463 837 1348 Q942 1240 942 1057 Q942 907 835 733.5 Q728 560 491 328 L307 135 L942 135 Z " />
<glyph glyph-name="three" unicode="3" horiz-adv-x="1081" d="M735 762 L735 758 Q1000 682 1000 393 Q1000 193 850 73 Q722 -29 533 -29 Q222 -29 82 260 L205 330 Q267 211 344 158.5 Q421 106 533 106 Q677 106 762 194 Q836 272 836 393 Q836 684 500 684 L465 684 L465 819 L498 819 Q795 819 795 1094 Q795 1212 720 1274 Q655 1328 547 1328 Q454 1328 389.5 1290.5 Q325 1253 256 1159 L143 1241 Q305 1463 547 1463 Q737 1463 856 1344 Q959 1241 959 1094 Q959 847 735 762 Z " />
<glyph glyph-name="four" unicode="4" horiz-adv-x="1122" d="M856 1434 L856 491 L1081 491 L1081 356 L856 356 L856 0 L704 0 L704 356 L82 356 L82 470 L684 1434 L856 1434 Z M704 491 L704 1219 L700 1219 L246 491 L704 491 Z " />
<glyph glyph-name="five" unicode="5" horiz-adv-x="1065" d="M901 1434 L901 1299 L315 1299 L281 863 L285 863 Q327 905 392.5 930 Q458 955 528 955 Q756 955 877 809 Q983 680 983 463 Q983 219 834 85 Q707 -29 508 -29 Q363 -29 246 54 Q145 125 82 248 L205 320 Q268 209 358 152 Q432 106 508 106 Q651 106 738 210 Q819 307 819 463 Q819 638 726 737 Q647 820 528 820 Q444 820 369.5 773.5 Q295 727 248 645 L121 684 L184 1434 L901 1434 Z " />
<glyph glyph-name="six" unicode="6" horiz-adv-x="1081" d="M934 1299 L805 1217 Q720 1328 571 1328 Q378 1328 290 1106 Q232 959 232 760 L236 760 Q353 893 572 893 Q770 893 894 742 Q1000 612 1000 432 Q1000 220 877 94 Q758 -29 551 -29 Q82 -29 82 615 Q82 1065 204 1267 Q322 1463 571 1463 Q810 1463 934 1299 Z M256 432 Q256 269 350 181 Q428 106 551 106 Q693 106 774 204 Q846 291 846 432 Q846 591 753 682 Q674 758 551 760 Q410 762 328 661 Q256 572 256 432 Z " />
<glyph glyph-name="seven" unicode="7" horiz-adv-x="922" d="M41 1434 L881 1434 L881 1328 L328 0 L164 0 L725 1299 L41 1299 L41 1434 Z " />
<glyph glyph-name="eight" unicode="8" horiz-adv-x="1118" d="M774 776 L774 772 Q1036 679 1036 379 Q1036 185 885 71 Q753 -29 549 -29 Q326 -29 195 98 Q82 207 82 371 Q82 678 338 772 L338 776 Q218 843 176 930 Q143 997 143 1106 Q143 1272 271 1373 Q385 1463 559 1463 Q754 1463 873 1348 Q975 1249 975 1106 Q975 986 930.5 913 Q886 840 774 776 Z M246 403 Q246 256 350 173 Q435 106 559 106 Q702 106 790 196 Q868 277 868 403 Q868 548 767 631 Q683 701 559 701 Q416 701 327 611 Q246 529 246 403 Z M307 1086 Q307 973 390 903 Q460 844 559 844 Q674 844 746 918 Q811 985 811 1086 Q811 1202 728 1271 Q658 1328 559 1328 Q444 1328 372 1254 Q307 1187 307 1086 Z " />
<glyph glyph-name="nine" unicode="9" horiz-adv-x="1081" d="M148 135 L277 217 Q362 106 510 106 Q704 106 792 328 Q850 475 850 674 L846 674 Q728 541 510 541 Q312 541 188 693 Q82 822 82 1002 Q82 1214 205 1340 Q324 1463 531 1463 Q1000 1463 1000 819 Q1000 369 878 167 Q760 -29 510 -29 Q272 -29 148 135 Z M826 1002 Q826 1165 732 1253 Q654 1328 531 1328 Q389 1328 308 1230 Q236 1143 236 1002 Q236 843 329 753 Q408 676 531 674 Q672 672 754 773 Q826 861 826 1002 Z " />
<glyph glyph-name="colon" unicode="&#x3a;" horiz-adv-x="360" d="M258 901 L258 725 L102 725 L102 901 L258 901 Z M258 176 L258 0 L102 0 L102 176 L258 176 Z " />
<glyph glyph-name="semicolon" unicode="&#x3b;" horiz-adv-x="360" d="M258 176 L258 0 L196 -176 L122 -176 L164 0 L102 0 L102 176 L258 176 Z M258 901 L258 725 L102 725 L102 901 L258 901 Z " />
<glyph glyph-name="less" unicode="&#x3c;" horiz-adv-x="1106" d="M102 631 L102 766 L1003 1196 L1003 1040 L286 698 L1003 356 L1003 201 L102 631 Z " />
<glyph glyph-name="equal" unicode="&#x3d;" horiz-adv-x="1106" d="M102 442 L102 577 L1003 577 L1003 442 L102 442 Z M102 819 L102 954 L1003 954 L1003 819 L102 819 Z " />
<glyph glyph-name="greater" unicode="&#x3e;" horiz-adv-x="1106" d="M1003 766 L1003 631 L102 201 L102 356 L819 698 L102 1040 L102 1196 L1003 766 Z " />
<glyph glyph-name="question" unicode="&#x3f;" horiz-adv-x="879" d="M461 176 L461 0 L305 0 L305 176 L461 176 Z M305 369 L305 418 Q305 520 345 590.5 Q385 661 497 756 Q592 838 626 889 Q674 963 674 1055 Q674 1194 601 1267 Q541 1328 447 1328 Q350 1328 288 1272 Q226 1216 191 1096 L41 1133 Q141 1463 438 1463 Q632 1463 739 1347 Q838 1240 838 1055 Q838 939 793.5 859.5 Q749 780 626 678 Q536 603 505 559 Q461 495 461 418 L461 369 L305 369 Z " />
<glyph glyph-name="at" unicode="&#x40;" horiz-adv-x="1597" d="M1138 205 Q1046 205 993 313 Q900 205 768 205 Q615 205 514 316 Q426 412 426 543 Q426 694 535 796 Q628 883 749 883 Q899 883 974 788 L978 788 L995 860 L1114 860 L1114 442 Q1114 382 1130 356 Q1146 330 1184 330 Q1248 330 1292.5 409 Q1337 488 1337 602 Q1337 852 1166 999 Q1023 1122 820 1122 Q665 1122 534 1043 Q406 966 331 835 Q255 700 255 542 Q255 385 332 252 Q407 123 535 48 Q666 -29 821 -29 Q1036 -29 1169 61 L1253 -37 Q1163 -104 1063.5 -133 Q964 -162 821 -162 Q625 -162 466 -74 Q306 14 216 171 Q122 335 122 542 Q122 742 216 908 Q307 1069 465 1162 Q627 1257 820 1257 Q993 1257 1147 1167 Q1295 1081 1383 940 Q1474 794 1474 637 Q1474 433 1379 315 Q1290 205 1138 205 Z M573 543 Q573 453 636 394 Q691 342 768 342 Q854 342 910 408 Q958 465 958 543 Q958 630 896 690 Q842 742 768 742 Q680 742 622 675 Q573 618 573 543 Z " />
<glyph glyph-name="A" unicode="A" horiz-adv-x="1065" d="M328 438 L205 0 L41 0 L457 1434 L604 1434 L1024 0 L860 0 L737 438 L328 438 Z M365 573 L700 573 L535 1170 L530 1170 L365 573 Z " />
<glyph glyph-name="B" unicode="B" horiz-adv-x="1044" d="M707 758 L707 754 Q835 729 903 623 Q963 530 963 393 Q963 180 819 81 Q701 0 496 0 L123 0 L123 1434 L449 1434 Q922 1434 922 1073 Q922 810 707 758 Z M287 135 L455 135 Q645 135 720 190 Q799 249 799 393 Q799 563 693 630 Q608 684 436 684 L287 684 L287 135 Z M287 819 L439 819 Q616 819 687 877 Q758 936 758 1073 Q758 1194 681.5 1246.5 Q605 1299 428 1299 L287 1299 L287 819 Z " />
<glyph glyph-name="C" unicode="C" horiz-adv-x="1106" d="M873 399 L1024 363 Q972 145 859 54 Q755 -29 571 -29 Q297 -29 182 178 Q82 356 82 717 Q82 1118 213 1299 Q333 1463 571 1463 Q766 1463 871 1362 Q957 1281 1008 1112 L858 1075 Q816 1213 744 1272 Q677 1328 572 1328 Q392 1328 313 1151 Q246 1002 246 717 Q246 380 334 235 Q412 106 572 106 Q699 106 774 188 Q839 259 873 399 Z " />
<glyph glyph-name="D" unicode="D" horiz-adv-x="1085" d="M123 1434 L387 1434 Q740 1434 881 1241 Q1004 1074 1004 717 Q1004 288 846 131 Q714 0 416 0 L123 0 L123 1434 Z M287 1299 L287 135 L387 135 Q562 135 653 181 Q753 232 797 357 Q840 481 840 717 Q840 1051 721 1181 Q614 1299 373 1299 L287 1299 Z " />
<glyph glyph-name="E" unicode="E" horiz-adv-x="942" d="M123 1434 L840 1434 L840 1299 L287 1299 L287 819 L717 819 L717 684 L287 684 L287 135 L860 135 L860 0 L123 0 L123 1434 Z " />
<glyph glyph-name="F" unicode="F" horiz-adv-x="881" d="M123 1434 L840 1434 L840 1299 L287 1299 L287 778 L717 778 L717 643 L287 643 L287 0 L123 0 L123 1434 Z " />
<glyph glyph-name="G" unicode="G" horiz-adv-x="1106" d="M572 -29 Q297 -29 182 178 Q82 356 82 717 Q82 1118 213 1299 Q333 1463 572 1463 Q766 1463 871 1362 Q957 1281 1008 1112 L858 1075 Q816 1213 744 1272 Q677 1328 572 1328 Q392 1328 313 1151 Q246 1002 246 717 Q246 380 334 235 Q412 106 572 106 Q686 106 772 196 Q860 288 860 434 L860 549 L584 549 L584 684 L1024 684 L1024 0 L922 0 L887 106 Q849 47 760.5 9 Q672 -29 572 -29 Z " />
<glyph glyph-name="H" unicode="H" horiz-adv-x="1147" d="M287 684 L287 0 L123 0 L123 1434 L287 1434 L287 819 L860 819 L860 1434 L1024 1434 L1024 0 L860 0 L860 684 L287 684 Z " />
<glyph glyph-name="I" unicode="I" horiz-adv-x="410" d="M287 1434 L287 0 L123 0 L123 1434 L287 1434 Z " />
<glyph glyph-name="J" unicode="J" horiz-adv-x="655" d="M41 0 L41 135 L117 135 Q241 135 307 223 Q369 306 369 453 L369 1434 L533 1434 L533 453 Q533 199 409 90 Q308 0 117 0 L41 0 Z " />
<glyph glyph-name="K" unicode="K" horiz-adv-x="1065" d="M287 1434 L287 684 L291 684 L815 1434 L1004 1434 L576 840 L1024 0 L844 0 L471 694 L287 436 L287 0 L123 0 L123 1434 L287 1434 Z " />
<glyph glyph-name="L" unicode="L" horiz-adv-x="840" d="M287 1434 L287 135 L799 135 L799 0 L123 0 L123 1434 L287 1434 Z " />
<glyph glyph-name="M" unicode="M" horiz-adv-x="1352" d="M1229 1434 L1229 0 L1082 0 L1082 1155 L1078 1155 L748 0 L615 0 L274 1155 L270 1155 L270 0 L123 0 L123 1434 L342 1434 L678 289 L682 289 L1014 1434 L1229 1434 Z " />
<glyph glyph-name="N" unicode="N" horiz-adv-x="1126" d="M1004 1434 L1004 0 L898 0 L274 1112 L270 1112 L270 0 L123 0 L123 1434 L254 1434 L853 367 L857 367 L857 1434 L1004 1434 Z " />
<glyph glyph-name="O" unicode="O" horiz-adv-x="1147" d="M82 717 Q82 1118 213 1299 Q333 1463 571 1463 Q846 1463 965 1249 Q1065 1068 1065 717 Q1065 305 933 129 Q815 -29 571 -29 Q297 -29 182 178 Q82 356 82 717 Z M246 717 Q246 380 334 235 Q412 106 571 106 Q755 106 833 275 Q901 422 901 717 Q901 1042 812 1192 Q731 1328 571 1328 Q392 1328 313 1151 Q246 1002 246 717 Z " />
<glyph glyph-name="P" unicode="P" horiz-adv-x="1044" d="M123 1434 L473 1434 Q963 1434 963 1012 Q963 598 490 598 L287 598 L287 0 L123 0 L123 1434 Z M287 733 L477 733 Q659 733 731 802 Q799 867 799 1012 Q799 1167 719.5 1233 Q640 1299 453 1299 L287 1299 L287 733 Z " />
<glyph glyph-name="Q" unicode="Q" horiz-adv-x="1147" d="M82 717 Q82 1118 213 1299 Q333 1463 571 1463 Q846 1463 965 1249 Q1065 1068 1065 717 Q1065 217 864 57 L1002 -164 L830 -164 L735 -6 Q659 -29 571 -29 Q297 -29 182 178 Q82 356 82 717 Z M246 717 Q246 380 334 235 Q412 106 571 106 Q755 106 833 275 Q901 422 901 717 Q901 1042 812 1192 Q731 1328 571 1328 Q392 1328 313 1151 Q246 1002 246 717 Z " />
<glyph glyph-name="R" unicode="R" horiz-adv-x="1065" d="M123 1434 L473 1434 Q963 1434 963 1012 Q963 683 662 614 L1004 0 L830 0 L498 598 L287 598 L287 0 L123 0 L123 1434 Z M287 733 L477 733 Q659 733 731 802 Q799 867 799 1012 Q799 1167 719.5 1233 Q640 1299 453 1299 L287 1299 L287 733 Z " />
<glyph glyph-name="S" unicode="S" horiz-adv-x="1004" d="M907 1133 L758 1096 Q689 1328 481 1328 Q375 1328 311 1256 Q254 1193 254 1096 Q254 970 361 890 Q417 848 564 786 Q763 702 836 631 Q942 527 942 360 Q942 163 801 58 Q686 -29 510 -29 Q326 -29 202 74 Q93 164 41 324 L193 361 Q233 240 319 172 Q403 106 512 106 Q636 106 711 184 Q778 253 778 360 Q778 473 675 550 Q621 590 479 654 Q276 744 200 818 Q90 927 90 1096 Q90 1278 217 1379 Q325 1463 489 1463 Q653 1463 764 1368 Q862 1284 907 1133 Z " />
<glyph glyph-name="T" unicode="T" horiz-adv-x="942" d="M41 1434 L901 1434 L901 1299 L553 1299 L553 0 L389 0 L389 1299 L41 1299 L41 1434 Z " />
<glyph glyph-name="U" unicode="U" horiz-adv-x="1147" d="M287 1434 L287 565 Q287 334 347 227 Q414 106 567 106 Q748 106 815 258 Q860 359 860 545 L860 1434 L1024 1434 L1024 545 Q1024 246 921 113 Q812 -29 567 -29 Q298 -29 196 158 Q123 293 123 555 L123 1434 L287 1434 Z " />
<glyph glyph-name="V" unicode="V" horiz-adv-x="1065" d="M205 1434 L530 285 L535 285 L860 1434 L1024 1434 L594 0 L467 0 L41 1434 L205 1434 Z " />
<glyph glyph-name="W" unicode="W" horiz-adv-x="1475" d="M205 1434 L397 258 L401 258 L655 1434 L819 1434 L1071 258 L1075 258 L1270 1434 L1434 1434 L1149 0 L985 0 L737 1139 L733 1139 L490 0 L326 0 L41 1434 L205 1434 Z " />
<glyph glyph-name="X" unicode="X" horiz-adv-x="1065" d="M983 1434 L619 752 L1024 0 L848 0 L541 586 L537 586 L217 0 L41 0 L451 746 L82 1434 L258 1434 L533 905 L537 905 L807 1434 L983 1434 Z " />
<glyph glyph-name="Y" unicode="Y" horiz-adv-x="1065" d="M1024 1434 L617 606 L617 0 L453 0 L453 606 L41 1434 L213 1434 L535 758 L539 758 L852 1434 L1024 1434 Z " />
<glyph glyph-name="Z" unicode="Z" horiz-adv-x="1004" d="M123 1434 L901 1434 L901 1328 L266 135 L922 135 L922 0 L82 0 L82 106 L717 1299 L123 1299 L123 1434 Z " />
<glyph glyph-name="bracketleft" unicode="&#x5b;" horiz-adv-x="655" d="M307 1515 L307 -286 L492 -286 L492 -397 L164 -397 L164 1626 L492 1626 L492 1515 L307 1515 Z " />
<glyph glyph-name="backslash" unicode="&#x5c;" horiz-adv-x="852" d="M655 -29 L41 1462 L197 1462 L811 -29 L655 -29 Z " />
<glyph glyph-name="bracketright" unicode="&#x5d;" horiz-adv-x="655" d="M349 -286 L349 1515 L164 1515 L164 1626 L492 1626 L492 -397 L164 -397 L164 -286 L349 -286 Z " />
<glyph glyph-name="underscore" unicode="&#x5f;" horiz-adv-x="1024" d="M1028 -41 L1028 -164 L-4 -164 L-4 -41 L1028 -41 Z " />
<glyph glyph-name="grave" unicode="&#x60;" horiz-adv-x="586" d="M123 1372 L340 1372 L463 1176 L328 1176 L123 1372 Z " />
<glyph glyph-name="a" unicode="a" horiz-adv-x="967" d="M844 0 L733 0 L709 106 L704 106 Q608 -20 414 -20 Q253 -20 161 70 Q82 148 82 271 Q82 380 162 457 Q242 534 414 592 L688 684 L688 702 Q688 818 639 867.5 Q590 917 477 917 Q390 917 332.5 873.5 Q275 830 256 750 L114 778 Q174 1044 477 1044 Q680 1044 766 949 Q844 863 844 684 L844 0 Z M688 344 L688 557 L414 459 Q238 394 238 271 Q238 196 285.5 151.5 Q333 107 414 107 Q543 107 620 179 Q688 243 688 344 Z " />
<glyph glyph-name="b" unicode="b" horiz-adv-x="975" d="M258 106 L234 0 L123 0 L123 1434 L279 1434 L279 918 L283 918 Q358 1045 525 1045 Q731 1045 823 868 Q893 735 893 508 Q893 -20 525 -20 Q438 -20 368 14 Q298 48 263 106 L258 106 Z M279 725 L279 401 Q279 262 351 178 Q413 107 504 107 Q639 107 693 224 Q737 318 737 508 Q737 727 679 824 Q623 918 504 918 Q437 918 374.5 864 Q312 810 279 725 Z " />
<glyph glyph-name="c" unicode="c" horiz-adv-x="885" d="M684 295 L823 270 Q781 110 696 43 Q615 -20 475 -20 Q266 -20 165 141 Q82 275 82 508 Q82 781 193 919 Q294 1044 475 1044 Q631 1044 719 956 Q789 886 823 750 L682 725 Q640 917 475 917 Q238 917 238 508 Q238 296 298 200 Q355 107 475 107 Q558 107 606 150.5 Q654 194 684 295 Z " />
<glyph glyph-name="d" unicode="d" horiz-adv-x="975" d="M741 0 L716 106 L712 106 Q677 48 607 14 Q537 -20 450 -20 Q82 -20 82 508 Q82 770 175 907 Q268 1045 450 1045 Q617 1045 692 918 L696 918 L696 1434 L852 1434 L852 0 L741 0 Z M696 401 L696 725 Q662 814 596 868 Q535 918 471 918 Q336 918 282 796 Q238 699 238 508 Q238 291 296 197 Q352 107 471 107 Q576 107 640 199 Q696 280 696 401 Z " />
<glyph glyph-name="e" unicode="e" horiz-adv-x="971" d="M496 107 Q680 107 735 295 L875 270 Q833 111 737 43 Q649 -20 496 -20 Q274 -20 169 141 Q82 274 82 508 Q82 780 199 919 Q305 1044 496 1044 Q703 1044 803 876 Q889 730 889 467 L238 467 Q246 276 311 190 Q374 107 496 107 Z M242 594 L729 594 Q718 747 659 831 Q599 917 496 917 Q265 917 242 594 Z " />
<glyph glyph-name="f" unicode="f" horiz-adv-x="565" d="M524 1434 L524 1307 L451 1307 Q385 1307 362.5 1270.5 Q340 1234 340 1127 L340 1024 L504 1024 L504 897 L340 897 L340 0 L184 0 L184 897 L41 897 L41 1024 L184 1024 L184 1129 Q184 1288 238 1357 Q297 1434 436 1434 L524 1434 Z " />
<glyph glyph-name="g" unicode="g" horiz-adv-x="975" d="M475 -270 Q571 -270 631 -208 Q696 -139 696 -8 L696 147 L692 147 Q617 20 450 20 Q82 20 82 536 Q82 798 175 922 Q265 1044 450 1044 Q531 1044 601 1010 Q671 976 712 918 L716 918 L741 1024 L852 1024 L852 12 Q852 -213 732 -316 Q638 -397 475 -397 Q323 -397 227 -327 Q133 -259 104 -131 L245 -102 Q264 -181 325 -225.5 Q386 -270 475 -270 Z M696 463 L696 745 Q666 823 604.5 870 Q543 917 471 917 Q335 917 282 807 Q238 716 238 528 Q238 314 296 228 Q351 147 471 147 Q574 147 640 250 Q696 339 696 463 Z " />
<glyph glyph-name="h" unicode="h" horiz-adv-x="975" d="M279 1434 L279 918 L283 918 Q319 978 389 1011.5 Q459 1045 547 1045 Q852 1045 852 684 L852 0 L696 0 L696 684 Q696 809 664 858 Q625 918 524 918 Q447 918 378.5 870 Q310 822 279 745 L279 0 L123 0 L123 1434 L279 1434 Z " />
<glyph glyph-name="i" unicode="i" horiz-adv-x="401" d="M279 1024 L279 0 L123 0 L123 1024 L279 1024 Z M279 1372 L279 1196 L123 1196 L123 1372 L279 1372 Z " />
<glyph glyph-name="j" unicode="j" horiz-adv-x="442" d="M319 1024 L319 -94 Q319 -243 258 -307 Q200 -369 73 -369 L20 -369 L20 -242 L73 -242 Q122 -242 142.5 -199.5 Q163 -157 163 -55 L163 1024 L319 1024 Z M319 1372 L319 1196 L163 1196 L163 1372 L319 1372 Z " />
<glyph glyph-name="k" unicode="k" horiz-adv-x="889" d="M279 1434 L279 526 L283 526 L635 1024 L807 1024 L529 643 L848 0 L680 0 L437 500 L433 500 L279 309 L279 0 L123 0 L123 1434 L279 1434 Z " />
<glyph glyph-name="l" unicode="l" horiz-adv-x="401" d="M279 1434 L279 0 L123 0 L123 1434 L279 1434 Z " />
<glyph glyph-name="m" unicode="m" horiz-adv-x="1446" d="M801 745 L801 0 L645 0 L645 684 Q645 917 504 917 Q431 917 371.5 871.5 Q312 826 279 745 L279 0 L123 0 L123 1024 L234 1024 L258 918 L263 918 Q339 1044 516 1044 Q711 1044 770 897 L774 897 Q815 964 886.5 1004 Q958 1044 1038 1044 Q1189 1044 1256 959 Q1323 874 1323 684 L1323 0 L1167 0 L1167 684 Q1167 805 1138 857 Q1105 917 1026 917 Q953 917 893.5 871.5 Q834 826 801 745 Z " />
<glyph glyph-name="n" unicode="n" horiz-adv-x="975" d="M234 1024 L258 918 L263 918 Q297 974 375.5 1009 Q454 1044 547 1044 Q852 1044 852 684 L852 0 L696 0 L696 684 Q696 808 664 857 Q625 917 524 917 Q447 917 378.5 869.5 Q310 822 279 745 L279 0 L123 0 L123 1024 L234 1024 Z " />
<glyph glyph-name="o" unicode="o" horiz-adv-x="950" d="M475 -20 Q266 -20 165 141 Q82 275 82 508 Q82 781 193 919 Q293 1044 475 1044 Q682 1044 783 882 Q868 746 868 508 Q868 240 759 104 Q658 -20 475 -20 Z M475 107 Q611 107 667 227 Q712 323 712 508 Q712 917 475 917 Q238 917 238 508 Q238 296 298 200 Q355 107 475 107 Z " />
<glyph glyph-name="p" unicode="p" horiz-adv-x="975" d="M234 1024 L258 918 L263 918 Q298 976 368 1010 Q438 1044 525 1044 Q893 1044 893 516 Q893 254 800 117 Q707 -21 525 -21 Q358 -21 283 106 L279 106 L279 -369 L123 -369 L123 1024 L234 1024 Z M279 745 L279 422 Q279 279 351 187 Q415 106 504 106 Q639 106 693 223 Q737 317 737 507 Q737 726 679 823 Q623 917 504 917 Q432 917 370.5 870 Q309 823 279 745 Z " />
<glyph glyph-name="q" unicode="q" horiz-adv-x="975" d="M716 918 L741 1024 L852 1024 L852 -369 L696 -369 L696 106 L692 106 Q617 -21 450 -21 Q244 -21 152 156 Q82 289 82 516 Q82 1044 450 1044 Q537 1044 607 1010 Q677 976 712 918 L716 918 Z M696 422 L696 745 Q666 823 604.5 870 Q543 917 471 917 Q336 917 282 795 Q238 698 238 507 Q238 290 296 196 Q352 106 471 106 Q574 106 640 209 Q696 298 696 422 Z " />
<glyph glyph-name="r" unicode="r" horiz-adv-x="623" d="M234 1024 L258 918 L263 918 Q303 984 378.5 1014 Q454 1044 582 1044 L582 889 Q552 897 514 897 Q384 897 329 821 Q279 752 279 602 L279 0 L123 0 L123 1024 L234 1024 Z " />
<glyph glyph-name="s" unicode="s" horiz-adv-x="815" d="M737 854 L623 766 Q532 909 404 909 Q323 909 277 866 Q236 828 236 768 Q236 718 276.5 685 Q317 652 437 603 Q600 537 662 480 Q754 396 754 269 Q754 126 649 47 Q561 -20 424 -20 Q298 -20 192 43 Q98 99 41 193 L156 279 Q264 115 424 115 Q511 115 559 162 Q600 203 600 268 Q600 328 555.5 367 Q511 406 380 462 Q226 528 168 579 Q84 655 84 768 Q84 900 186 977 Q274 1044 403 1044 Q507 1044 584.5 1000 Q662 956 737 854 Z " />
<glyph glyph-name="t" unicode="t" horiz-adv-x="586" d="M524 127 L524 0 L436 0 Q301 0 242.5 70.5 Q184 141 184 305 L184 897 L41 897 L41 1024 L184 1024 L213 1327 L340 1327 L340 1024 L504 1024 L504 897 L340 897 L340 307 Q340 201 361 166 Q384 127 451 127 L524 127 Z " />
<glyph glyph-name="u" unicode="u" horiz-adv-x="975" d="M745 0 L721 106 L717 106 Q683 50 602.5 15 Q522 -20 428 -20 Q123 -20 123 340 L123 1024 L279 1024 L279 340 Q279 216 311 167 Q350 107 451 107 Q528 107 596.5 154.5 Q665 202 696 279 L696 1024 L852 1024 L852 0 L745 0 Z " />
<glyph glyph-name="v" unicode="v" horiz-adv-x="938" d="M876 1024 L546 0 L391 0 L61 1024 L221 1024 L467 209 L471 209 L716 1024 L876 1024 Z " />
<glyph glyph-name="w" unicode="w" horiz-adv-x="1294" d="M895 209 L1073 1024 L1232 1024 L966 0 L811 0 L649 786 L645 786 L483 0 L327 0 L61 1024 L221 1024 L399 209 L403 209 L569 1024 L725 1024 L890 209 L895 209 Z " />
<glyph glyph-name="x" unicode="x" horiz-adv-x="901" d="M796 1024 L528 532 L839 0 L675 0 L448 397 L444 397 L225 0 L61 0 L362 532 L73 1024 L237 1024 L444 649 L448 649 L632 1024 L796 1024 Z " />
<glyph glyph-name="y" unicode="y" horiz-adv-x="938" d="M876 1024 L546 0 Q477 -201 403 -282 Q324 -369 204 -369 L122 -369 L122 -242 L183 -242 Q324 -242 390 0 L61 1024 L220 1024 L466 209 L470 209 L716 1024 L876 1024 Z " />
<glyph glyph-name="z" unicode="z" horiz-adv-x="909" d="M143 1024 L786 1024 L786 938 L286 131 L286 127 L807 127 L807 0 L102 0 L102 86 L602 893 L602 897 L143 897 L143 1024 Z " />
<glyph glyph-name="braceleft" unicode="&#x7b;" horiz-adv-x="655" d="M82 533 L82 694 Q229 760 229 993 L229 1349 Q229 1479 305 1557 Q368 1622 454 1622 L574 1622 L574 1499 L489 1499 Q446 1499 411 1465 Q376 1431 376 1388 L376 963 Q376 736 225 615 Q293 570 334.5 474.5 Q376 379 376 266 L376 -155 Q376 -199 411 -234.5 Q446 -270 489 -270 L574 -270 L574 -395 L454 -395 Q354 -395 288 -311 Q229 -235 229 -123 L229 234 Q229 469 82 533 Z " />
<glyph glyph-name="bar" unicode="&#x7c;" horiz-adv-x="532" d="M328 1618 L328 -397 L205 -397 L205 1618 L328 1618 Z " />
<glyph glyph-name="braceright" unicode="&#x7d;" horiz-adv-x="655" d="M574 694 L574 533 Q426 469 426 234 L426 -123 Q426 -252 350 -330 Q288 -395 201 -395 L82 -395 L82 -270 L166 -270 Q209 -270 244 -234.5 Q279 -199 279 -155 L279 266 Q279 379 320.5 474.5 Q362 570 430 615 Q279 736 279 963 L279 1388 Q279 1431 244.5 1465 Q210 1499 166 1499 L82 1499 L82 1622 L201 1622 Q302 1622 367 1538 Q426 1462 426 1349 L426 993 Q426 760 574 694 Z " />
<glyph glyph-name="Adieresis" unicode="&#xc4;" horiz-adv-x="1065" d="M328 438 L205 0 L41 0 L457 1434 L604 1434 L1024 0 L860 0 L737 438 L328 438 Z M365 573 L700 573 L535 1170 L530 1170 L365 573 Z M457 1733 L457 1557 L301 1557 L301 1733 L457 1733 Z M764 1733 L764 1557 L608 1557 L608 1733 L764 1733 Z " />
<glyph glyph-name="Aring" unicode="&#xc5;" horiz-adv-x="1065" d="M348 1698 Q348 1780 409 1835 Q461 1882 533 1882 Q615 1882 670 1821 Q717 1769 717 1698 Q717 1615 656 1560 Q604 1513 533 1513 Q450 1513 395 1574 Q348 1626 348 1698 Z M442 1698 Q442 1660 468.5 1633.5 Q495 1607 533 1607 Q570 1607 596.5 1633.5 Q623 1660 623 1698 Q623 1735 596.5 1761.5 Q570 1788 533 1788 Q495 1788 468.5 1761.5 Q442 1735 442 1698 Z M328 438 L205 0 L41 0 L457 1434 L604 1434 L1024 0 L860 0 L737 438 L328 438 Z M365 573 L700 573 L535 1170 L530 1170 L365 573 Z " />
<glyph glyph-name="Ccedilla" unicode="&#xc7;" horiz-adv-x="1106" d="M375 -327 L410 -266 Q475 -319 551 -319 Q594 -319 622.5 -297 Q651 -275 651 -241 Q651 -208 622 -185.5 Q593 -163 551 -163 Q512 -163 490 -180 L467 -168 L549 -28 Q288 -20 177 186 Q82 364 82 717 Q82 1118 213 1299 Q333 1463 571 1463 Q766 1463 871 1362 Q957 1281 1008 1112 L858 1076 Q816 1213 744 1272 Q677 1328 572 1328 Q392 1328 313 1151 Q246 1002 246 717 Q246 381 334 236 Q412 107 572 107 Q699 107 774 189 Q839 260 873 400 L1024 363 Q975 162 877 71 Q786 -14 631 -26 L592 -94 L594 -96 Q610 -92 627 -92 Q682 -92 727 -139 Q772 -186 772 -243 Q772 -397 557 -397 Q445 -397 375 -327 Z " />
<glyph glyph-name="Eacute" unicode="&#xc9;" horiz-adv-x="942" d="M123 1434 L840 1434 L840 1299 L287 1299 L287 819 L717 819 L717 684 L287 684 L287 135 L860 135 L860 0 L123 0 L123 1434 Z M498 1733 L715 1733 L510 1536 L375 1536 L498 1733 Z " />
<glyph glyph-name="Ntilde" unicode="&#xd1;" horiz-adv-x="1126" d="M1004 1434 L1004 0 L898 0 L274 1112 L270 1112 L270 0 L123 0 L123 1434 L254 1434 L853 367 L857 367 L857 1434 L1004 1434 Z M446 1720 Q513 1720 578 1681 Q621 1655 649 1655 Q693 1655 704 1720 L815 1720 Q806 1635 769.5 1585.5 Q733 1536 680 1536 Q615 1536 546 1576 Q503 1601 477 1601 Q433 1601 422 1536 L311 1536 Q320 1623 356 1671.5 Q392 1720 446 1720 Z " />
<glyph glyph-name="Odieresis" unicode="&#xd6;" horiz-adv-x="1147" d="M467 1712 L467 1536 L311 1536 L311 1712 L467 1712 Z M836 1712 L836 1536 L680 1536 L680 1712 L836 1712 Z M82 717 Q82 1118 213 1299 Q333 1463 571 1463 Q846 1463 965 1249 Q1065 1068 1065 717 Q1065 305 933 129 Q815 -29 571 -29 Q297 -29 182 178 Q82 356 82 717 Z M246 717 Q246 380 334 235 Q412 106 571 106 Q755 106 833 275 Q901 422 901 717 Q901 1042 812 1192 Q731 1328 571 1328 Q392 1328 313 1151 Q246 1002 246 717 Z " />
<glyph glyph-name="Udieresis" unicode="&#xdc;" horiz-adv-x="1147" d="M467 1712 L467 1536 L311 1536 L311 1712 L467 1712 Z M836 1712 L836 1536 L680 1536 L680 1712 L836 1712 Z M287 1434 L287 565 Q287 334 347 227 Q414 106 567 106 Q748 106 815 258 Q860 359 860 545 L860 1434 L1024 1434 L1024 545 Q1024 246 921 113 Q812 -29 567 -29 Q298 -29 196 158 Q123 293 123 555 L123 1434 L287 1434 Z " />
<glyph glyph-name="aacute" unicode="&#xe1;" horiz-adv-x="967" d="M844 0 L733 0 L709 106 L704 106 Q608 -20 414 -20 Q253 -20 161 70 Q82 148 82 271 Q82 380 162 457 Q242 534 414 592 L688 684 L688 702 Q688 818 639 867.5 Q590 917 477 917 Q390 917 332.5 873.5 Q275 830 256 750 L114 778 Q174 1044 477 1044 Q680 1044 766 949 Q844 863 844 684 L844 0 Z M688 344 L688 557 L414 459 Q238 394 238 271 Q238 196 285.5 151.5 Q333 107 414 107 Q543 107 620 179 Q688 243 688 344 Z M508 1372 L725 1372 L520 1176 L385 1176 L508 1372 Z " />
<glyph glyph-name="agrave" unicode="&#xe0;" horiz-adv-x="967" d="M844 0 L733 0 L709 106 L704 106 Q608 -20 414 -20 Q253 -20 161 70 Q82 148 82 271 Q82 380 162 457 Q242 534 414 592 L688 684 L688 702 Q688 818 639 867.5 Q590 917 477 917 Q390 917 332.5 873.5 Q275 830 256 750 L114 778 Q174 1044 477 1044 Q680 1044 766 949 Q844 863 844 684 L844 0 Z M688 344 L688 557 L414 459 Q238 394 238 271 Q238 196 285.5 151.5 Q333 107 414 107 Q543 107 620 179 Q688 243 688 344 Z M264 1372 L481 1372 L604 1176 L469 1176 L264 1372 Z " />
<glyph glyph-name="acircumflex" unicode="&#xe2;" horiz-adv-x="967" d="M844 0 L733 0 L709 106 L704 106 Q608 -20 414 -20 Q253 -20 161 70 Q82 148 82 271 Q82 380 162 457 Q242 534 414 592 L688 684 L688 702 Q688 818 639 867.5 Q590 917 477 917 Q390 917 332.5 873.5 Q275 830 256 750 L114 778 Q174 1044 477 1044 Q680 1044 766 949 Q844 863 844 684 L844 0 Z M688 344 L688 557 L414 459 Q238 394 238 271 Q238 196 285.5 151.5 Q333 107 414 107 Q543 107 620 179 Q688 243 688 344 Z M387 1372 L583 1372 L747 1176 L604 1176 L485 1280 L366 1176 L223 1176 L387 1372 Z " />
<glyph glyph-name="adieresis" unicode="&#xe4;" horiz-adv-x="967" d="M844 0 L733 0 L709 106 L704 106 Q608 -20 414 -20 Q253 -20 161 70 Q82 148 82 271 Q82 380 162 457 Q242 534 414 592 L688 684 L688 702 Q688 818 639 867.5 Q590 917 477 917 Q390 917 332.5 873.5 Q275 830 256 750 L114 778 Q174 1044 477 1044 Q680 1044 766 949 Q844 863 844 684 L844 0 Z M688 344 L688 557 L414 459 Q238 394 238 271 Q238 196 285.5 151.5 Q333 107 414 107 Q543 107 620 179 Q688 243 688 344 Z M408 1372 L408 1196 L252 1196 L252 1372 L408 1372 Z M715 1372 L715 1196 L559 1196 L559 1372 L715 1372 Z " />
<glyph glyph-name="atilde" unicode="&#xe3;" horiz-adv-x="967" d="M844 0 L733 0 L709 106 L704 106 Q608 -20 414 -20 Q253 -20 161 70 Q82 148 82 271 Q82 380 162 457 Q242 534 414 592 L688 684 L688 702 Q688 818 639 867.5 Q590 917 477 917 Q390 917 332.5 873.5 Q275 830 256 750 L114 778 Q174 1044 477 1044 Q680 1044 766 949 Q844 863 844 684 L844 0 Z M688 344 L688 557 L414 459 Q238 394 238 271 Q238 196 285.5 151.5 Q333 107 414 107 Q543 107 620 179 Q688 243 688 344 Z M367 1360 Q434 1360 499 1321 Q542 1295 570 1295 Q614 1295 625 1360 L736 1360 Q727 1275 690.5 1225.5 Q654 1176 601 1176 Q536 1176 467 1216 Q424 1241 398 1241 Q354 1241 343 1176 L232 1176 Q241 1263 277 1311.5 Q313 1360 367 1360 Z " />
<glyph glyph-name="aring" unicode="&#xe5;" horiz-adv-x="967" d="M301 1334 Q301 1416 362 1471 Q414 1518 485 1518 Q568 1518 623 1457 Q670 1405 670 1334 Q670 1251 609 1196 Q557 1149 485 1149 Q403 1149 348 1210 Q301 1262 301 1334 Z M395 1334 Q395 1296 421.5 1269.5 Q448 1243 485 1243 Q523 1243 549.5 1269.5 Q576 1296 576 1334 Q576 1371 549.5 1397.5 Q523 1424 485 1424 Q448 1424 421.5 1397.5 Q395 1371 395 1334 Z M844 0 L733 0 L709 106 L704 106 Q608 -20 414 -20 Q253 -20 161 70 Q82 148 82 271 Q82 380 162 457 Q242 534 414 592 L688 684 L688 702 Q688 818 639 867.5 Q590 917 477 917 Q390 917 332.5 873.5 Q275 830 256 750 L114 778 Q174 1044 477 1044 Q680 1044 766 949 Q844 863 844 684 L844 0 Z M688 344 L688 557 L414 459 Q238 394 238 271 Q238 196 285.5 151.5 Q333 107 414 107 Q543 107 620 179 Q688 243 688 344 Z " />
<glyph glyph-name="ccedilla" unicode="&#xe7;" horiz-adv-x="885" d="M264 -328 L299 -266 Q365 -319 441 -319 Q484 -319 512.5 -297 Q541 -275 541 -242 Q541 -209 512 -186.5 Q483 -164 441 -164 Q402 -164 379 -180 L356 -168 L442 -18 Q250 -7 159 151 Q82 283 82 508 Q82 781 193 919 Q294 1044 475 1044 Q631 1044 719 956 Q789 886 823 750 L682 725 Q640 917 475 917 Q238 917 238 507 Q238 295 298 199 Q355 106 475 106 Q558 106 606 149.5 Q654 193 684 295 L823 270 Q785 124 711 56 Q641 -7 526 -18 L481 -94 L483 -96 Q499 -92 516 -92 Q571 -92 616.5 -139 Q662 -186 662 -243 Q662 -397 447 -397 Q334 -397 264 -328 Z " />
<glyph glyph-name="eacute" unicode="&#xe9;" horiz-adv-x="971" d="M496 107 Q680 107 735 295 L875 270 Q833 111 737 43 Q649 -20 496 -20 Q274 -20 169 141 Q82 274 82 508 Q82 780 199 919 Q305 1044 496 1044 Q703 1044 803 876 Q889 730 889 467 L238 467 Q246 276 311 190 Q374 107 496 107 Z M242 594 L729 594 Q718 747 659 831 Q599 917 496 917 Q265 917 242 594 Z M510 1372 L727 1372 L522 1176 L387 1176 L510 1372 Z " />
<glyph glyph-name="egrave" unicode="&#xe8;" horiz-adv-x="971" d="M496 107 Q680 107 735 295 L875 270 Q833 111 737 43 Q649 -20 496 -20 Q274 -20 169 141 Q82 274 82 508 Q82 780 199 919 Q305 1044 496 1044 Q703 1044 803 876 Q889 730 889 467 L238 467 Q246 276 311 190 Q374 107 496 107 Z M242 594 L729 594 Q718 747 659 831 Q599 917 496 917 Q265 917 242 594 Z M266 1372 L483 1372 L606 1176 L471 1176 L266 1372 Z " />
<glyph glyph-name="ecircumflex" unicode="&#xea;" horiz-adv-x="971" d="M496 107 Q680 107 735 295 L875 270 Q833 111 737 43 Q649 -20 496 -20 Q274 -20 169 141 Q82 274 82 508 Q82 780 199 919 Q305 1044 496 1044 Q703 1044 803 876 Q889 730 889 467 L238 467 Q246 276 311 190 Q374 107 496 107 Z M242 594 L729 594 Q718 747 659 831 Q599 917 496 917 Q265 917 242 594 Z M387 1372 L583 1372 L747 1176 L604 1176 L485 1280 L366 1176 L223 1176 L387 1372 Z " />
<glyph glyph-name="edieresis" unicode="&#xeb;" horiz-adv-x="971" d="M496 107 Q680 107 735 295 L875 270 Q833 111 737 43 Q649 -20 496 -20 Q274 -20 169 141 Q82 274 82 508 Q82 780 199 919 Q305 1044 496 1044 Q703 1044 803 876 Q889 730 889 467 L238 467 Q246 276 311 190 Q374 107 496 107 Z M242 594 L729 594 Q718 747 659 831 Q599 917 496 917 Q265 917 242 594 Z M420 1372 L420 1196 L264 1196 L264 1372 L420 1372 Z M727 1372 L727 1196 L571 1196 L571 1372 L727 1372 Z " />
<glyph glyph-name="iacute" unicode="&#xed;" horiz-adv-x="401" d="M279 1024 L279 0 L123 0 L123 1024 L279 1024 Z M246 1372 L463 1372 L258 1176 L123 1176 L246 1372 Z " />
<glyph glyph-name="igrave" unicode="&#xec;" horiz-adv-x="401" d="M279 1024 L279 0 L123 0 L123 1024 L279 1024 Z M-37 1372 L180 1372 L303 1176 L168 1176 L-37 1372 Z " />
<glyph glyph-name="icircumflex" unicode="&#xee;" horiz-adv-x="401" d="M279 1024 L279 0 L123 0 L123 1024 L279 1024 Z M103 1372 L299 1372 L463 1176 L320 1176 L201 1280 L82 1176 L-61 1176 L103 1372 Z " />
<glyph glyph-name="idieresis" unicode="&#xef;" horiz-adv-x="401" d="M279 1024 L279 0 L123 0 L123 1024 L279 1024 Z M125 1372 L125 1196 L-31 1196 L-31 1372 L125 1372 Z M432 1372 L432 1196 L276 1196 L276 1372 L432 1372 Z " />
<glyph glyph-name="ntilde" unicode="&#xf1;" horiz-adv-x="975" d="M234 1024 L258 918 L263 918 Q297 974 375.5 1009 Q454 1044 547 1044 Q852 1044 852 684 L852 0 L696 0 L696 684 Q696 808 664 857 Q625 917 524 917 Q447 917 378.5 869.5 Q310 822 279 745 L279 0 L123 0 L123 1024 L234 1024 Z M371 1360 Q438 1360 503 1321 Q546 1295 574 1295 Q618 1295 629 1360 L740 1360 Q731 1275 694.5 1225.5 Q658 1176 605 1176 Q540 1176 471 1216 Q428 1241 402 1241 Q358 1241 347 1176 L236 1176 Q245 1263 281 1311.5 Q317 1360 371 1360 Z " />
<glyph glyph-name="oacute" unicode="&#xf3;" horiz-adv-x="950" d="M475 -20 Q266 -20 165 141 Q82 275 82 508 Q82 781 193 919 Q293 1044 475 1044 Q682 1044 783 882 Q868 746 868 508 Q868 240 759 104 Q658 -20 475 -20 Z M475 107 Q611 107 667 227 Q712 323 712 508 Q712 917 475 917 Q238 917 238 508 Q238 296 298 200 Q355 107 475 107 Z M502 1372 L719 1372 L514 1176 L379 1176 L502 1372 Z " />
<glyph glyph-name="ograve" unicode="&#xf2;" horiz-adv-x="950" d="M475 -20 Q266 -20 165 141 Q82 275 82 508 Q82 781 193 919 Q293 1044 475 1044 Q682 1044 783 882 Q868 746 868 508 Q868 240 759 104 Q658 -20 475 -20 Z M475 107 Q611 107 667 227 Q712 323 712 508 Q712 917 475 917 Q238 917 238 508 Q238 296 298 200 Q355 107 475 107 Z M256 1372 L473 1372 L596 1176 L461 1176 L256 1372 Z " />
<glyph glyph-name="ocircumflex" unicode="&#xf4;" horiz-adv-x="950" d="M475 -20 Q266 -20 165 141 Q82 275 82 508 Q82 781 193 919 Q293 1044 475 1044 Q682 1044 783 882 Q868 746 868 508 Q868 240 759 104 Q658 -20 475 -20 Z M475 107 Q611 107 667 227 Q712 323 712 508 Q712 917 475 917 Q238 917 238 508 Q238 296 298 200 Q355 107 475 107 Z M377 1372 L573 1372 L737 1176 L594 1176 L475 1280 L356 1176 L213 1176 L377 1372 Z " />
<glyph glyph-name="odieresis" unicode="&#xf6;" horiz-adv-x="950" d="M475 -20 Q266 -20 165 141 Q82 275 82 508 Q82 781 193 919 Q293 1044 475 1044 Q682 1044 783 882 Q868 746 868 508 Q868 240 759 104 Q658 -20 475 -20 Z M475 107 Q611 107 667 227 Q712 323 712 508 Q712 917 475 917 Q238 917 238 508 Q238 296 298 200 Q355 107 475 107 Z M400 1372 L400 1196 L244 1196 L244 1372 L400 1372 Z M707 1372 L707 1196 L551 1196 L551 1372 L707 1372 Z " />
<glyph glyph-name="otilde" unicode="&#xf5;" horiz-adv-x="950" d="M475 -20 Q266 -20 165 141 Q82 275 82 508 Q82 781 193 919 Q293 1044 475 1044 Q682 1044 783 882 Q868 746 868 508 Q868 240 759 104 Q658 -20 475 -20 Z M475 107 Q611 107 667 227 Q712 323 712 508 Q712 917 475 917 Q238 917 238 508 Q238 296 298 200 Q355 107 475 107 Z M358 1360 Q425 1360 490 1321 Q533 1295 561 1295 Q605 1295 616 1360 L727 1360 Q718 1275 681.5 1225.5 Q645 1176 592 1176 Q527 1176 458 1216 Q415 1241 389 1241 Q345 1241 334 1176 L223 1176 Q232 1263 268 1311.5 Q304 1360 358 1360 Z " />
<glyph glyph-name="uacute" unicode="&#xfa;" horiz-adv-x="975" d="M745 0 L721 106 L717 106 Q683 50 602.5 15 Q522 -20 428 -20 Q123 -20 123 340 L123 1024 L279 1024 L279 340 Q279 216 311 167 Q350 107 451 107 Q528 107 596.5 154.5 Q665 202 696 279 L696 1024 L852 1024 L852 0 L745 0 Z M535 1372 L752 1372 L547 1176 L412 1176 L535 1372 Z " />
<glyph glyph-name="ugrave" unicode="&#xf9;" horiz-adv-x="975" d="M745 0 L721 106 L717 106 Q683 50 602.5 15 Q522 -20 428 -20 Q123 -20 123 340 L123 1024 L279 1024 L279 340 Q279 216 311 167 Q350 107 451 107 Q528 107 596.5 154.5 Q665 202 696 279 L696 1024 L852 1024 L852 0 L745 0 Z M248 1372 L465 1372 L588 1176 L453 1176 L248 1372 Z " />
<glyph glyph-name="ucircumflex" unicode="&#xfb;" horiz-adv-x="975" d="M745 0 L721 106 L717 106 Q683 50 602.5 15 Q522 -20 428 -20 Q123 -20 123 340 L123 1024 L279 1024 L279 340 Q279 216 311 167 Q350 107 451 107 Q528 107 596.5 154.5 Q665 202 696 279 L696 1024 L852 1024 L852 0 L745 0 Z M389 1372 L585 1372 L749 1176 L606 1176 L487 1280 L368 1176 L225 1176 L389 1372 Z " />
<glyph glyph-name="udieresis" unicode="&#xfc;" horiz-adv-x="975" d="M745 0 L721 106 L717 106 Q683 50 602.5 15 Q522 -20 428 -20 Q123 -20 123 340 L123 1024 L279 1024 L279 340 Q279 216 311 167 Q350 107 451 107 Q528 107 596.5 154.5 Q665 202 696 279 L696 1024 L852 1024 L852 0 L745 0 Z M412 1372 L412 1196 L256 1196 L256 1372 L412 1372 Z M719 1372 L719 1196 L563 1196 L563 1372 L719 1372 Z " />
<glyph glyph-name="dagger" unicode="&#x2020;" horiz-adv-x="655" d="M266 1434 L389 1434 L389 1249 L533 1249 L533 1147 L389 1147 L389 614 L266 614 L266 1147 L123 1147 L123 1249 L266 1249 L266 1434 Z " />
<glyph glyph-name="degree" unicode="&#xb0;" horiz-adv-x="614" d="M43 1198 Q43 1316 130 1395 Q206 1463 307 1463 Q424 1463 503 1375 Q571 1300 571 1198 Q571 1081 484 1002 Q408 934 307 934 Q190 934 111 1022 Q43 1097 43 1198 Z M149 1198 Q149 1128 201 1081 Q246 1041 307 1041 Q378 1041 425 1093 Q465 1137 465 1198 Q465 1269 413 1316 Q369 1356 307 1356 Q236 1356 189 1304 Q149 1260 149 1198 Z " />
<glyph glyph-name="cent" unicode="&#xa2;" horiz-adv-x="885" d="M258 -152 L299 16 Q82 122 82 508 Q82 781 193 919 Q294 1044 475 1044 Q516 1044 549 1038 L580 1167 L696 1167 L655 1004 Q775 938 823 750 L682 725 Q659 819 621 860 L438 109 Q449 106 475 106 Q558 106 606 149.5 Q654 193 684 295 L823 270 Q781 109 696 42 Q615 -21 475 -21 Q449 -21 408 -16 L375 -152 L258 -152 Z M238 508 Q238 242 332 156 L518 913 Q490 917 475 917 Q238 917 238 508 Z " />
<glyph glyph-name="sterling" unicode="&#xa3;" horiz-adv-x="1085" d="M954 1254 L825 1170 Q771 1258 722 1293 Q673 1328 606 1328 Q409 1328 409 1055 L409 664 L723 664 L682 537 L409 537 L409 422 Q409 220 327 135 L983 135 L983 0 L122 0 L122 115 Q169 163 207 252 Q245 341 245 402 L245 537 L102 537 L143 664 L245 664 L245 1076 Q245 1276 354 1376 Q447 1463 606 1463 Q723 1463 805.5 1413.5 Q888 1364 954 1254 Z " />
<glyph glyph-name="section" unicode="&#xa7;" horiz-adv-x="1106" d="M553 -84 Q653 -84 729 -18 Q799 43 799 125 Q799 188 754.5 232.5 Q710 277 590 334 L356 447 Q238 504 182 573 Q123 648 123 748 Q123 817 159.5 871.5 Q196 926 305 1020 Q249 1065 213.5 1129 Q178 1193 178 1250 Q178 1400 301 1496 Q405 1577 545 1577 Q755 1577 907 1405 L793 1315 Q691 1434 545 1434 Q457 1434 395 1372 Q342 1318 342 1250 Q342 1168 411 1115 Q435 1097 526 1051 L727 951 Q856 885 908 836 Q983 767 983 682 Q983 608 938 523.5 Q893 439 817 373 Q883 319 923 250.5 Q963 182 963 125 Q963 -46 827 -146 Q715 -229 553 -229 Q295 -229 146 -30 Q257 46 266 54 Q324 -9 402.5 -46.5 Q481 -84 553 -84 Z M694 447 Q748 484 783.5 539.5 Q819 595 819 639 Q819 699 788 734.5 Q757 770 664 818 L422 942 Q287 860 287 768 Q287 654 434 578 L694 447 Z " />
<glyph glyph-name="bullet" unicode="&#x2022;" horiz-adv-x="696" d="M102 595 Q102 704 183 776 Q252 839 348 839 Q457 839 530 759 Q594 689 594 595 Q594 487 513 416 Q443 354 348 354 Q238 354 165 433 Q102 501 102 595 Z " />
<glyph glyph-name="paragraph" unicode="&#xb6;" horiz-adv-x="1126" d="M1004 1434 L1004 1299 L901 1299 L901 -367 L778 -367 L778 1299 L676 1299 L676 -367 L553 -367 L553 512 Q362 517 237 659 Q123 788 123 973 Q123 1183 250 1314 Q368 1434 553 1434 L1004 1434 Z " />
<glyph glyph-name="germandbls" unicode="&#xdf;" horiz-adv-x="1028" d="M279 1073 L279 0 L123 0 L123 1073 Q123 1251 233 1361 Q335 1463 494 1463 Q676 1463 780 1333 Q865 1226 865 1074 Q865 935 825 869 Q784 800 682 762 L682 758 Q947 682 947 393 Q947 193 797 73 Q669 -29 480 -29 L391 -29 L391 98 L480 98 Q625 98 716 191 Q797 273 797 393 Q797 547 691 622 Q602 684 447 684 L412 684 L412 819 L445 819 Q604 819 662 891 Q709 948 709 1074 Q709 1199 652 1265 Q597 1328 494 1328 Q377 1328 322 1247 Q279 1183 279 1073 Z " />
<glyph glyph-name="registered" unicode="&#xae;" horiz-adv-x="1208" d="M449 1245 L592 1245 Q791 1245 791 1077 Q791 956 701 926 L817 719 L698 719 L594 907 L549 907 L549 719 L449 719 L449 1245 Z M549 1006 L594 1006 Q644 1006 664.5 1021.5 Q685 1037 685 1077 Q685 1116 662.5 1132.5 Q640 1149 586 1149 L549 1149 L549 1006 Z M123 982 Q123 1196 282 1339 Q419 1463 605 1463 Q819 1463 962 1304 Q1086 1167 1086 982 Q1086 767 927 624 Q790 500 605 500 Q390 500 247 659 Q123 796 123 982 Z M221 982 Q221 810 341 697 Q446 598 592 598 Q764 598 883 725 Q988 835 988 982 Q988 1152 861 1266 Q752 1365 605 1365 Q435 1365 320 1238 Q221 1129 221 982 Z " />
<glyph glyph-name="copyright" unicode="&#xa9;" horiz-adv-x="1737" d="M580 717 Q580 581 671 492 Q751 413 867 413 Q927 413 985 440 Q1043 467 1079 512 L1188 410 Q1060 268 866 268 Q667 268 538 416 Q428 543 428 717 Q428 916 570 1048 Q693 1163 866 1163 Q1051 1163 1186 1028 L1079 922 Q999 1018 867 1018 Q733 1018 650 919 Q580 835 580 717 Z M123 717 Q123 920 225 1093 Q324 1262 492 1361 Q666 1463 868 1463 Q1071 1463 1245 1361 Q1413 1262 1512 1093 Q1614 920 1614 717 Q1614 514 1512 340 Q1413 172 1245 73 Q1071 -29 868 -29 Q666 -29 492 73 Q324 172 225 340 Q123 514 123 717 Z M256 717 Q256 552 340 409 Q421 271 559 190 Q701 106 867 106 Q1032 106 1174 190 Q1312 271 1393 409 Q1477 552 1477 717 Q1477 882 1393 1025 Q1312 1163 1174 1244 Q1032 1328 867 1328 Q701 1328 559 1244 Q421 1163 340 1025 Q256 882 256 717 Z " />
<glyph glyph-name="trademark" unicode="&#x2122;" horiz-adv-x="1229" d="M123 1434 L494 1434 L494 1344 L360 1344 L360 860 L256 860 L256 1344 L123 1344 L123 1434 Z M1010 1241 L1006 1241 L872 860 L805 860 L667 1241 L663 1241 L663 860 L567 860 L567 1434 L696 1434 L835 1047 L840 1047 L979 1434 L1106 1434 L1106 860 L1010 860 L1010 1241 Z " />
<glyph glyph-name="acute" unicode="&#xb4;" horiz-adv-x="586" d="M246 1372 L463 1372 L258 1176 L123 1176 L246 1372 Z " />
<glyph glyph-name="dieresis" unicode="&#xa8;" horiz-adv-x="709" d="M279 1372 L279 1196 L123 1196 L123 1372 L279 1372 Z M586 1372 L586 1196 L430 1196 L430 1372 L586 1372 Z " />
<glyph glyph-name="notequal" unicode="&#x2260;" horiz-adv-x="1106" d="M798 1159 L714 954 L1003 954 L1003 819 L659 819 L561 577 L1003 577 L1003 442 L505 442 L421 238 L307 238 L391 442 L102 442 L102 577 L446 577 L544 819 L102 819 L102 954 L600 954 L683 1159 L798 1159 Z " />
<glyph glyph-name="AE" unicode="&#xc6;" horiz-adv-x="1679" d="M455 438 L205 0 L41 0 L856 1434 L1577 1434 L1577 1299 L1024 1299 L1024 819 L1454 819 L1454 684 L1024 684 L1024 135 L1597 135 L1597 0 L860 0 L860 438 L455 438 Z M530 573 L860 573 L860 1145 L856 1145 L530 573 Z " />
<glyph glyph-name="Oslash" unicode="&#xd8;" horiz-adv-x="1147" d="M1065 1434 L961 1254 Q1065 1072 1065 717 Q1065 305 933 129 Q815 -29 571 -29 Q385 -29 277 61 L188 -90 L82 -29 L191 162 Q82 338 82 717 Q82 1118 213 1299 Q333 1463 571 1463 Q765 1463 879 1358 L959 1495 L1065 1434 Z M246 717 Q246 475 291 334 L797 1213 Q716 1328 571 1328 Q392 1328 313 1151 Q246 1002 246 717 Z M901 717 Q901 932 860 1078 L356 201 Q433 106 571 106 Q755 106 833 275 Q901 422 901 717 Z " />
<glyph glyph-name="plusminus" unicode="&#xb1;" horiz-adv-x="1106" d="M102 631 L102 766 L485 766 L485 1169 L620 1169 L620 766 L1003 766 L1003 631 L620 631 L620 227 L485 227 L485 631 L102 631 Z M102 135 L1003 135 L1003 0 L102 0 L102 135 Z " />
<glyph glyph-name="lessequal" unicode="&#x2264;" horiz-adv-x="1106" d="M102 135 L1003 135 L1003 0 L102 0 L102 135 Z M102 631 L102 766 L1003 1196 L1003 1040 L286 698 L1003 356 L1003 201 L102 631 Z " />
<glyph glyph-name="greaterequal" unicode="&#x2265;" horiz-adv-x="1106" d="M102 135 L1003 135 L1003 0 L102 0 L102 135 Z M1003 766 L1003 631 L102 201 L102 356 L819 698 L102 1040 L102 1196 L1003 766 Z " />
<glyph glyph-name="yen" unicode="&#xa5;" horiz-adv-x="1106" d="M185 606 L185 733 L410 733 L62 1434 L226 1434 L556 758 L560 758 L881 1434 L1045 1434 L699 733 L922 733 L922 606 L638 606 L638 446 L922 446 L922 319 L638 319 L638 0 L474 0 L474 319 L185 319 L185 446 L474 446 L474 606 L185 606 Z " />
<glyph glyph-name="mu" unicode="&#xb5;" horiz-adv-x="975" d="M745 0 L721 106 L717 106 Q682 50 602 14.5 Q522 -21 428 -21 Q326 -21 258 18 L258 -369 L123 -369 L123 1024 L279 1024 L279 340 Q278 324 278 311 Q278 205 315 158 Q356 106 450 106 Q528 106 596.5 154 Q665 202 696 279 L696 1024 L852 1024 L852 0 L745 0 Z " />
<glyph glyph-name="pi" unicode="&#x3c0;" horiz-adv-x="1098" d="M1057 897 L893 897 L893 0 L737 0 L737 897 L361 897 L361 0 L205 0 L205 897 L41 897 L41 1024 L1057 1024 L1057 897 Z " />
<glyph glyph-name="ordfeminine" unicode="&#xaa;" horiz-adv-x="725" d="M602 819 L510 819 L499 864 Q436 807 332 807 Q230 807 173 865 Q123 915 123 993 Q123 1134 325 1198 L481 1248 Q481 1356 370 1356 Q277 1356 252 1256 L139 1276 Q176 1463 370 1463 Q497 1463 552 1403 Q602 1348 602 1235 L602 819 Z M481 1036 L481 1137 L338 1087 Q246 1055 246 994 Q246 957 269.5 935.5 Q293 914 332 914 Q397 914 439 948.5 Q481 983 481 1036 Z " />
<glyph glyph-name="ordmasculine" unicode="&#xba;" horiz-adv-x="739" d="M369 805 Q239 805 176 904 Q123 987 123 1131 Q123 1300 193 1386 Q256 1463 369 1463 Q501 1463 564 1363 Q617 1279 617 1131 Q617 965 548 882 Q485 805 369 805 Z M369 911 Q494 911 494 1131 Q494 1357 369 1357 Q248 1357 248 1131 Q248 1014 278 962 Q307 911 369 911 Z " />
<glyph glyph-name="Omega" unicode="&#x2126;" horiz-adv-x="1167" d="M231 135 L231 139 Q92 308 92 731 Q92 1130 223 1305 Q342 1463 582 1463 Q857 1463 975 1257 Q1075 1081 1075 731 Q1075 307 934 139 L934 135 L1126 135 L1126 0 L729 0 L729 168 Q911 269 911 732 Q911 1054 822 1198 Q742 1328 581 1328 Q401 1328 323 1159 Q256 1015 256 732 Q256 476 304 338 Q348 215 436 168 L436 0 L41 0 L41 135 L231 135 Z " />
<glyph glyph-name="ae" unicode="&#xe6;" horiz-adv-x="1577" d="M1102 107 Q1286 107 1341 295 L1481 270 Q1438 111 1343 43 Q1255 -20 1102 -20 Q872 -20 770 150 Q661 -20 414 -20 Q253 -20 161 70 Q82 148 82 271 Q82 380 162 457.5 Q242 535 414 592 L688 684 L688 702 Q688 818 639 867.5 Q590 917 477 917 Q390 917 332.5 873.5 Q275 830 256 750 L114 778 Q174 1044 477 1044 Q715 1044 794 905 Q899 1044 1102 1044 Q1309 1044 1408 876 Q1495 730 1495 467 L844 467 Q852 276 917 190 Q980 107 1102 107 Z M688 344 L688 557 L414 459 Q238 394 238 271 Q238 196 285.5 151.5 Q333 107 414 107 Q543 107 620 179 Q688 243 688 344 Z M848 594 L1335 594 Q1324 747 1265 831 Q1205 917 1102 917 Q871 917 848 594 Z " />
<glyph glyph-name="oslash" unicode="&#xf8;" horiz-adv-x="950" d="M475 -20 Q342 -20 256 41 L178 -82 L82 -20 L174 127 Q82 262 82 508 Q82 781 193 919 Q294 1044 475 1044 Q612 1044 705 971 L772 1077 L868 1016 L782 881 Q868 745 868 508 Q868 240 759 104 Q658 -20 475 -20 Z M238 508 Q238 359 266 270 L629 850 Q571 917 475 917 Q238 917 238 508 Z M475 107 Q611 107 667 227 Q712 323 712 508 Q712 634 688 729 L330 158 Q384 107 475 107 Z " />
<glyph glyph-name="questiondown" unicode="&#xbf;" horiz-adv-x="879" d="M418 848 L418 1024 L574 1024 L574 848 L418 848 Z M573 655 L573 606 Q573 505 533.5 434 Q494 363 382 268 Q287 186 253 135 Q205 61 205 -31 Q205 -170 278 -243 Q338 -304 432 -304 Q529 -304 590.5 -248 Q652 -192 688 -72 L838 -109 Q738 -439 440 -439 Q247 -439 140 -323 Q41 -216 41 -31 Q41 85 85.5 164.5 Q130 244 253 346 Q342 421 373 465 Q418 529 418 606 L418 655 L573 655 Z " />
<glyph glyph-name="exclamdown" unicode="&#xa1;" horiz-adv-x="483" d="M320 1024 L320 848 L164 848 L164 1024 L320 1024 Z M320 655 L320 -410 L164 -410 L164 655 L320 655 Z " />
<glyph glyph-name="radical" unicode="&#x221a;" horiz-adv-x="1311" d="M1188 1577 L780 -242 L612 -242 L322 668 L156 610 L123 715 L424 819 L688 0 L1041 1577 L1188 1577 Z " />
<glyph glyph-name="approxequal" unicode="&#x2248;" horiz-adv-x="1106" d="M370 895 Q329 895 296 866 Q263 837 215 758 L102 827 Q206 1024 370 1024 Q440 1024 561 957 Q677 893 741 893 Q783 893 812.5 919.5 Q842 946 890 1024 L1003 954 Q899 758 741 758 Q664 758 543 830 Q433 895 370 895 Z M370 539 Q329 539 296 510 Q263 481 215 401 L102 471 Q206 668 370 668 Q440 668 561 600 Q677 536 741 536 Q782 536 812 562.5 Q842 589 890 668 L1003 598 Q899 401 741 401 Q665 401 543 473 Q432 539 370 539 Z " />
<glyph glyph-name="increment" unicode="&#x2206;" horiz-adv-x="1061" d="M1020 0 L41 0 L455 1434 L602 1434 L1020 0 Z M819 135 L533 1170 L528 1170 L240 135 L819 135 Z " />
<glyph glyph-name="guillemotleft" unicode="&#xab;" horiz-adv-x="1044" d="M854 221 L533 537 L854 850 L922 786 L717 537 L922 285 L854 221 Z M445 221 L123 537 L445 850 L512 786 L307 537 L512 285 L445 221 Z " />
<glyph glyph-name="guillemotright" unicode="&#xbb;" horiz-adv-x="1044" d="M512 537 L191 221 L123 285 L328 537 L123 786 L191 850 L512 537 Z M922 537 L600 221 L533 285 L737 537 L533 786 L600 850 L922 537 Z " />
<glyph glyph-name="ellipsis" unicode="&#x2026;" horiz-adv-x="1024" d="M258 176 L258 0 L102 0 L102 176 L258 176 Z M590 176 L590 0 L434 0 L434 176 L590 176 Z M921 176 L921 0 L765 0 L765 176 L921 176 Z " />
<glyph glyph-name="Agrave" unicode="&#xc0;" horiz-adv-x="1065" d="M328 438 L205 0 L41 0 L457 1434 L604 1434 L1024 0 L860 0 L737 438 L328 438 Z M365 573 L700 573 L535 1170 L530 1170 L365 573 Z M289 1733 L506 1733 L629 1536 L494 1536 L289 1733 Z " />
<glyph glyph-name="Atilde" unicode="&#xc3;" horiz-adv-x="1065" d="M328 438 L205 0 L41 0 L457 1434 L604 1434 L1024 0 L860 0 L737 438 L328 438 Z M365 573 L700 573 L535 1170 L530 1170 L365 573 Z M416 1720 Q483 1720 548 1681 Q591 1655 619 1655 Q663 1655 674 1720 L785 1720 Q776 1635 739.5 1585.5 Q703 1536 650 1536 Q585 1536 516 1576 Q473 1601 447 1601 Q403 1601 392 1536 L281 1536 Q290 1623 326 1671.5 Q362 1720 416 1720 Z " />
<glyph glyph-name="Otilde" unicode="&#xd5;" horiz-adv-x="1147" d="M82 717 Q82 1118 213 1299 Q333 1463 571 1463 Q846 1463 965 1249 Q1065 1068 1065 717 Q1065 305 933 129 Q815 -29 571 -29 Q297 -29 182 178 Q82 356 82 717 Z M246 717 Q246 380 334 235 Q412 106 571 106 Q755 106 833 275 Q901 422 901 717 Q901 1042 812 1192 Q731 1328 571 1328 Q392 1328 313 1151 Q246 1002 246 717 Z M457 1720 Q524 1720 589 1681 Q632 1655 660 1655 Q704 1655 715 1720 L826 1720 Q817 1635 780.5 1585.5 Q744 1536 691 1536 Q626 1536 557 1576 Q514 1601 488 1601 Q444 1601 433 1536 L322 1536 Q331 1623 367 1671.5 Q403 1720 457 1720 Z " />
<glyph glyph-name="OE" unicode="&#x152;" horiz-adv-x="1659" d="M740 1434 L1557 1434 L1557 1299 L1004 1299 L1004 819 L1434 819 L1434 684 L1004 684 L1004 135 L1577 135 L1577 0 L711 0 Q497 0 374 64 Q243 132 183 287 Q123 443 123 717 Q123 1123 285 1288 Q429 1434 740 1434 Z M840 135 L840 1299 L754 1299 Q481 1299 377 1144 Q287 1011 287 717 Q287 351 403 233 Q498 135 740 135 L840 135 Z " />
<glyph glyph-name="oe" unicode="&#x153;" horiz-adv-x="1602" d="M1126 107 Q1311 107 1366 295 L1505 270 Q1463 111 1368 43 Q1280 -20 1126 -20 Q894 -20 791 154 Q691 -20 475 -20 Q266 -20 165 141 Q82 275 82 508 Q82 781 193 919 Q294 1044 475 1044 Q691 1044 791 864 Q897 1044 1126 1044 Q1334 1044 1433 876 Q1520 730 1520 467 L868 467 Q877 276 942 190 Q1005 107 1126 107 Z M475 107 Q612 107 668 227 Q713 323 713 508 Q713 917 475 917 Q238 917 238 508 Q238 296 298 200 Q355 107 475 107 Z M873 594 L1360 594 Q1349 747 1290 831 Q1230 917 1126 917 Q896 917 873 594 Z " />
<glyph glyph-name="endash" unicode="&#x2013;" horiz-adv-x="1024" d="M102 631 L102 766 L921 766 L921 631 L102 631 Z " />
<glyph glyph-name="emdash" unicode="&#x2014;" horiz-adv-x="1536" d="M102 631 L102 766 L1433 766 L1433 631 L102 631 Z " />
<glyph glyph-name="quotedblleft" unicode="&#x201c;" horiz-adv-x="606" d="M347 1081 L347 1257 L409 1434 L483 1434 L441 1257 L503 1257 L503 1081 L347 1081 Z M102 1081 L102 1257 L164 1434 L237 1434 L196 1257 L258 1257 L258 1081 L102 1081 Z " />
<glyph glyph-name="quotedblright" unicode="&#x201d;" horiz-adv-x="606" d="M258 1434 L258 1257 L196 1081 L122 1081 L164 1257 L102 1257 L102 1434 L258 1434 Z M503 1434 L503 1257 L441 1081 L368 1081 L409 1257 L347 1257 L347 1434 L503 1434 Z " />
<glyph glyph-name="quoteleft" unicode="&#x2018;" horiz-adv-x="360" d="M102 1081 L102 1257 L164 1434 L237 1434 L196 1257 L258 1257 L258 1081 L102 1081 Z " />
<glyph glyph-name="quoteright" unicode="&#x2019;" horiz-adv-x="360" d="M258 1434 L258 1257 L196 1081 L122 1081 L164 1257 L102 1257 L102 1434 L258 1434 Z " />
<glyph glyph-name="divide" unicode="&#xf7;" horiz-adv-x="1106" d="M102 631 L102 766 L1003 766 L1003 631 L102 631 Z M631 1169 L631 993 L475 993 L475 1169 L631 1169 Z M631 403 L631 227 L475 227 L475 403 L631 403 Z " />
<glyph glyph-name="ydieresis" unicode="&#xff;" horiz-adv-x="938" d="M876 1024 L546 0 Q477 -201 403 -282 Q324 -369 204 -369 L122 -369 L122 -242 L183 -242 Q324 -242 390 0 L61 1024 L220 1024 L466 209 L470 209 L716 1024 L876 1024 Z M393 1372 L393 1196 L237 1196 L237 1372 L393 1372 Z M700 1372 L700 1196 L544 1196 L544 1372 L700 1372 Z " />
<glyph glyph-name="Ydieresis" unicode="&#x178;" horiz-adv-x="1065" d="M1024 1434 L617 606 L617 0 L453 0 L453 606 L41 1434 L213 1434 L535 758 L539 758 L852 1434 L1024 1434 Z M461 1733 L461 1557 L305 1557 L305 1733 L461 1733 Z M768 1733 L768 1557 L612 1557 L612 1733 L768 1733 Z " />
<glyph glyph-name="fraction" unicode="&#x2044;" horiz-adv-x="922" d="M922 1434 L143 -29 L0 -29 L778 1434 L922 1434 Z " />
<glyph glyph-name="Euro" unicode="&#x20ac;" horiz-adv-x="1106" d="M1044 1129 L895 1092 Q853 1220 780 1276 Q714 1328 612 1328 Q330 1328 293 885 L774 885 L733 758 L287 758 Q285 730 285 698 Q285 656 289 598 L682 598 L641 471 L301 471 Q329 272 413 184 Q488 106 612 106 Q820 106 893 367 L1044 328 Q991 130 881 47 Q781 -29 612 -29 Q385 -29 268 111 Q165 232 135 471 L0 471 L41 598 L125 598 Q121 641 121 697 Q121 734 123 758 L0 758 L41 885 L129 885 Q156 1195 285 1336 Q402 1463 612 1463 Q802 1463 908 1367 Q994 1289 1044 1129 Z " />
<glyph glyph-name="guilsinglleft" unicode="&#x2039;" horiz-adv-x="635" d="M445 221 L123 537 L445 850 L512 786 L307 537 L512 285 L445 221 Z " />
<glyph glyph-name="guilsinglright" unicode="&#x203a;" horiz-adv-x="635" d="M512 537 L191 221 L123 285 L328 537 L123 786 L191 850 L512 537 Z " />
<glyph glyph-name="fi" unicode="&#xfb01;" horiz-adv-x="967" d="M524 1434 L524 1307 L451 1307 Q385 1307 362.5 1270.5 Q340 1234 340 1127 L340 1024 L504 1024 L504 897 L340 897 L340 0 L184 0 L184 897 L41 897 L41 1024 L184 1024 L184 1129 Q184 1288 238 1357 Q297 1434 436 1434 L524 1434 Z M844 1024 L844 0 L688 0 L688 1024 L844 1024 Z M844 1372 L844 1196 L688 1196 L688 1372 L844 1372 Z " />
<glyph glyph-name="fl" unicode="&#xfb02;" horiz-adv-x="967" d="M524 1434 L524 1307 L451 1307 Q385 1307 362.5 1270.5 Q340 1234 340 1127 L340 1024 L504 1024 L504 897 L340 897 L340 0 L184 0 L184 897 L41 897 L41 1024 L184 1024 L184 1129 Q184 1288 238 1357 Q297 1434 436 1434 L524 1434 Z M844 1434 L844 0 L688 0 L688 1434 L844 1434 Z " />
<glyph glyph-name="daggerdbl" unicode="&#x2021;" horiz-adv-x="655" d="M266 1434 L389 1434 L389 1249 L533 1249 L533 1147 L389 1147 L389 901 L533 901 L533 799 L389 799 L389 614 L266 614 L266 799 L123 799 L123 901 L266 901 L266 1147 L123 1147 L123 1249 L266 1249 L266 1434 Z " />
<glyph glyph-name="periodcentered" unicode="&#xb7;" horiz-adv-x="565" d="M361 819 L361 643 L205 643 L205 819 L361 819 Z " />
<glyph glyph-name="quotesinglbase" unicode="&#x201a;" horiz-adv-x="360" d="M258 176 L258 0 L196 -176 L122 -176 L164 0 L102 0 L102 176 L258 176 Z " />
<glyph glyph-name="quotedblbase" unicode="&#x201e;" horiz-adv-x="606" d="M258 176 L258 0 L196 -176 L122 -176 L164 0 L102 0 L102 176 L258 176 Z M503 176 L503 0 L441 -176 L368 -176 L409 0 L347 0 L347 176 L503 176 Z " />
<glyph glyph-name="perthousand" unicode="&#x2030;" horiz-adv-x="1987" d="M379 1463 Q631 1463 631 1127 Q631 789 379 789 Q123 789 123 1127 Q123 1463 379 1463 Z M379 1348 Q250 1348 250 1127 Q250 904 379 904 Q506 904 506 1127 Q506 1348 379 1348 Z M1147 1434 L369 -29 L225 -29 L1004 1434 L1147 1434 Z M997 645 Q1249 645 1249 309 Q1249 -29 997 -29 Q741 -29 741 309 Q741 645 997 645 Z M997 530 Q868 530 868 309 Q868 86 997 86 Q1124 86 1124 309 Q1124 530 997 530 Z M1612 645 Q1864 645 1864 309 Q1864 -29 1612 -29 Q1356 -29 1356 309 Q1356 645 1612 645 Z M1612 530 Q1483 530 1483 309 Q1483 86 1612 86 Q1739 86 1739 309 Q1739 530 1612 530 Z " />
<glyph glyph-name="Acircumflex" unicode="&#xc2;" horiz-adv-x="1065" d="M328 438 L205 0 L41 0 L457 1434 L604 1434 L1024 0 L860 0 L737 438 L328 438 Z M365 573 L700 573 L535 1170 L530 1170 L365 573 Z M434 1733 L630 1733 L794 1536 L651 1536 L532 1641 L413 1536 L270 1536 L434 1733 Z " />
<glyph glyph-name="Ecircumflex" unicode="&#xca;" horiz-adv-x="942" d="M123 1434 L840 1434 L840 1299 L287 1299 L287 819 L717 819 L717 684 L287 684 L287 135 L860 135 L860 0 L123 0 L123 1434 Z M393 1733 L589 1733 L753 1536 L610 1536 L491 1641 L372 1536 L229 1536 L393 1733 Z " />
<glyph glyph-name="Aacute" unicode="&#xc1;" horiz-adv-x="1065" d="M328 438 L205 0 L41 0 L457 1434 L604 1434 L1024 0 L860 0 L737 438 L328 438 Z M365 573 L700 573 L535 1170 L530 1170 L365 573 Z M559 1733 L776 1733 L571 1536 L436 1536 L559 1733 Z " />
<glyph glyph-name="Edieresis" unicode="&#xcb;" horiz-adv-x="942" d="M123 1434 L840 1434 L840 1299 L287 1299 L287 819 L717 819 L717 684 L287 684 L287 135 L860 135 L860 0 L123 0 L123 1434 Z M406 1733 L406 1557 L250 1557 L250 1733 L406 1733 Z M713 1733 L713 1557 L557 1557 L557 1733 L713 1733 Z " />
<glyph glyph-name="Egrave" unicode="&#xc8;" horiz-adv-x="942" d="M123 1434 L840 1434 L840 1299 L287 1299 L287 819 L717 819 L717 684 L287 684 L287 135 L860 135 L860 0 L123 0 L123 1434 Z M252 1733 L469 1733 L592 1536 L457 1536 L252 1733 Z " />
<glyph glyph-name="Iacute" unicode="&#xcd;" horiz-adv-x="410" d="M287 1434 L287 0 L123 0 L123 1434 L287 1434 Z M246 1733 L463 1733 L258 1536 L123 1536 L246 1733 Z " />
<glyph glyph-name="Icircumflex" unicode="&#xce;" horiz-adv-x="410" d="M287 1434 L287 0 L123 0 L123 1434 L287 1434 Z M107 1733 L303 1733 L467 1536 L324 1536 L205 1641 L86 1536 L-57 1536 L107 1733 Z " />
<glyph glyph-name="Idieresis" unicode="&#xcf;" horiz-adv-x="410" d="M287 1434 L287 0 L123 0 L123 1434 L287 1434 Z M129 1733 L129 1557 L-27 1557 L-27 1733 L129 1733 Z M436 1733 L436 1557 L280 1557 L280 1733 L436 1733 Z " />
<glyph glyph-name="Igrave" unicode="&#xcc;" horiz-adv-x="410" d="M287 1434 L287 0 L123 0 L123 1434 L287 1434 Z M-53 1733 L164 1733 L287 1536 L152 1536 L-53 1733 Z " />
<glyph glyph-name="Oacute" unicode="&#xd3;" horiz-adv-x="1147" d="M82 717 Q82 1118 213 1299 Q333 1463 571 1463 Q846 1463 965 1249 Q1065 1068 1065 717 Q1065 305 933 129 Q815 -29 571 -29 Q297 -29 182 178 Q82 356 82 717 Z M246 717 Q246 380 334 235 Q412 106 571 106 Q755 106 833 275 Q901 422 901 717 Q901 1042 812 1192 Q731 1328 571 1328 Q392 1328 313 1151 Q246 1002 246 717 Z M600 1733 L817 1733 L612 1536 L477 1536 L600 1733 Z " />
<glyph glyph-name="Ocircumflex" unicode="&#xd4;" horiz-adv-x="1147" d="M82 717 Q82 1118 213 1299 Q333 1463 571 1463 Q846 1463 965 1249 Q1065 1068 1065 717 Q1065 305 933 129 Q815 -29 571 -29 Q297 -29 182 178 Q82 356 82 717 Z M246 717 Q246 380 334 235 Q412 106 571 106 Q755 106 833 275 Q901 422 901 717 Q901 1042 812 1192 Q731 1328 571 1328 Q392 1328 313 1151 Q246 1002 246 717 Z M475 1733 L671 1733 L835 1536 L692 1536 L573 1641 L454 1536 L311 1536 L475 1733 Z " />
<glyph glyph-name="Ograve" unicode="&#xd2;" horiz-adv-x="1147" d="M82 717 Q82 1118 213 1299 Q333 1463 571 1463 Q846 1463 965 1249 Q1065 1068 1065 717 Q1065 305 933 129 Q815 -29 571 -29 Q297 -29 182 178 Q82 356 82 717 Z M246 717 Q246 380 334 235 Q412 106 571 106 Q755 106 833 275 Q901 422 901 717 Q901 1042 812 1192 Q731 1328 571 1328 Q392 1328 313 1151 Q246 1002 246 717 Z M354 1733 L571 1733 L694 1536 L559 1536 L354 1733 Z " />
<glyph glyph-name="Uacute" unicode="&#xda;" horiz-adv-x="1147" d="M287 1434 L287 565 Q287 334 347 227 Q414 106 567 106 Q748 106 815 258 Q860 359 860 545 L860 1434 L1024 1434 L1024 545 Q1024 246 921 113 Q812 -29 567 -29 Q298 -29 196 158 Q123 293 123 555 L123 1434 L287 1434 Z M600 1733 L817 1733 L612 1536 L477 1536 L600 1733 Z " />
<glyph glyph-name="Ucircumflex" unicode="&#xdb;" horiz-adv-x="1147" d="M287 1434 L287 565 Q287 334 347 227 Q414 106 567 106 Q748 106 815 258 Q860 359 860 545 L860 1434 L1024 1434 L1024 545 Q1024 246 921 113 Q812 -29 567 -29 Q298 -29 196 158 Q123 293 123 555 L123 1434 L287 1434 Z M475 1733 L671 1733 L835 1536 L692 1536 L573 1641 L454 1536 L311 1536 L475 1733 Z " />
<glyph glyph-name="Ugrave" unicode="&#xd9;" horiz-adv-x="1147" d="M287 1434 L287 565 Q287 334 347 227 Q414 106 567 106 Q748 106 815 258 Q860 359 860 545 L860 1434 L1024 1434 L1024 545 Q1024 246 921 113 Q812 -29 567 -29 Q298 -29 196 158 Q123 293 123 555 L123 1434 L287 1434 Z M334 1733 L551 1733 L674 1536 L539 1536 L334 1733 Z " />
<glyph glyph-name="dotlessi" unicode="&#x131;" horiz-adv-x="401" d="M279 1024 L279 0 L123 0 L123 1024 L279 1024 Z " />
<glyph glyph-name="circumflex" unicode="&#x2c6;" horiz-adv-x="770" d="M287 1372 L483 1372 L647 1176 L504 1176 L385 1280 L266 1176 L123 1176 L287 1372 Z " />
<glyph glyph-name="tilde" unicode="&#x2dc;" horiz-adv-x="750" d="M258 1360 Q325 1360 390 1321 Q433 1295 461 1295 Q505 1295 516 1360 L627 1360 Q618 1275 581.5 1225.5 Q545 1176 492 1176 Q427 1176 358 1216 Q315 1241 289 1241 Q245 1241 234 1176 L123 1176 Q132 1263 168 1311.5 Q204 1360 258 1360 Z " />
<glyph glyph-name="overscore" unicode="&#xaf;" horiz-adv-x="750" d="M123 1212 L123 1327 L627 1327 L627 1212 L123 1212 Z " />
<glyph glyph-name="breve" unicode="&#x2d8;" horiz-adv-x="729" d="M494 1352 L606 1352 Q589 1249 515 1198 Q454 1155 365 1155 Q263 1155 199 1212 Q141 1263 123 1352 L236 1352 Q271 1257 365 1257 Q459 1257 494 1352 Z " />
<glyph glyph-name="dotaccent" unicode="&#x2d9;" horiz-adv-x="401" d="M279 1372 L279 1196 L123 1196 L123 1372 L279 1372 Z " />
<glyph glyph-name="ring" unicode="&#x2da;" horiz-adv-x="614" d="M123 1334 Q123 1416 184 1471 Q236 1518 307 1518 Q390 1518 445 1457 Q492 1405 492 1334 Q492 1251 431 1196 Q379 1149 307 1149 Q225 1149 170 1210 Q123 1262 123 1334 Z M217 1334 Q217 1296 243.5 1269.5 Q270 1243 307 1243 Q345 1243 371.5 1269.5 Q398 1296 398 1334 Q398 1371 371.5 1397.5 Q345 1424 307 1424 Q270 1424 243.5 1397.5 Q217 1371 217 1334 Z " />
<glyph glyph-name="cedilla" unicode="&#xb8;" horiz-adv-x="643" d="M123 -328 L158 -266 Q223 -319 299 -319 Q342 -319 370.5 -297 Q399 -275 399 -242 Q399 -209 370.5 -186.5 Q342 -164 299 -164 Q261 -164 238 -180 L215 -168 L313 0 L395 0 L340 -94 L342 -96 Q358 -92 375 -92 Q430 -92 475 -139 Q520 -186 520 -243 Q520 -397 305 -397 Q193 -397 123 -328 Z " />
<glyph glyph-name="hungarumlaut" unicode="&#x2dd;" horiz-adv-x="848" d="M244 1372 L438 1372 L258 1176 L123 1176 L244 1372 Z M531 1372 L725 1372 L545 1176 L410 1176 L531 1372 Z " />
<glyph glyph-name="ogonek" unicode="&#x2db;" horiz-adv-x="643" d="M344 -311 Q416 -311 477 -264 L520 -330 Q442 -397 338 -397 Q123 -397 123 -237 Q123 -96 285 0 L375 0 Q234 -110 234 -209 Q234 -254 265 -282.5 Q296 -311 344 -311 Z " />
<glyph glyph-name="caron" unicode="&#x2c7;" horiz-adv-x="770" d="M483 1176 L287 1176 L123 1372 L266 1372 L385 1268 L504 1372 L647 1372 L483 1176 Z " />
<glyph glyph-name="nbspace" unicode="&#xa0;" horiz-adv-x="410" d="" />
<glyph glyph-name="uni00AD" unicode="&#xad;" horiz-adv-x="696" d="M102 528 L102 684 L594 684 L594 528 L102 528 Z " />
<glyph glyph-name="twosuperior" unicode="&#xb2;" horiz-adv-x="786" d="M664 727 L664 614 L125 614 L125 700 L293 864 Q427 995 478 1071.5 Q529 1148 529 1219 Q529 1280 494.5 1316 Q460 1352 402 1352 Q300 1352 246 1190 L123 1217 Q199 1463 402 1463 Q530 1463 599 1394 Q664 1330 664 1219 Q664 1135 603.5 1039.5 Q543 944 398 798 L324 725 L664 727 Z " />
<glyph glyph-name="threesuperior" unicode="&#xb3;" horiz-adv-x="827" d="M680 1238 Q680 1108 579 1053 Q704 997 704 848 Q704 726 610 655 Q530 594 411 594 Q213 594 123 779 L227 840 Q299 707 411 707 Q482 707 525.5 746 Q569 785 569 848 Q569 990 391 990 L352 990 L352 1104 L391 1104 Q545 1104 545 1237 Q545 1291 512 1320.5 Q479 1350 420 1350 Q330 1350 254 1250 L155 1317 Q263 1463 420 1463 Q540 1463 615 1390 Q680 1328 680 1238 Z " />
<glyph glyph-name="onesuperior" unicode="&#xb9;" horiz-adv-x="541" d="M418 1434 L418 614 L291 614 L291 1280 L186 1219 L123 1313 L316 1434 L418 1434 Z " />
<glyph glyph-name="onehalf" unicode="&#xbd;" horiz-adv-x="1565" d="M418 1434 L418 614 L291 614 L291 1280 L186 1219 L123 1313 L316 1434 L418 1434 Z M1167 1434 L389 -29 L246 -29 L1024 1434 L1167 1434 Z M1442 113 L1442 0 L903 0 L903 86 L1071 250 Q1205 380 1256 456.5 Q1307 533 1307 604 Q1307 665 1272.5 701 Q1238 737 1180 737 Q1078 737 1024 575 L901 602 Q977 848 1180 848 Q1308 848 1377 779 Q1442 716 1442 604 Q1442 520 1381.5 425 Q1321 330 1176 184 L1102 111 L1442 113 Z " />
<glyph glyph-name="Eth" unicode="&#xd0;" horiz-adv-x="1085" d="M0 663 L0 819 L123 819 L123 1434 L387 1434 Q740 1434 881 1241 Q1004 1074 1004 716 Q1004 288 846 131 Q714 0 416 0 L123 0 L123 663 L0 663 Z M287 1299 L287 819 L492 819 L492 663 L287 663 L287 135 L387 135 Q562 135 653 181 Q753 232 797 356 Q840 480 840 716 Q840 1051 721 1181 Q614 1299 373 1299 L287 1299 Z " />
<glyph glyph-name="multiply" unicode="&#xd7;" horiz-adv-x="1106" d="M137 1018 L233 1114 L553 795 L872 1114 L968 1018 L649 698 L968 379 L872 283 L553 602 L233 283 L137 379 L456 698 L137 1018 Z " />
<glyph glyph-name="Yacute" unicode="&#xdd;" horiz-adv-x="1065" d="M1024 1434 L617 606 L617 0 L453 0 L453 606 L41 1434 L213 1434 L535 758 L539 758 L852 1434 L1024 1434 Z M579 1733 L796 1733 L591 1536 L456 1536 L579 1733 Z " />
<glyph glyph-name="Thorn" unicode="&#xde;" horiz-adv-x="1044" d="M285 1147 L473 1147 Q963 1147 963 723 Q963 311 490 311 L287 311 L287 0 L123 0 L123 1434 L285 1434 L285 1147 Z M287 446 L477 446 Q659 446 731 514 Q799 578 799 723 Q799 878 719 945 Q639 1012 453 1012 L287 1012 L287 446 Z " />
<glyph glyph-name="eth" unicode="&#xf0;" horiz-adv-x="950" d="M475 -20 Q265 -20 165 127 Q82 249 82 467 Q82 722 193 849 Q293 963 475 963 Q517 963 557 953 L559 955 Q493 1073 418 1145 L287 1041 L221 1127 L344 1225 Q265 1310 166 1381 L254 1465 Q351 1412 453 1321 L596 1434 L662 1344 L531 1244 Q713 1040 791 858 Q868 678 868 467 Q868 217 759 93 Q659 -20 475 -20 Z M475 107 Q611 107 667 214 Q712 299 712 467 Q712 659 652 749 Q593 836 475 836 Q238 836 238 467 Q238 275 298 189 Q355 107 475 107 Z " />
<glyph glyph-name="yacute" unicode="&#xfd;" horiz-adv-x="938" d="M876 1024 L546 0 Q477 -201 403 -282 Q324 -369 204 -369 L122 -369 L122 -242 L183 -242 Q324 -242 390 0 L61 1024 L220 1024 L466 209 L470 209 L716 1024 L876 1024 Z M516 1372 L733 1372 L528 1176 L393 1176 L516 1372 Z " />
<glyph glyph-name="thorn" unicode="&#xfe;" horiz-adv-x="975" d="M279 1434 L279 946 L283 946 Q366 1045 525 1045 Q893 1045 893 516 Q893 254 800 117 Q707 -21 525 -21 Q358 -21 283 106 L279 106 L279 -369 L123 -369 L123 1434 L279 1434 Z M279 745 L279 422 Q279 279 351 187 Q415 106 504 106 Q639 106 693 223 Q737 318 737 508 Q737 727 679 824 Q623 918 504 918 Q432 918 370.5 871 Q309 824 279 745 Z " />
<glyph glyph-name="Amacron" unicode="&#x100;" horiz-adv-x="1065" d="M328 438 L205 0 L41 0 L457 1434 L604 1434 L1024 0 L860 0 L737 438 L328 438 Z M365 573 L700 573 L535 1170 L530 1170 L365 573 Z M281 1556 L281 1671 L785 1671 L785 1556 L281 1556 Z " />
<glyph glyph-name="amacron" unicode="&#x101;" horiz-adv-x="967" d="M844 0 L733 0 L709 106 L704 106 Q608 -20 414 -20 Q253 -20 161 70 Q82 148 82 271 Q82 380 162 457 Q242 534 414 592 L688 684 L688 702 Q688 818 639 867.5 Q590 917 477 917 Q390 917 332.5 873.5 Q275 830 256 750 L114 778 Q174 1044 477 1044 Q680 1044 766 949 Q844 863 844 684 L844 0 Z M688 344 L688 557 L414 459 Q238 394 238 271 Q238 196 285.5 151.5 Q333 107 414 107 Q543 107 620 179 Q688 243 688 344 Z M232 1212 L232 1327 L736 1327 L736 1212 L232 1212 Z " />
<glyph glyph-name="Abreve" unicode="&#x102;" horiz-adv-x="1065" d="M328 438 L205 0 L41 0 L457 1434 L604 1434 L1024 0 L860 0 L737 438 L328 438 Z M365 573 L700 573 L535 1170 L530 1170 L365 573 Z M662 1712 L774 1712 Q757 1609 683 1558 Q622 1515 533 1515 Q431 1515 367 1572 Q309 1623 291 1712 L404 1712 Q439 1617 533 1617 Q627 1617 662 1712 Z " />
<glyph glyph-name="abreve" unicode="&#x103;" horiz-adv-x="967" d="M844 0 L733 0 L709 106 L704 106 Q608 -20 414 -20 Q253 -20 161 70 Q82 148 82 271 Q82 380 162 457 Q242 534 414 592 L688 684 L688 702 Q688 818 639 867.5 Q590 917 477 917 Q390 917 332.5 873.5 Q275 830 256 750 L114 778 Q174 1044 477 1044 Q680 1044 766 949 Q844 863 844 684 L844 0 Z M688 344 L688 557 L414 459 Q238 394 238 271 Q238 196 285.5 151.5 Q333 107 414 107 Q543 107 620 179 Q688 243 688 344 Z M613 1352 L725 1352 Q708 1249 634 1198 Q573 1155 484 1155 Q382 1155 318 1212 Q260 1263 242 1352 L355 1352 Q390 1257 484 1257 Q578 1257 613 1352 Z " />
<glyph glyph-name="Aogonek" unicode="&#x104;" horiz-adv-x="1065" d="M993 -311 Q1064 -311 1126 -264 L1169 -330 Q1091 -397 987 -397 Q772 -397 772 -237 Q772 -96 934 0 L860 0 L737 438 L328 438 L205 0 L41 0 L457 1434 L604 1434 L1024 0 Q883 -110 883 -209 Q883 -254 914 -282.5 Q945 -311 993 -311 Z M365 573 L700 573 L535 1170 L530 1170 L365 573 Z " />
<glyph glyph-name="aogonek" unicode="&#x105;" horiz-adv-x="967" d="M814 -311 Q885 -311 946 -264 L989 -330 Q911 -397 807 -397 Q592 -397 592 -237 Q592 -96 754 0 L733 0 L709 106 L704 106 Q608 -20 414 -20 Q253 -20 161 70 Q82 148 82 271 Q82 380 162 457 Q242 534 414 592 L688 684 L688 702 Q688 818 639 867.5 Q590 917 477 917 Q390 917 332.5 873.5 Q275 830 256 750 L114 778 Q174 1044 477 1044 Q680 1044 766 949 Q844 863 844 684 L844 0 Q703 -110 703 -209 Q703 -254 734 -282.5 Q765 -311 814 -311 Z M688 344 L688 557 L414 459 Q238 394 238 271 Q238 196 285.5 151.5 Q333 107 414 107 Q543 107 620 179 Q688 243 688 344 Z " />
<glyph glyph-name="Cacute" unicode="&#x106;" horiz-adv-x="1106" d="M873 399 L1024 363 Q972 145 859 54 Q755 -29 571 -29 Q297 -29 182 178 Q82 356 82 717 Q82 1118 213 1299 Q333 1463 571 1463 Q766 1463 871 1362 Q957 1281 1008 1112 L858 1075 Q816 1213 744 1272 Q677 1328 572 1328 Q392 1328 313 1151 Q246 1002 246 717 Q246 380 334 235 Q412 106 572 106 Q699 106 774 188 Q839 259 873 399 Z M594 1733 L811 1733 L606 1536 L471 1536 L594 1733 Z " />
<glyph glyph-name="cacute" unicode="&#x107;" horiz-adv-x="885" d="M684 295 L823 270 Q781 110 696 43 Q615 -20 475 -20 Q266 -20 165 141 Q82 275 82 508 Q82 781 193 919 Q294 1044 475 1044 Q631 1044 719 956 Q789 886 823 750 L682 725 Q640 917 475 917 Q238 917 238 508 Q238 296 298 200 Q355 107 475 107 Q558 107 606 150.5 Q654 194 684 295 Z M492 1372 L709 1372 L504 1176 L369 1176 L492 1372 Z " />
<glyph glyph-name="Ccaron" unicode="&#x10c;" horiz-adv-x="1106" d="M873 399 L1024 363 Q972 145 859 54 Q755 -29 571 -29 Q297 -29 182 178 Q82 356 82 717 Q82 1118 213 1299 Q333 1463 571 1463 Q766 1463 871 1362 Q957 1281 1008 1112 L858 1075 Q816 1213 744 1272 Q677 1328 572 1328 Q392 1328 313 1151 Q246 1002 246 717 Q246 380 334 235 Q412 106 572 106 Q699 106 774 188 Q839 259 873 399 Z M680 1534 L484 1534 L320 1731 L463 1731 L582 1626 L701 1731 L844 1731 L680 1534 Z " />
<glyph glyph-name="ccaron" unicode="&#x10d;" horiz-adv-x="885" d="M684 295 L823 270 Q781 110 696 43 Q615 -20 475 -20 Q266 -20 165 141 Q82 275 82 508 Q82 781 193 919 Q294 1044 475 1044 Q631 1044 719 956 Q789 886 823 750 L682 725 Q640 917 475 917 Q238 917 238 508 Q238 296 298 200 Q355 107 475 107 Q558 107 606 150.5 Q654 194 684 295 Z M575 1176 L379 1176 L215 1372 L358 1372 L477 1268 L596 1372 L739 1372 L575 1176 Z " />
<glyph glyph-name="Dcaron" unicode="&#x10e;" horiz-adv-x="1085" d="M123 1434 L387 1434 Q740 1434 881 1241 Q1004 1074 1004 717 Q1004 288 846 131 Q714 0 416 0 L123 0 L123 1434 Z M287 1299 L287 135 L387 135 Q562 135 653 181 Q753 232 797 357 Q840 481 840 717 Q840 1051 721 1181 Q614 1299 373 1299 L287 1299 Z M575 1536 L379 1536 L215 1733 L358 1733 L477 1628 L596 1733 L739 1733 L575 1536 Z " />
<glyph glyph-name="dcaron" unicode="&#x10f;" horiz-adv-x="1090" d="M741 0 L716 106 L712 106 Q677 48 607 14 Q537 -20 450 -20 Q82 -20 82 508 Q82 770 175 907 Q268 1045 450 1045 Q617 1045 692 918 L696 918 L696 1434 L852 1434 L852 0 L741 0 Z M696 401 L696 725 Q662 814 596 868 Q535 918 471 918 Q336 918 282 796 Q238 699 238 508 Q238 291 296 197 Q352 107 471 107 Q576 107 640 199 Q696 280 696 401 Z M1090 1454 L1090 1298 L1028 1163 L954 1163 L996 1298 L934 1298 L934 1454 L1090 1454 Z " />
<glyph glyph-name="Dcroat" unicode="&#x110;" horiz-adv-x="1085" d="M0 663 L0 819 L123 819 L123 1434 L387 1434 Q740 1434 881 1241 Q1004 1074 1004 716 Q1004 288 846 131 Q714 0 416 0 L123 0 L123 663 L0 663 Z M287 1299 L287 819 L492 819 L492 663 L287 663 L287 135 L387 135 Q562 135 653 181 Q753 232 797 356 Q840 480 840 716 Q840 1051 721 1181 Q614 1299 373 1299 L287 1299 Z " />
<glyph glyph-name="dcroat" unicode="&#x111;" horiz-adv-x="975" d="M741 0 L716 106 L712 106 Q677 48 607 14 Q537 -20 451 -20 Q82 -20 82 508 Q82 770 175 907 Q268 1045 451 1045 Q617 1045 692 918 L696 918 L696 1147 L471 1147 L471 1270 L696 1270 L696 1434 L852 1434 L852 1270 L983 1270 L983 1147 L852 1147 L852 0 L741 0 Z M696 401 L696 725 Q662 814 596 868 Q535 918 471 918 Q336 918 282 796 Q238 699 238 508 Q238 291 296 197 Q352 107 471 107 Q576 107 640 199 Q696 280 696 401 Z " />
<glyph glyph-name="Emacron" unicode="&#x112;" horiz-adv-x="942" d="M123 1434 L840 1434 L840 1299 L287 1299 L287 819 L717 819 L717 684 L287 684 L287 135 L860 135 L860 0 L123 0 L123 1434 Z M225 1556 L225 1671 L729 1671 L729 1556 L225 1556 Z " />
<glyph glyph-name="emacron" unicode="&#x113;" horiz-adv-x="971" d="M496 107 Q680 107 735 295 L875 270 Q833 111 737 43 Q649 -20 496 -20 Q274 -20 169 141 Q82 274 82 508 Q82 780 199 919 Q305 1044 496 1044 Q703 1044 803 876 Q889 730 889 467 L238 467 Q246 276 311 190 Q374 107 496 107 Z M242 594 L729 594 Q718 747 659 831 Q599 917 496 917 Q265 917 242 594 Z M246 1212 L246 1327 L750 1327 L750 1212 L246 1212 Z " />
<glyph glyph-name="Edotaccent" unicode="&#x116;" horiz-adv-x="942" d="M123 1434 L840 1434 L840 1299 L287 1299 L287 819 L717 819 L717 684 L287 684 L287 135 L860 135 L860 0 L123 0 L123 1434 Z M566 1733 L566 1557 L410 1557 L410 1733 L566 1733 Z " />
<glyph glyph-name="edotaccent" unicode="&#x117;" horiz-adv-x="971" d="M496 107 Q680 107 735 295 L875 270 Q833 111 737 43 Q649 -20 496 -20 Q274 -20 169 141 Q82 274 82 508 Q82 780 199 919 Q305 1044 496 1044 Q703 1044 803 876 Q889 730 889 467 L238 467 Q246 276 311 190 Q374 107 496 107 Z M242 594 L729 594 Q718 747 659 831 Q599 917 496 917 Q265 917 242 594 Z M572 1372 L572 1196 L416 1196 L416 1372 L572 1372 Z " />
<glyph glyph-name="Eogonek" unicode="&#x118;" horiz-adv-x="942" d="M830 -311 Q901 -311 962 -264 L1005 -330 Q927 -397 823 -397 Q608 -397 608 -237 Q608 -97 770 0 L123 0 L123 1434 L840 1434 L840 1299 L287 1299 L287 819 L717 819 L717 684 L287 684 L287 135 L860 135 L860 0 Q719 -110 719 -209 Q719 -254 750 -282.5 Q781 -311 830 -311 Z " />
<glyph glyph-name="eogonek" unicode="&#x119;" horiz-adv-x="971" d="M496 107 Q680 107 735 295 L875 270 Q836 123 753 54 Q676 -9 545 -18 Q429 -118 429 -209 Q429 -254 460 -282.5 Q491 -311 539 -311 Q610 -311 672 -264 L715 -330 Q637 -397 533 -397 Q318 -397 318 -237 Q318 -112 449 -18 Q252 -4 159 155 Q82 287 82 508 Q82 780 199 919 Q305 1044 496 1044 Q703 1044 803 876 Q889 730 889 467 L238 467 Q246 276 311 190 Q374 107 496 107 Z M242 594 L729 594 Q718 747 659 831 Q599 917 496 917 Q265 917 242 594 Z " />
<glyph glyph-name="Ecaron" unicode="&#x11a;" horiz-adv-x="942" d="M123 1434 L840 1434 L840 1299 L287 1299 L287 819 L717 819 L717 684 L287 684 L287 135 L860 135 L860 0 L123 0 L123 1434 Z M596 1536 L400 1536 L236 1733 L379 1733 L498 1628 L617 1733 L760 1733 L596 1536 Z " />
<glyph glyph-name="ecaron" unicode="&#x11b;" horiz-adv-x="971" d="M496 107 Q680 107 735 295 L875 270 Q833 111 737 43 Q649 -20 496 -20 Q274 -20 169 141 Q82 274 82 508 Q82 780 199 919 Q305 1044 496 1044 Q703 1044 803 876 Q889 730 889 467 L238 467 Q246 276 311 190 Q374 107 496 107 Z M242 594 L729 594 Q718 747 659 831 Q599 917 496 917 Q265 917 242 594 Z M596 1176 L400 1176 L236 1372 L379 1372 L498 1268 L617 1372 L760 1372 L596 1176 Z " />
<glyph glyph-name="Gbreve" unicode="&#x11e;" horiz-adv-x="1106" d="M572 -29 Q297 -29 182 178 Q82 356 82 717 Q82 1118 213 1299 Q333 1463 572 1463 Q766 1463 871 1362 Q957 1281 1008 1112 L858 1075 Q816 1213 744 1272 Q677 1328 572 1328 Q392 1328 313 1151 Q246 1002 246 717 Q246 380 334 235 Q412 106 572 106 Q686 106 772 196 Q860 288 860 434 L860 549 L584 549 L584 684 L1024 684 L1024 0 L922 0 L887 106 Q849 47 760.5 9 Q672 -29 572 -29 Z M707 1712 L819 1712 Q802 1609 728 1558 Q667 1515 578 1515 Q476 1515 412 1572 Q354 1623 336 1712 L449 1712 Q484 1617 578 1617 Q672 1617 707 1712 Z " />
<glyph glyph-name="gbreve" unicode="&#x11f;" horiz-adv-x="975" d="M475 -270 Q571 -270 631 -208 Q696 -139 696 -8 L696 147 L692 147 Q617 20 450 20 Q82 20 82 536 Q82 798 175 922 Q265 1044 450 1044 Q531 1044 601 1010 Q671 976 712 918 L716 918 L741 1024 L852 1024 L852 12 Q852 -213 732 -316 Q638 -397 475 -397 Q323 -397 227 -327 Q133 -259 104 -131 L245 -102 Q264 -181 325 -225.5 Q386 -270 475 -270 Z M696 463 L696 745 Q666 823 604.5 870 Q543 917 471 917 Q335 917 282 807 Q238 716 238 528 Q238 314 296 228 Q351 147 471 147 Q574 147 640 250 Q696 339 696 463 Z M621 1352 L733 1352 Q716 1249 642 1198 Q581 1155 492 1155 Q390 1155 326 1212 Q268 1263 250 1352 L363 1352 Q398 1257 492 1257 Q586 1257 621 1352 Z " />
<glyph glyph-name="Gcommaaccent" unicode="&#x122;" horiz-adv-x="1106" d="M572 -29 Q297 -29 182 178 Q82 356 82 717 Q82 1118 213 1299 Q333 1463 572 1463 Q766 1463 871 1362 Q957 1281 1008 1112 L858 1075 Q816 1213 744 1272 Q677 1328 572 1328 Q392 1328 313 1151 Q246 1002 246 717 Q246 380 334 235 Q412 106 572 106 Q686 106 772 196 Q860 288 860 434 L860 549 L584 549 L584 684 L1024 684 L1024 0 L922 0 L887 106 Q849 47 760.5 9 Q672 -29 572 -29 Z M662 -127 L662 -283 L600 -418 L526 -418 L568 -283 L506 -283 L506 -127 L662 -127 Z " />
<glyph glyph-name="gcommaaccent" unicode="&#x123;" horiz-adv-x="975" d="M475 -270 Q571 -270 631 -208 Q696 -139 696 -8 L696 147 L692 147 Q617 20 450 20 Q82 20 82 536 Q82 798 175 922 Q265 1044 450 1044 Q531 1044 601 1010 Q671 976 712 918 L716 918 L741 1024 L852 1024 L852 12 Q852 -213 732 -316 Q638 -397 475 -397 Q323 -397 227 -327 Q133 -259 104 -131 L245 -102 Q264 -181 325 -225.5 Q386 -270 475 -270 Z M696 463 L696 745 Q666 823 604.5 870 Q543 917 471 917 Q335 917 282 807 Q238 716 238 528 Q238 314 296 228 Q351 147 471 147 Q574 147 640 250 Q696 339 696 463 Z M418 1192 L418 1348 L480 1483 L553 1483 L512 1348 L574 1348 L574 1192 L418 1192 Z " />
<glyph glyph-name="Imacron" unicode="&#x12a;" horiz-adv-x="410" d="M287 1434 L287 0 L123 0 L123 1434 L287 1434 Z M-51 1556 L-51 1671 L453 1671 L453 1556 L-51 1556 Z " />
<glyph glyph-name="imacron" unicode="&#x12b;" horiz-adv-x="401" d="M279 1024 L279 0 L123 0 L123 1024 L279 1024 Z M-51 1212 L-51 1327 L453 1327 L453 1212 L-51 1212 Z " />
<glyph glyph-name="Iogonek" unicode="&#x12e;" horiz-adv-x="410" d="M256 -311 Q327 -311 389 -264 L432 -330 Q354 -397 250 -397 Q35 -397 35 -237 Q35 -96 197 0 L123 0 L123 1434 L287 1434 L287 0 Q146 -110 146 -209 Q146 -254 177 -282.5 Q208 -311 256 -311 Z " />
<glyph glyph-name="iogonek" unicode="&#x12f;" horiz-adv-x="401" d="M249 -311 Q319 -311 381 -264 L424 -330 Q346 -397 242 -397 Q27 -397 27 -237 Q27 -96 189 0 L123 0 L123 1024 L279 1024 L279 0 Q138 -110 138 -209 Q138 -254 169 -282.5 Q200 -311 249 -311 Z M279 1372 L279 1196 L123 1196 L123 1372 L279 1372 Z " />
<glyph glyph-name="Idot" unicode="&#x130;" horiz-adv-x="410" d="M287 1434 L287 0 L123 0 L123 1434 L287 1434 Z M283 1761 L283 1585 L127 1585 L127 1761 L283 1761 Z " />
<glyph glyph-name="Kcommaaccent" unicode="&#x136;" horiz-adv-x="1065" d="M287 1434 L287 684 L291 684 L815 1434 L1004 1434 L576 840 L1024 0 L844 0 L471 694 L287 436 L287 0 L123 0 L123 1434 L287 1434 Z M607 -127 L607 -283 L545 -418 L471 -418 L513 -283 L451 -283 L451 -127 L607 -127 Z " />
<glyph glyph-name="kcommaaccent" unicode="&#x137;" horiz-adv-x="889" d="M279 1434 L279 526 L283 526 L635 1024 L807 1024 L529 643 L848 0 L680 0 L437 500 L433 500 L279 309 L279 0 L123 0 L123 1434 L279 1434 Z M545 -127 L545 -283 L483 -418 L409 -418 L451 -283 L389 -283 L389 -127 L545 -127 Z " />
<glyph glyph-name="Lacute" unicode="&#x139;" horiz-adv-x="840" d="M287 1434 L287 135 L799 135 L799 0 L123 0 L123 1434 L287 1434 Z M246 1733 L463 1733 L258 1536 L123 1536 L246 1733 Z " />
<glyph glyph-name="lacute" unicode="&#x13a;" horiz-adv-x="401" d="M279 1434 L279 0 L123 0 L123 1434 L279 1434 Z M246 1732 L463 1732 L258 1536 L123 1536 L246 1732 Z " />
<glyph glyph-name="Lcommaaccent" unicode="&#x13b;" horiz-adv-x="840" d="M287 1434 L287 135 L799 135 L799 0 L123 0 L123 1434 L287 1434 Z M545 -127 L545 -283 L483 -418 L409 -418 L451 -283 L389 -283 L389 -127 L545 -127 Z " />
<glyph glyph-name="lcommaaccent" unicode="&#x13c;" horiz-adv-x="401" d="M279 1434 L279 0 L123 0 L123 1434 L279 1434 Z M283 -127 L283 -283 L221 -418 L147 -418 L189 -283 L127 -283 L127 -127 L283 -127 Z " />
<glyph glyph-name="Lcaron" unicode="&#x13d;" horiz-adv-x="840" d="M287 1434 L287 135 L799 135 L799 0 L123 0 L123 1434 L287 1434 Z M545 1454 L545 1298 L483 1163 L409 1163 L451 1298 L389 1298 L389 1454 L545 1454 Z " />
<glyph glyph-name="lcaron" unicode="&#x13e;" horiz-adv-x="516" d="M279 1434 L279 0 L123 0 L123 1434 L279 1434 Z M516 1454 L516 1298 L454 1163 L380 1163 L422 1298 L360 1298 L360 1454 L516 1454 Z " />
<glyph glyph-name="Lslash" unicode="&#x141;" horiz-adv-x="840" d="M0 442 L0 598 L123 682 L123 1434 L287 1434 L287 797 L492 940 L492 785 L287 641 L287 135 L799 135 L799 0 L123 0 L123 526 L0 442 Z " />
<glyph glyph-name="lslash" unicode="&#x142;" horiz-adv-x="401" d="M0 463 L0 598 L123 684 L123 1434 L279 1434 L279 793 L401 879 L401 744 L279 658 L279 0 L123 0 L123 549 L0 463 Z " />
<glyph glyph-name="Nacute" unicode="&#x143;" horiz-adv-x="1126" d="M1004 1434 L1004 0 L898 0 L274 1112 L270 1112 L270 0 L123 0 L123 1434 L254 1434 L853 367 L857 367 L857 1434 L1004 1434 Z M594 1733 L811 1733 L606 1536 L471 1536 L594 1733 Z " />
<glyph glyph-name="nacute" unicode="&#x144;" horiz-adv-x="975" d="M234 1024 L258 918 L263 918 Q297 974 375.5 1009 Q454 1044 547 1044 Q852 1044 852 684 L852 0 L696 0 L696 684 Q696 808 664 857 Q625 917 524 917 Q447 917 378.5 869.5 Q310 822 279 745 L279 0 L123 0 L123 1024 L234 1024 Z M512 1372 L729 1372 L524 1176 L389 1176 L512 1372 Z " />
<glyph glyph-name="Ncommaaccent" unicode="&#x145;" horiz-adv-x="1126" d="M1004 1434 L1004 0 L898 0 L274 1112 L270 1112 L270 0 L123 0 L123 1434 L254 1434 L853 367 L857 367 L857 1434 L1004 1434 Z M648 -127 L648 -283 L586 -418 L512 -418 L554 -283 L492 -283 L492 -127 L648 -127 Z " />
<glyph glyph-name="ncommaaccent" unicode="&#x146;" horiz-adv-x="975" d="M234 1024 L258 918 L263 918 Q297 974 375.5 1009 Q454 1044 547 1044 Q852 1044 852 684 L852 0 L696 0 L696 684 Q696 808 664 857 Q625 917 524 917 Q447 917 378.5 869.5 Q310 822 279 745 L279 0 L123 0 L123 1024 L234 1024 Z M566 -127 L566 -283 L504 -418 L430 -418 L472 -283 L410 -283 L410 -127 L566 -127 Z " />
<glyph glyph-name="Ncaron" unicode="&#x147;" horiz-adv-x="1126" d="M1004 1434 L1004 0 L898 0 L274 1112 L270 1112 L270 0 L123 0 L123 1434 L254 1434 L853 367 L857 367 L857 1434 L1004 1434 Z M665 1536 L469 1536 L305 1733 L448 1733 L567 1628 L686 1733 L829 1733 L665 1536 Z " />
<glyph glyph-name="ncaron" unicode="&#x148;" horiz-adv-x="975" d="M234 1024 L258 918 L263 918 Q297 974 375.5 1009 Q454 1044 547 1044 Q852 1044 852 684 L852 0 L696 0 L696 684 Q696 808 664 857 Q625 917 524 917 Q447 917 378.5 869.5 Q310 822 279 745 L279 0 L123 0 L123 1024 L234 1024 Z M585 1176 L389 1176 L225 1372 L368 1372 L487 1268 L606 1372 L749 1372 L585 1176 Z " />
<glyph glyph-name="Omacron" unicode="&#x14c;" horiz-adv-x="1147" d="M82 717 Q82 1118 213 1299 Q333 1463 571 1463 Q846 1463 965 1249 Q1065 1068 1065 717 Q1065 305 933 129 Q815 -29 571 -29 Q297 -29 182 178 Q82 356 82 717 Z M246 717 Q246 380 334 235 Q412 106 571 106 Q755 106 833 275 Q901 422 901 717 Q901 1042 812 1192 Q731 1328 571 1328 Q392 1328 313 1151 Q246 1002 246 717 Z M322 1556 L322 1671 L826 1671 L826 1556 L322 1556 Z " />
<glyph glyph-name="omacron" unicode="&#x14d;" horiz-adv-x="950" d="M475 -20 Q266 -20 165 141 Q82 275 82 508 Q82 781 193 919 Q293 1044 475 1044 Q682 1044 783 882 Q868 746 868 508 Q868 240 759 104 Q658 -20 475 -20 Z M475 107 Q611 107 667 227 Q712 323 712 508 Q712 917 475 917 Q238 917 238 508 Q238 296 298 200 Q355 107 475 107 Z M223 1212 L223 1327 L727 1327 L727 1212 L223 1212 Z " />
<glyph glyph-name="Ohungarumlaut" unicode="&#x150;" horiz-adv-x="1147" d="M82 717 Q82 1118 213 1299 Q333 1463 571 1463 Q846 1463 965 1249 Q1065 1068 1065 717 Q1065 305 933 129 Q815 -29 571 -29 Q297 -29 182 178 Q82 356 82 717 Z M246 717 Q246 380 334 235 Q412 106 571 106 Q755 106 833 275 Q901 422 901 717 Q901 1042 812 1192 Q731 1328 571 1328 Q392 1328 313 1151 Q246 1002 246 717 Z M469 1733 L663 1733 L483 1536 L348 1536 L469 1733 Z M756 1733 L950 1733 L770 1536 L635 1536 L756 1733 Z " />
<glyph glyph-name="ohungarumlaut" unicode="&#x151;" horiz-adv-x="950" d="M475 -20 Q266 -20 165 141 Q82 275 82 508 Q82 781 193 919 Q293 1044 475 1044 Q682 1044 783 882 Q868 746 868 508 Q868 240 759 104 Q658 -20 475 -20 Z M475 107 Q611 107 667 227 Q712 323 712 508 Q712 917 475 917 Q238 917 238 508 Q238 296 298 200 Q355 107 475 107 Z M346 1372 L540 1372 L360 1176 L225 1176 L346 1372 Z M633 1372 L827 1372 L647 1176 L512 1176 L633 1372 Z " />
<glyph glyph-name="Racute" unicode="&#x154;" horiz-adv-x="1065" d="M123 1434 L473 1434 Q963 1434 963 1012 Q963 683 662 614 L1004 0 L830 0 L498 598 L287 598 L287 0 L123 0 L123 1434 Z M287 733 L477 733 Q659 733 731 802 Q799 867 799 1012 Q799 1167 719.5 1233 Q640 1299 453 1299 L287 1299 L287 733 Z M533 1733 L750 1733 L545 1536 L410 1536 L533 1733 Z " />
<glyph glyph-name="racute" unicode="&#x155;" horiz-adv-x="623" d="M234 1024 L258 918 L263 918 Q303 984 378.5 1014 Q454 1044 582 1044 L582 889 Q552 897 514 897 Q384 897 329 821 Q279 752 279 602 L279 0 L123 0 L123 1024 L234 1024 Z M348 1372 L565 1372 L360 1176 L225 1176 L348 1372 Z " />
<glyph glyph-name="Rcommaaccent" unicode="&#x156;" horiz-adv-x="1065" d="M123 1434 L473 1434 Q963 1434 963 1012 Q963 683 662 614 L1004 0 L830 0 L498 598 L287 598 L287 0 L123 0 L123 1434 Z M287 733 L477 733 Q659 733 731 802 Q799 867 799 1012 Q799 1167 719.5 1233 Q640 1299 453 1299 L287 1299 L287 733 Z M607 -127 L607 -283 L545 -418 L471 -418 L513 -283 L451 -283 L451 -127 L607 -127 Z " />
<glyph glyph-name="rcommaaccent" unicode="&#x157;" horiz-adv-x="623" d="M234 1024 L258 918 L263 918 Q303 984 378.5 1014 Q454 1044 582 1044 L582 889 Q552 897 514 897 Q384 897 329 821 Q279 752 279 602 L279 0 L123 0 L123 1024 L234 1024 Z M283 -127 L283 -283 L221 -418 L147 -418 L189 -283 L127 -283 L127 -127 L283 -127 Z " />
<glyph glyph-name="Rcaron" unicode="&#x158;" horiz-adv-x="1065" d="M123 1434 L473 1434 Q963 1434 963 1012 Q963 683 662 614 L1004 0 L830 0 L498 598 L287 598 L287 0 L123 0 L123 1434 Z M287 733 L477 733 Q659 733 731 802 Q799 867 799 1012 Q799 1167 719.5 1233 Q640 1299 453 1299 L287 1299 L287 733 Z M587 1536 L391 1536 L227 1733 L370 1733 L489 1628 L608 1733 L751 1733 L587 1536 Z " />
<glyph glyph-name="rcaron" unicode="&#x159;" horiz-adv-x="657" d="M254 1024 L278 918 L283 918 Q323 984 398.5 1014 Q474 1044 602 1044 L602 889 Q572 897 534 897 Q404 897 349 821 Q299 752 299 602 L299 0 L143 0 L143 1024 L254 1024 Z M452 1176 L256 1176 L92 1372 L235 1372 L354 1268 L473 1372 L616 1372 L452 1176 Z " />
<glyph glyph-name="Sacute" unicode="&#x15a;" horiz-adv-x="1004" d="M907 1133 L758 1096 Q689 1328 481 1328 Q375 1328 311 1256 Q254 1193 254 1096 Q254 970 361 890 Q417 848 564 786 Q763 702 836 631 Q942 527 942 360 Q942 163 801 58 Q686 -29 510 -29 Q326 -29 202 74 Q93 164 41 324 L193 361 Q233 240 319 172 Q403 106 512 106 Q636 106 711 184 Q778 253 778 360 Q778 473 675 550 Q621 590 479 654 Q276 744 200 818 Q90 927 90 1096 Q90 1278 217 1379 Q325 1463 489 1463 Q653 1463 764 1368 Q862 1284 907 1133 Z M512 1733 L729 1733 L524 1536 L389 1536 L512 1733 Z " />
<glyph glyph-name="sacute" unicode="&#x15b;" horiz-adv-x="815" d="M737 854 L623 766 Q532 909 404 909 Q323 909 277 866 Q236 828 236 768 Q236 718 276.5 685 Q317 652 437 603 Q600 537 662 480 Q754 396 754 269 Q754 126 649 47 Q561 -20 424 -20 Q298 -20 192 43 Q98 99 41 193 L156 279 Q264 115 424 115 Q511 115 559 162 Q600 203 600 268 Q600 328 555.5 367 Q511 406 380 462 Q226 528 168 579 Q84 655 84 768 Q84 900 186 977 Q274 1044 403 1044 Q507 1044 584.5 1000 Q662 956 737 854 Z M414 1372 L631 1372 L426 1176 L291 1176 L414 1372 Z " />
<glyph glyph-name="Scedilla" unicode="&#x15e;" horiz-adv-x="1004" d="M277 -327 L311 -266 Q377 -319 453 -319 Q496 -319 524.5 -297 Q553 -275 553 -241 Q553 -208 524 -185.5 Q495 -163 453 -163 Q414 -163 391 -180 L369 -168 L451 -24 Q291 -9 183 91 Q88 178 41 324 L193 361 Q233 241 319 173 Q403 107 512 107 Q636 107 711 185 Q778 254 778 361 Q778 474 675 550 Q621 591 479 654 Q276 744 200 819 Q90 928 90 1096 Q90 1278 217 1379 Q325 1463 489 1463 Q653 1463 764 1368 Q862 1284 907 1133 L758 1096 Q689 1328 481 1328 Q375 1328 311 1256 Q254 1193 254 1096 Q254 970 361 890 Q417 849 564 786 Q763 702 836 631 Q942 527 942 361 Q942 171 809 65 Q700 -22 533 -28 L494 -94 L496 -96 Q512 -92 528 -92 Q583 -92 628.5 -139 Q674 -186 674 -243 Q674 -397 459 -397 Q346 -397 277 -327 Z " />
<glyph glyph-name="scedilla" unicode="&#x15f;" horiz-adv-x="815" d="M205 -328 L240 -266 Q305 -319 381 -319 Q424 -319 452.5 -297 Q481 -275 481 -242 Q481 -209 452 -186.5 Q423 -164 381 -164 Q343 -164 320 -180 L297 -168 L383 -18 Q274 -9 184 46.5 Q94 102 41 193 L156 279 Q264 115 424 115 Q511 115 559 162 Q600 203 600 268 Q600 328 555.5 367 Q511 406 380 462 Q226 528 168 579 Q84 655 84 768 Q84 900 186 977 Q274 1044 403 1044 Q507 1044 584.5 1000 Q662 956 737 854 L623 766 Q532 909 404 909 Q323 909 277 866 Q236 828 236 768 Q236 718 276.5 685 Q317 652 437 603 Q600 536 662 480 Q754 396 754 268 Q754 136 663 58 Q586 -8 465 -18 L422 -94 L424 -96 Q440 -92 457 -92 Q512 -92 557 -139 Q602 -186 602 -243 Q602 -397 387 -397 Q274 -397 205 -328 Z " />
<glyph glyph-name="Scaron" unicode="&#x160;" horiz-adv-x="1004" d="M907 1133 L758 1096 Q689 1328 481 1328 Q375 1328 311 1256 Q254 1193 254 1096 Q254 970 361 890 Q417 848 564 786 Q763 702 836 631 Q942 527 942 360 Q942 163 801 58 Q686 -29 510 -29 Q326 -29 202 74 Q93 164 41 324 L193 361 Q233 240 319 172 Q403 106 512 106 Q636 106 711 184 Q778 253 778 360 Q778 473 675 550 Q621 590 479 654 Q276 744 200 818 Q90 927 90 1096 Q90 1278 217 1379 Q325 1463 489 1463 Q653 1463 764 1368 Q862 1284 907 1133 Z M589 1536 L393 1536 L229 1733 L372 1733 L491 1628 L610 1733 L753 1733 L589 1536 Z " />
<glyph glyph-name="scaron" unicode="&#x161;" horiz-adv-x="815" d="M737 854 L623 766 Q532 909 404 909 Q323 909 277 866 Q236 828 236 768 Q236 718 276.5 685 Q317 652 437 603 Q600 537 662 480 Q754 396 754 269 Q754 126 649 47 Q561 -20 424 -20 Q298 -20 192 43 Q98 99 41 193 L156 279 Q264 115 424 115 Q511 115 559 162 Q600 203 600 268 Q600 328 555.5 367 Q511 406 380 462 Q226 528 168 579 Q84 655 84 768 Q84 900 186 977 Q274 1044 403 1044 Q507 1044 584.5 1000 Q662 956 737 854 Z M497 1176 L301 1176 L137 1372 L280 1372 L399 1268 L518 1372 L661 1372 L497 1176 Z " />
<glyph glyph-name="Tcommaaccent" unicode="&#x162;" horiz-adv-x="942" d="M41 1434 L901 1434 L901 1299 L553 1299 L553 0 L389 0 L389 1299 L41 1299 L41 1434 Z M549 -127 L549 -283 L487 -418 L413 -418 L455 -283 L393 -283 L393 -127 L549 -127 Z " />
<glyph glyph-name="tcommaaccent" unicode="&#x163;" horiz-adv-x="586" d="M524 127 L524 0 L436 0 Q301 0 242.5 70.5 Q184 141 184 305 L184 897 L41 897 L41 1024 L184 1024 L213 1327 L340 1327 L340 1024 L504 1024 L504 897 L340 897 L340 307 Q340 201 361 166 Q384 127 451 127 L524 127 Z M404 -127 L404 -283 L342 -418 L268 -418 L310 -283 L248 -283 L248 -127 L404 -127 Z " />
<glyph glyph-name="Tcaron" unicode="&#x164;" horiz-adv-x="942" d="M41 1434 L901 1434 L901 1299 L553 1299 L553 0 L389 0 L389 1299 L41 1299 L41 1434 Z M575 1565 L379 1565 L215 1762 L358 1762 L477 1657 L596 1762 L739 1762 L575 1565 Z " />
<glyph glyph-name="tcaron" unicode="&#x165;" horiz-adv-x="586" d="M524 127 L524 0 L436 0 Q301 0 242.5 70.5 Q184 141 184 305 L184 897 L41 897 L41 1024 L184 1024 L213 1327 L340 1327 L340 1024 L504 1024 L504 897 L340 897 L340 307 Q340 201 361 166 Q384 127 451 127 L524 127 Z M578 1454 L578 1298 L516 1163 L442 1163 L484 1298 L422 1298 L422 1454 L578 1454 Z " />
<glyph glyph-name="Umacron" unicode="&#x16a;" horiz-adv-x="1147" d="M287 1434 L287 565 Q287 334 347 227 Q414 106 567 106 Q748 106 815 258 Q860 359 860 545 L860 1434 L1024 1434 L1024 545 Q1024 246 921 113 Q812 -29 567 -29 Q298 -29 196 158 Q123 293 123 555 L123 1434 L287 1434 Z M322 1556 L322 1671 L826 1671 L826 1556 L322 1556 Z " />
<glyph glyph-name="umacron" unicode="&#x16b;" horiz-adv-x="975" d="M745 0 L721 106 L717 106 Q683 50 602.5 15 Q522 -20 428 -20 Q123 -20 123 340 L123 1024 L279 1024 L279 340 Q279 216 311 167 Q350 107 451 107 Q528 107 596.5 154.5 Q665 202 696 279 L696 1024 L852 1024 L852 0 L745 0 Z M234 1212 L234 1327 L738 1327 L738 1212 L234 1212 Z " />
<glyph glyph-name="Uring" unicode="&#x16e;" horiz-adv-x="1147" d="M389 1698 Q389 1780 450 1835 Q502 1882 574 1882 Q656 1882 711 1821 Q758 1769 758 1698 Q758 1615 697 1560 Q645 1513 574 1513 Q491 1513 436 1574 Q389 1626 389 1698 Z M483 1698 Q483 1660 509.5 1633.5 Q536 1607 574 1607 Q611 1607 637.5 1633.5 Q664 1660 664 1698 Q664 1735 637.5 1761.5 Q611 1788 574 1788 Q537 1788 510 1761.5 Q483 1735 483 1698 Z M287 1434 L287 565 Q287 334 347 227 Q414 106 567 106 Q748 106 815 258 Q860 359 860 545 L860 1434 L1024 1434 L1024 545 Q1024 246 921 113 Q812 -29 567 -29 Q298 -29 196 158 Q123 293 123 555 L123 1434 L287 1434 Z " />
<glyph glyph-name="uring" unicode="&#x16f;" horiz-adv-x="975" d="M307 1374 Q307 1457 368 1512 Q420 1559 492 1559 Q574 1559 629 1498 Q676 1446 676 1374 Q676 1292 615 1237 Q563 1190 492 1190 Q409 1190 354 1251 Q307 1303 307 1374 Z M401 1374 Q401 1337 427.5 1310.5 Q454 1284 492 1284 Q529 1284 555.5 1310.5 Q582 1337 582 1374 Q582 1412 555.5 1438.5 Q529 1465 492 1465 Q454 1465 427.5 1438.5 Q401 1412 401 1374 Z M745 0 L721 106 L717 106 Q683 50 602.5 15 Q522 -20 428 -20 Q123 -20 123 340 L123 1024 L279 1024 L279 340 Q279 216 311 167 Q350 107 451 107 Q528 107 596.5 154.5 Q665 202 696 279 L696 1024 L852 1024 L852 0 L745 0 Z " />
<glyph glyph-name="Uhungarumlaut" unicode="&#x170;" horiz-adv-x="1147" d="M287 1434 L287 565 Q287 334 347 227 Q414 106 567 106 Q748 106 815 258 Q860 359 860 545 L860 1434 L1024 1434 L1024 545 Q1024 246 921 113 Q812 -29 567 -29 Q298 -29 196 158 Q123 293 123 555 L123 1434 L287 1434 Z M469 1733 L663 1733 L483 1536 L348 1536 L469 1733 Z M756 1733 L950 1733 L770 1536 L635 1536 L756 1733 Z " />
<glyph glyph-name="uhungarumlaut" unicode="&#x171;" horiz-adv-x="975" d="M745 0 L721 106 L717 106 Q683 50 602.5 15 Q522 -20 428 -20 Q123 -20 123 340 L123 1024 L279 1024 L279 340 Q279 216 311 167 Q350 107 451 107 Q528 107 596.5 154.5 Q665 202 696 279 L696 1024 L852 1024 L852 0 L745 0 Z M367 1372 L561 1372 L381 1176 L246 1176 L367 1372 Z M654 1372 L848 1372 L668 1176 L533 1176 L654 1372 Z " />
<glyph glyph-name="Uogonek" unicode="&#x172;" horiz-adv-x="1147" d="M651 -311 Q723 -311 784 -264 L827 -329 Q749 -397 645 -397 Q430 -397 430 -237 Q430 -113 549 -28 Q291 -22 193 164 Q123 298 123 555 L123 1434 L287 1434 L287 566 Q287 335 347 228 Q414 107 567 107 Q748 107 815 259 Q860 360 860 545 L860 1434 L1024 1434 L1024 545 Q1024 272 939 139 Q849 -1 651 -22 Q541 -119 541 -209 Q541 -254 572 -282.5 Q603 -311 651 -311 Z " />
<glyph glyph-name="uogonek" unicode="&#x173;" horiz-adv-x="975" d="M745 0 L721 106 L717 106 Q683 50 602.5 15 Q522 -20 428 -20 Q123 -20 123 340 L123 1024 L279 1024 L279 340 Q279 216 311 167 Q350 107 451 107 Q528 107 596.5 154.5 Q665 202 696 279 L696 1024 L852 1024 L852 0 L848 0 Q706 -110 706 -209 Q706 -254 737 -282.5 Q768 -311 817 -311 Q888 -311 950 -264 L993 -330 Q915 -397 811 -397 Q596 -397 596 -237 Q596 -96 758 0 L745 0 Z " />
<glyph glyph-name="Zacute" unicode="&#x179;" horiz-adv-x="1004" d="M123 1434 L901 1434 L901 1328 L266 135 L922 135 L922 0 L82 0 L82 106 L717 1299 L123 1299 L123 1434 Z M512 1733 L729 1733 L524 1536 L389 1536 L512 1733 Z " />
<glyph glyph-name="zacute" unicode="&#x17a;" horiz-adv-x="909" d="M143 1024 L786 1024 L786 938 L286 131 L286 127 L807 127 L807 0 L102 0 L102 86 L602 893 L602 897 L143 897 L143 1024 Z M473 1372 L690 1372 L485 1176 L350 1176 L473 1372 Z " />
<glyph glyph-name="Zdotaccent" unicode="&#x17b;" horiz-adv-x="1004" d="M123 1434 L901 1434 L901 1328 L266 135 L922 135 L922 0 L82 0 L82 106 L717 1299 L123 1299 L123 1434 Z M566 1733 L566 1557 L410 1557 L410 1733 L566 1733 Z " />
<glyph glyph-name="zdotaccent" unicode="&#x17c;" horiz-adv-x="909" d="M143 1024 L786 1024 L786 938 L286 131 L286 127 L807 127 L807 0 L102 0 L102 86 L602 893 L602 897 L143 897 L143 1024 Z M545 1372 L545 1196 L389 1196 L389 1372 L545 1372 Z " />
<glyph glyph-name="Zcaron" unicode="&#x17d;" horiz-adv-x="1004" d="M123 1434 L901 1434 L901 1328 L266 135 L922 135 L922 0 L82 0 L82 106 L717 1299 L123 1299 L123 1434 Z M600 1536 L404 1536 L240 1733 L383 1733 L502 1628 L621 1733 L764 1733 L600 1536 Z " />
<glyph glyph-name="zcaron" unicode="&#x17e;" horiz-adv-x="909" d="M143 1024 L786 1024 L786 938 L286 131 L286 127 L807 127 L807 0 L102 0 L102 86 L602 893 L602 897 L143 897 L143 1024 Z M552 1176 L356 1176 L192 1372 L335 1372 L454 1268 L573 1372 L716 1372 L552 1176 Z " />
<glyph glyph-name="uni018F" unicode="&#x18f;" horiz-adv-x="1188" d="M580 1328 Q451 1328 376 1252 Q314 1189 266 1053 Q123 1082 111 1082 Q185 1299 279 1377 Q383 1463 580 1463 Q882 1463 1008 1237 Q1106 1060 1106 723 Q1106 332 969 147 Q839 -29 580 -29 Q305 -29 185 204 Q86 395 82 762 L942 762 Q928 1070 846 1197 Q762 1328 580 1328 Z M940 621 L248 621 Q267 369 341 244 Q424 106 580 106 Q781 106 867 282 Q923 398 940 621 Z " />
<glyph glyph-name="uni01DD" unicode="&#x1dd;" horiz-adv-x="971" d="M475 917 Q291 917 236 729 L96 754 Q138 913 234 981 Q322 1044 475 1044 Q697 1044 802 883 Q889 750 889 516 Q889 244 772 105 Q666 -20 475 -20 Q268 -20 168 148 Q82 294 82 557 L733 557 Q725 748 660 834 Q597 917 475 917 Z M729 430 L242 430 Q253 277 312 193 Q372 107 475 107 Q706 107 729 430 Z " />
<glyph glyph-name="Scommaaccent" unicode="&#x218;" horiz-adv-x="1004" d="M907 1133 L758 1096 Q689 1328 481 1328 Q375 1328 311 1256 Q254 1193 254 1096 Q254 970 361 890 Q417 848 564 786 Q763 702 836 631 Q942 527 942 360 Q942 163 801 58 Q686 -29 510 -29 Q326 -29 202 74 Q93 164 41 324 L193 361 Q233 240 319 172 Q403 106 512 106 Q636 106 711 184 Q778 253 778 360 Q778 473 675 550 Q621 590 479 654 Q276 744 200 818 Q90 927 90 1096 Q90 1278 217 1379 Q325 1463 489 1463 Q653 1463 764 1368 Q862 1284 907 1133 Z M586 -127 L586 -283 L524 -418 L450 -418 L492 -283 L430 -283 L430 -127 L586 -127 Z " />
<glyph glyph-name="scommaaccent" unicode="&#x219;" horiz-adv-x="815" d="M737 854 L623 766 Q532 909 404 909 Q323 909 277 866 Q236 828 236 768 Q236 718 276.5 685 Q317 652 437 603 Q600 537 662 480 Q754 396 754 269 Q754 126 649 47 Q561 -20 424 -20 Q298 -20 192 43 Q98 99 41 193 L156 279 Q264 115 424 115 Q511 115 559 162 Q600 203 600 268 Q600 328 555.5 367 Q511 406 380 462 Q226 528 168 579 Q84 655 84 768 Q84 900 186 977 Q274 1044 403 1044 Q507 1044 584.5 1000 Q662 956 737 854 Z M496 -127 L496 -283 L434 -418 L360 -418 L402 -283 L340 -283 L340 -127 L496 -127 Z " />
<glyph glyph-name="uni021A" unicode="&#x21a;" horiz-adv-x="942" d="M41 1434 L901 1434 L901 1299 L553 1299 L553 0 L389 0 L389 1299 L41 1299 L41 1434 Z M549 -127 L549 -283 L487 -418 L413 -418 L455 -283 L393 -283 L393 -127 L549 -127 Z " />
<glyph glyph-name="uni021B" unicode="&#x21b;" horiz-adv-x="586" d="M524 127 L524 0 L436 0 Q301 0 242.5 70.5 Q184 141 184 305 L184 897 L41 897 L41 1024 L184 1024 L213 1327 L340 1327 L340 1024 L504 1024 L504 897 L340 897 L340 307 Q340 201 361 166 Q384 127 451 127 L524 127 Z M404 -127 L404 -283 L342 -418 L268 -418 L310 -283 L248 -283 L248 -127 L404 -127 Z " />
<glyph glyph-name="uni0259" unicode="&#x259;" horiz-adv-x="971" d="M475 917 Q291 917 236 729 L96 754 Q138 913 234 981 Q322 1044 475 1044 Q697 1044 802 883 Q889 750 889 516 Q889 244 772 105 Q666 -20 475 -20 Q268 -20 168 148 Q82 294 82 557 L733 557 Q725 748 660 834 Q597 917 475 917 Z M729 430 L242 430 Q253 277 312 193 Q372 107 475 107 Q706 107 729 430 Z " />
<glyph glyph-name="uni02C9" unicode="&#x2c9;" horiz-adv-x="750" d="M123 1212 L123 1327 L627 1327 L627 1212 L123 1212 Z " />
<glyph glyph-name="uni0309" unicode="&#x309;" horiz-adv-x="643" d="M123 1722 Q193 1791 305 1791 Q520 1791 520 1638 Q520 1574 467 1526 Q423 1487 375 1487 Q359 1487 342 1491 L340 1489 L342 1394 L220 1394 L215 1562 L238 1574 Q261 1558 299 1558 Q342 1558 370.5 1580.5 Q399 1603 399 1636 Q399 1669 370.5 1691 Q342 1713 299 1713 Q223 1713 158 1660 L123 1722 Z " />
<glyph glyph-name="uni0323" unicode="&#x323;" horiz-adv-x="401" d="M279 -116 L279 -292 L123 -292 L123 -116 L279 -116 Z " />
<glyph glyph-name="uni037E" unicode="&#x37e;" horiz-adv-x="360" d="M258 176 L258 0 L196 -176 L122 -176 L164 0 L102 0 L102 176 L258 176 Z M258 901 L258 725 L102 725 L102 901 L258 901 Z " />
<glyph glyph-name="tonos" unicode="&#x384;" horiz-adv-x="461" d="M221 1463 L358 1414 L202 1044 L102 1081 L221 1463 Z " />
<glyph glyph-name="Alphatonos" unicode="&#x386;" horiz-adv-x="1065" d="M328 438 L205 0 L41 0 L457 1434 L604 1434 L1024 0 L860 0 L737 438 L328 438 Z M365 573 L700 573 L535 1170 L530 1170 L365 573 Z M191 1463 L328 1414 L172 1044 L72 1081 L191 1463 Z " />
<glyph glyph-name="uni0387" unicode="&#x387;" horiz-adv-x="565" d="M361 819 L361 643 L205 643 L205 819 L361 819 Z " />
<glyph glyph-name="Epsilontonos" unicode="&#x388;" horiz-adv-x="1126" d="M307 1434 L1024 1434 L1024 1299 L471 1299 L471 819 L901 819 L901 684 L471 684 L471 135 L1044 135 L1044 0 L307 0 L307 1434 Z M88 1463 L225 1414 L69 1044 L-31 1081 L88 1463 Z " />
<glyph glyph-name="Etatonos" unicode="&#x389;" horiz-adv-x="1331" d="M471 684 L471 0 L307 0 L307 1434 L471 1434 L471 819 L1044 819 L1044 1434 L1208 1434 L1208 0 L1044 0 L1044 684 L471 684 Z M88 1463 L225 1414 L69 1044 L-31 1081 L88 1463 Z " />
<glyph glyph-name="Iotatonos" unicode="&#x38a;" horiz-adv-x="594" d="M471 1434 L471 0 L307 0 L307 1434 L471 1434 Z M88 1463 L225 1414 L69 1044 L-31 1081 L88 1463 Z " />
<glyph glyph-name="Omicrontonos" unicode="&#x38c;" horiz-adv-x="1208" d="M184 717 Q184 1118 315 1299 Q435 1463 673 1463 Q948 1463 1067 1249 Q1167 1068 1167 717 Q1167 305 1035 129 Q917 -29 673 -29 Q399 -29 284 178 Q184 356 184 717 Z M348 717 Q348 380 436 235 Q514 106 673 106 Q857 106 935 275 Q1003 422 1003 717 Q1003 1042 914 1192 Q833 1328 673 1328 Q494 1328 415 1151 Q348 1002 348 717 Z M88 1463 L225 1414 L69 1044 L-31 1081 L88 1463 Z " />
<glyph glyph-name="Upsilontonos" unicode="&#x38e;" horiz-adv-x="1290" d="M1248 1434 L841 606 L841 0 L677 0 L677 606 L265 1434 L437 1434 L759 758 L763 758 L1076 1434 L1248 1434 Z M88 1463 L225 1414 L69 1044 L-31 1081 L88 1463 Z " />
<glyph glyph-name="Omegatonos" unicode="&#x38f;" horiz-adv-x="1262" d="M88 1463 L225 1414 L69 1044 L-31 1081 L88 1463 Z M325 135 L325 139 Q186 308 186 731 Q186 1130 317 1305 Q436 1463 675 1463 Q951 1463 1069 1257 Q1169 1081 1169 731 Q1169 307 1028 139 L1028 135 L1220 135 L1220 0 L823 0 L823 168 Q1005 269 1005 732 Q1005 1054 916 1198 Q836 1328 675 1328 Q495 1328 417 1159 Q350 1015 350 732 Q350 476 399 338 Q442 215 530 168 L530 0 L135 0 L135 135 L325 135 Z " />
<glyph glyph-name="iotadieresistonos" unicode="&#x390;" horiz-adv-x="401" d="M63 1362 L63 1196 L-82 1196 L-82 1362 L63 1362 Z M483 1362 L483 1196 L338 1196 L338 1362 L483 1362 Z M279 1024 L279 0 L123 0 L123 1024 L279 1024 Z M221 1536 L358 1487 L203 1118 L102 1155 L221 1536 Z " />
<glyph glyph-name="Alpha" unicode="&#x391;" horiz-adv-x="1065" d="M328 438 L205 0 L41 0 L457 1434 L604 1434 L1024 0 L860 0 L737 438 L328 438 Z M365 573 L700 573 L535 1170 L530 1170 L365 573 Z " />
<glyph glyph-name="Beta" unicode="&#x392;" horiz-adv-x="1044" d="M707 758 L707 754 Q835 729 903 623 Q963 530 963 393 Q963 180 819 81 Q701 0 496 0 L123 0 L123 1434 L449 1434 Q922 1434 922 1073 Q922 810 707 758 Z M287 135 L455 135 Q645 135 720 190 Q799 249 799 393 Q799 563 693 630 Q608 684 436 684 L287 684 L287 135 Z M287 819 L439 819 Q616 819 687 877 Q758 936 758 1073 Q758 1194 681.5 1246.5 Q605 1299 428 1299 L287 1299 L287 819 Z " />
<glyph glyph-name="Gamma" unicode="&#x393;" horiz-adv-x="840" d="M287 1299 L287 0 L123 0 L123 1434 L799 1434 L799 1299 L287 1299 Z " />
<glyph glyph-name="Epsilon" unicode="&#x395;" horiz-adv-x="942" d="M123 1434 L840 1434 L840 1299 L287 1299 L287 819 L717 819 L717 684 L287 684 L287 135 L860 135 L860 0 L123 0 L123 1434 Z " />
<glyph glyph-name="Zeta" unicode="&#x396;" horiz-adv-x="1004" d="M123 1434 L901 1434 L901 1328 L266 135 L922 135 L922 0 L82 0 L82 106 L717 1299 L123 1299 L123 1434 Z " />
<glyph glyph-name="Eta" unicode="&#x397;" horiz-adv-x="1147" d="M287 684 L287 0 L123 0 L123 1434 L287 1434 L287 819 L860 819 L860 1434 L1024 1434 L1024 0 L860 0 L860 684 L287 684 Z " />
<glyph glyph-name="Theta" unicode="&#x398;" horiz-adv-x="1147" d="M369 680 L369 823 L779 823 L779 680 L369 680 Z M82 717 Q82 1118 213 1299 Q333 1463 571 1463 Q846 1463 965 1249 Q1065 1068 1065 717 Q1065 305 933 129 Q815 -29 571 -29 Q297 -29 182 178 Q82 356 82 717 Z M246 717 Q246 380 334 235 Q412 106 571 106 Q755 106 833 275 Q901 422 901 717 Q901 1042 812 1192 Q731 1328 571 1328 Q392 1328 313 1151 Q246 1002 246 717 Z " />
<glyph glyph-name="Iota" unicode="&#x399;" horiz-adv-x="410" d="M287 1434 L287 0 L123 0 L123 1434 L287 1434 Z " />
<glyph glyph-name="Kappa" unicode="&#x39a;" horiz-adv-x="1065" d="M287 1434 L287 684 L291 684 L815 1434 L1004 1434 L576 840 L1024 0 L844 0 L471 694 L287 436 L287 0 L123 0 L123 1434 L287 1434 Z " />
<glyph glyph-name="Lambda" unicode="&#x39b;" horiz-adv-x="1065" d="M860 0 L535 1170 L530 1170 L205 0 L41 0 L457 1434 L604 1434 L1024 0 L860 0 Z " />
<glyph glyph-name="Mu" unicode="&#x39c;" horiz-adv-x="1352" d="M1229 1434 L1229 0 L1082 0 L1082 1155 L1078 1155 L748 0 L615 0 L274 1155 L270 1155 L270 0 L123 0 L123 1434 L342 1434 L678 289 L682 289 L1014 1434 L1229 1434 Z " />
<glyph glyph-name="Nu" unicode="&#x39d;" horiz-adv-x="1126" d="M1004 1434 L1004 0 L898 0 L274 1112 L270 1112 L270 0 L123 0 L123 1434 L254 1434 L853 367 L857 367 L857 1434 L1004 1434 Z " />
<glyph glyph-name="Xi" unicode="&#x39e;" horiz-adv-x="922" d="M82 135 L840 135 L840 0 L82 0 L82 135 Z M164 684 L164 819 L758 819 L758 684 L164 684 Z M82 1299 L82 1434 L840 1434 L840 1299 L82 1299 Z " />
<glyph glyph-name="Omicron" unicode="&#x39f;" horiz-adv-x="1147" d="M82 717 Q82 1118 213 1299 Q333 1463 571 1463 Q846 1463 965 1249 Q1065 1068 1065 717 Q1065 305 933 129 Q815 -29 571 -29 Q297 -29 182 178 Q82 356 82 717 Z M246 717 Q246 380 334 235 Q412 106 571 106 Q755 106 833 275 Q901 422 901 717 Q901 1042 812 1192 Q731 1328 571 1328 Q392 1328 313 1151 Q246 1002 246 717 Z " />
<glyph glyph-name="Pi" unicode="&#x3a0;" horiz-adv-x="1147" d="M287 1299 L287 0 L123 0 L123 1434 L1024 1434 L1024 0 L860 0 L860 1299 L287 1299 Z " />
<glyph glyph-name="Rho" unicode="&#x3a1;" horiz-adv-x="1044" d="M123 1434 L473 1434 Q963 1434 963 1012 Q963 598 490 598 L287 598 L287 0 L123 0 L123 1434 Z M287 733 L477 733 Q659 733 731 802 Q799 867 799 1012 Q799 1167 719.5 1233 Q640 1299 453 1299 L287 1299 L287 733 Z " />
<glyph glyph-name="Sigma" unicode="&#x3a3;" horiz-adv-x="942" d="M82 1434 L840 1434 L840 1299 L275 1299 L645 752 L275 135 L860 135 L860 0 L82 0 L82 106 L471 752 L82 1328 L82 1434 Z " />
<glyph glyph-name="Tau" unicode="&#x3a4;" horiz-adv-x="942" d="M41 1434 L901 1434 L901 1299 L553 1299 L553 0 L389 0 L389 1299 L41 1299 L41 1434 Z " />
<glyph glyph-name="Upsilon" unicode="&#x3a5;" horiz-adv-x="1065" d="M1024 1434 L617 606 L617 0 L453 0 L453 606 L41 1434 L213 1434 L535 758 L539 758 L852 1434 L1024 1434 Z " />
<glyph glyph-name="Phi" unicode="&#x3a6;" horiz-adv-x="1409" d="M787 1434 L787 1207 Q1071 1190 1233 1034 Q1369 902 1369 715 Q1369 493 1194 359 Q1039 240 787 225 L787 0 L623 0 L623 225 Q341 242 182 389 Q41 519 41 715 Q41 929 224 1070 Q384 1194 623 1207 L623 1434 L787 1434 Z M1205 715 Q1205 890 1094 975 Q994 1053 787 1071 L787 363 Q1021 379 1121 478 Q1205 561 1205 715 Z M205 715 Q205 389 623 363 L623 1071 Q392 1050 292 952 Q205 867 205 715 Z " />
<glyph glyph-name="Chi" unicode="&#x3a7;" horiz-adv-x="1065" d="M983 1434 L619 752 L1024 0 L848 0 L541 586 L537 586 L217 0 L41 0 L451 746 L82 1434 L258 1434 L533 905 L537 905 L807 1434 L983 1434 Z " />
<glyph glyph-name="Psi" unicode="&#x3a8;" horiz-adv-x="1229" d="M983 1006 L983 1434 L1147 1434 L1147 1006 Q1147 763 1035 611 Q918 450 695 430 L695 0 L531 0 L531 430 Q282 451 166 653 Q82 798 82 1006 L82 1434 L246 1434 L246 1006 Q246 625 531 572 L531 1434 L695 1434 L695 572 Q983 622 983 1006 Z " />
<glyph glyph-name="Iotadieresis" unicode="&#x3aa;" horiz-adv-x="410" d="M287 1434 L287 0 L123 0 L123 1434 L287 1434 Z M129 1733 L129 1557 L-27 1557 L-27 1733 L129 1733 Z M436 1733 L436 1557 L280 1557 L280 1733 L436 1733 Z " />
<glyph glyph-name="Upsilondieresis" unicode="&#x3ab;" horiz-adv-x="1065" d="M1024 1434 L617 606 L617 0 L453 0 L453 606 L41 1434 L213 1434 L535 758 L539 758 L852 1434 L1024 1434 Z M461 1733 L461 1557 L305 1557 L305 1733 L461 1733 Z M768 1733 L768 1557 L612 1557 L612 1733 L768 1733 Z " />
<glyph glyph-name="alphatonos" unicode="&#x3ac;" horiz-adv-x="1053" d="M971 0 L815 0 Q782 79 770 162 L766 162 Q691 -20 475 -20 Q266 -20 165 141 Q82 275 82 508 Q82 781 193 919 Q294 1044 475 1044 Q686 1044 768 856 L772 856 Q784 942 815 1024 L971 1024 Q868 760 868 508 Q868 250 971 0 Z M475 107 Q611 107 667 227 Q712 323 712 508 Q712 917 475 917 Q238 917 238 508 Q238 296 298 200 Q355 107 475 107 Z M580 1537 L717 1488 L561 1118 L461 1155 L580 1537 Z " />
<glyph glyph-name="epsilontonos" unicode="&#x3ad;" horiz-adv-x="889" d="M755 156 L807 35 Q665 -20 487 -20 Q82 -20 82 281 Q82 475 274 539 L274 543 Q127 597 127 762 Q127 882 211 960 Q303 1044 473 1044 Q596 1044 731 999 L698 879 Q565 917 473 917 Q363 917 309 867 Q266 826 266 762 Q266 680 338 635 Q402 594 506 594 L610 594 L610 467 L506 467 Q362 467 289 414 Q223 367 223 281 Q223 107 487 107 Q615 107 755 156 Z M531 1535 L668 1486 L512 1116 L412 1153 L531 1535 Z " />
<glyph glyph-name="etatonos" unicode="&#x3ae;" horiz-adv-x="975" d="M234 1024 L258 918 L263 918 Q297 974 375.5 1009 Q454 1044 547 1044 Q852 1044 852 684 L852 -369 L696 -369 L696 684 Q696 808 664 857 Q625 917 524 917 Q447 917 378.5 869.5 Q310 822 279 745 L279 0 L123 0 L123 1024 L234 1024 Z M539 1537 L676 1488 L520 1118 L420 1155 L539 1537 Z " />
<glyph glyph-name="iotatonos" unicode="&#x3af;" horiz-adv-x="401" d="M279 1024 L279 0 L123 0 L123 1024 L279 1024 Z M242 1537 L379 1488 L223 1118 L123 1155 L242 1537 Z " />
<glyph glyph-name="upsilondieresistonos" unicode="&#x3b0;" horiz-adv-x="1008" d="M350 1362 L350 1196 L205 1196 L205 1362 L350 1362 Z M791 1362 L791 1196 L646 1196 L646 1362 L791 1362 Z M279 1024 L279 487 Q279 277 330 193 Q382 107 504 107 Q640 107 690 218 Q729 304 729 487 L729 1024 L885 1024 L885 489 Q885 213 786 92 Q694 -20 504 -20 Q287 -20 197 125 Q123 246 123 487 L123 1024 L279 1024 Z M518 1536 L655 1487 L500 1118 L399 1155 L518 1536 Z " />
<glyph glyph-name="alpha" unicode="&#x3b1;" horiz-adv-x="1053" d="M971 0 L815 0 Q782 79 770 162 L766 162 Q691 -20 475 -20 Q266 -20 165 141 Q82 275 82 508 Q82 781 193 919 Q294 1044 475 1044 Q686 1044 768 856 L772 856 Q784 942 815 1024 L971 1024 Q868 760 868 508 Q868 250 971 0 Z M475 107 Q611 107 667 227 Q712 323 712 508 Q712 917 475 917 Q238 917 238 508 Q238 296 298 200 Q355 107 475 107 Z " />
<glyph glyph-name="beta" unicode="&#x3b2;" horiz-adv-x="1008" d="M279 -369 L123 -369 L123 1073 Q123 1252 227 1361 Q325 1463 483 1463 Q665 1463 764 1333 Q844 1228 844 1074 Q844 952 801 878.5 Q758 805 662 762 L662 758 Q926 682 926 373 Q926 174 782 64 Q659 -29 469 -29 Q370 -29 279 6 L279 -369 Z M469 98 Q615 98 700 180 Q776 253 776 373 Q776 527 674 613 Q588 684 457 684 L422 684 L422 819 L455 819 Q591 819 644 891 Q688 949 688 1074 Q688 1328 483 1328 Q279 1328 279 1073 L279 160 Q363 98 469 98 Z " />
<glyph glyph-name="gamma" unicode="&#x3b3;" horiz-adv-x="938" d="M878 1024 L548 106 L548 -369 L392 -369 L392 106 L62 1024 L222 1024 L468 295 L472 295 L718 1024 L878 1024 Z " />
<glyph glyph-name="delta" unicode="&#x3b4;" horiz-adv-x="950" d="M727 932 Q868 797 868 498 Q868 231 759 100 Q659 -20 475 -20 Q265 -20 165 135 Q82 266 82 498 Q82 915 342 1004 L342 1008 Q241 1093 241 1221 Q241 1325 321 1382 Q393 1434 518 1434 L692 1434 L692 1307 L526 1307 Q393 1307 393 1219 Q393 1170 425 1135.5 Q457 1101 554 1049 Q673 984 727 932 Z M475 107 Q612 107 667 222 Q712 314 712 498 Q712 897 475 897 Q238 897 238 498 Q238 288 298 195 Q354 107 475 107 Z " />
<glyph glyph-name="epsilon" unicode="&#x3b5;" horiz-adv-x="889" d="M755 156 L807 35 Q665 -20 487 -20 Q82 -20 82 281 Q82 475 274 539 L274 543 Q127 597 127 762 Q127 882 211 960 Q303 1044 473 1044 Q596 1044 731 999 L698 879 Q565 917 473 917 Q363 917 309 867 Q266 826 266 762 Q266 680 338 635 Q402 594 506 594 L610 594 L610 467 L506 467 Q362 467 289 414 Q223 367 223 281 Q223 107 487 107 Q615 107 755 156 Z " />
<glyph glyph-name="zeta" unicode="&#x3b6;" horiz-adv-x="786" d="M82 508 Q82 801 245 1026 Q348 1168 535 1303 L535 1307 L143 1307 L143 1434 L787 1434 L787 1336 Q457 1103 342 916 Q238 747 238 508 Q238 318 299 230 Q347 159 455 127 Q723 48 723 -127 Q723 -251 506 -397 L420 -297 Q489 -254 532 -207 Q575 -160 575 -127 Q575 -90 533 -60.5 Q491 -31 393 0 Q82 99 82 508 Z " />
<glyph glyph-name="eta" unicode="&#x3b7;" horiz-adv-x="975" d="M234 1024 L258 918 L263 918 Q297 974 375.5 1009 Q454 1044 547 1044 Q852 1044 852 684 L852 -369 L696 -369 L696 684 Q696 808 664 857 Q625 917 524 917 Q447 917 378.5 869.5 Q310 822 279 745 L279 0 L123 0 L123 1024 L234 1024 Z " />
<glyph glyph-name="theta" unicode="&#x3b8;" horiz-adv-x="1098" d="M549 1463 Q809 1463 923 1239 Q1016 1056 1016 717 Q1016 -29 549 -29 Q82 -29 82 717 Q82 1463 549 1463 Z M549 98 Q854 98 860 688 L238 688 Q244 98 549 98 Z M549 1336 Q262 1336 240 815 L858 815 Q833 1336 549 1336 Z " />
<glyph glyph-name="iota" unicode="&#x3b9;" horiz-adv-x="401" d="M279 1024 L279 0 L123 0 L123 1024 L279 1024 Z " />
<glyph glyph-name="kappa" unicode="&#x3ba;" horiz-adv-x="889" d="M279 1024 L279 526 L283 526 L635 1024 L807 1024 L529 643 L848 0 L680 0 L437 500 L433 500 L279 309 L279 0 L123 0 L123 1024 L279 1024 Z " />
<glyph glyph-name="lambda" unicode="&#x3bb;" horiz-adv-x="938" d="M415 1434 L876 0 L716 0 L471 815 L467 815 L221 0 L61 0 L391 1024 L264 1434 L415 1434 Z " />
<glyph glyph-name="nu" unicode="&#x3bd;" horiz-adv-x="938" d="M876 1024 L546 0 L391 0 L61 1024 L221 1024 L467 209 L471 209 L716 1024 L876 1024 Z " />
<glyph glyph-name="xi" unicode="&#x3be;" horiz-adv-x="788" d="M82 426 Q82 547 152 664 Q217 774 305 803 L305 807 Q223 848 187 910 Q151 972 151 1071 Q151 1143 202.5 1213 Q254 1283 326 1307 L143 1307 L143 1434 L789 1434 L789 1307 L615 1307 Q452 1307 366 1220 Q303 1156 303 1071 Q303 976 371 919 Q437 864 555 864 L660 864 L660 729 L555 729 Q383 729 298 616 Q238 536 238 426 Q238 307 290 235 Q342 163 455 127 Q599 80 662 18 Q723 -41 723 -127 Q723 -251 506 -397 L420 -297 Q489 -255 532 -207.5 Q575 -160 575 -127 Q575 -90 533 -60.5 Q491 -31 393 0 Q82 99 82 426 Z " />
<glyph glyph-name="omicron" unicode="&#x3bf;" horiz-adv-x="950" d="M475 -20 Q266 -20 165 141 Q82 275 82 508 Q82 781 193 919 Q293 1044 475 1044 Q682 1044 783 882 Q868 746 868 508 Q868 240 759 104 Q658 -20 475 -20 Z M475 107 Q611 107 667 227 Q712 323 712 508 Q712 917 475 917 Q238 917 238 508 Q238 296 298 200 Q355 107 475 107 Z " />
<glyph glyph-name="rho" unicode="&#x3c1;" horiz-adv-x="975" d="M123 -369 L123 516 Q123 774 234 913 Q338 1044 525 1044 Q893 1044 893 516 Q893 254 800 117 Q707 -21 525 -21 Q358 -21 283 106 L279 106 L279 -369 L123 -369 Z M279 594 L279 422 Q279 279 351 187 Q415 106 504 106 Q639 106 693 223 Q737 318 737 507 Q737 725 679 819 Q623 909 504 909 Q401 909 335 806 Q279 717 279 594 Z " />
<glyph glyph-name="uni03C2" unicode="&#x3c2;" horiz-adv-x="831" d="M455 127 Q723 48 723 -127 Q723 -251 506 -397 L420 -297 Q489 -255 532.5 -207.5 Q576 -160 576 -127 Q576 -90 534 -60.5 Q492 -31 394 0 Q82 99 82 508 Q82 781 193 919 Q294 1044 475 1044 Q644 1044 750 915 L649 819 Q574 917 475 917 Q238 917 238 508 Q238 315 299 228 Q347 159 455 127 Z " />
<glyph glyph-name="sigma" unicode="&#x3c3;" horiz-adv-x="950" d="M475 -20 Q266 -20 166 141 Q82 275 82 508 Q82 781 193 919 Q294 1044 475 1044 Q527 1044 620 1032 Q685 1024 709 1024 L926 1024 L926 897 L772 897 Q869 757 869 508 Q869 240 759 104 Q659 -20 475 -20 Z M475 107 Q612 107 668 227 Q713 323 713 508 Q713 917 475 917 Q238 917 238 508 Q238 296 298 200 Q355 107 475 107 Z " />
<glyph glyph-name="tau" unicode="&#x3c4;" horiz-adv-x="729" d="M41 1024 L688 1024 L688 897 L443 897 L443 0 L287 0 L287 897 L41 897 L41 1024 Z " />
<glyph glyph-name="upsilon" unicode="&#x3c5;" horiz-adv-x="1008" d="M279 1024 L279 487 Q279 277 330 193 Q382 107 504 107 Q640 107 690 218 Q729 304 729 487 L729 1024 L885 1024 L885 489 Q885 213 786 92 Q694 -20 504 -20 Q287 -20 197 125 Q123 246 123 487 L123 1024 L279 1024 Z " />
<glyph glyph-name="phi" unicode="&#x3c6;" horiz-adv-x="1032" d="M237 922 L342 819 Q238 653 238 508 Q238 343 301 236 Q353 146 438 119 L438 1044 L516 1044 Q729 1044 847 882 Q950 740 950 508 Q950 276 840 133 Q746 11 594 -15 L594 -369 L438 -369 L438 -15 Q263 15 167 169 Q82 305 82 508 Q82 732 237 922 Z M794 508 Q794 666 730 778 Q677 873 594 903 L594 116 Q692 150 745 262 Q794 363 794 508 Z " />
<glyph glyph-name="chi" unicode="&#x3c7;" horiz-adv-x="942" d="M839 1024 L557 342 L880 -369 L720 -369 L479 184 L475 184 L221 -369 L61 -369 L389 336 L102 1024 L262 1024 L471 487 L475 487 L679 1024 L839 1024 Z " />
<glyph glyph-name="psi" unicode="&#x3c8;" horiz-adv-x="1167" d="M930 567 L930 1024 L1086 1024 L1086 567 Q1086 50 660 12 L660 -369 L504 -369 L504 12 Q82 48 82 567 L82 1024 L238 1024 L238 567 Q238 357 307 259 Q369 171 504 145 L504 1024 L660 1024 L660 145 Q817 172 878 286 Q930 381 930 567 Z " />
<glyph glyph-name="omega" unicode="&#x3c9;" horiz-adv-x="1393" d="M980 1024 L1142 1024 Q1217 931 1264.5 787 Q1312 643 1312 508 Q1312 227 1194 88 Q1103 -20 962 -20 Q779 -20 697 135 L693 135 Q607 -20 420 -20 Q267 -20 174 122 Q82 263 82 508 Q82 670 136 821 Q183 949 252 1024 L414 1024 Q335 936 286.5 794.5 Q238 653 238 508 Q238 107 445 107 Q524 107 573 178 Q617 241 617 334 L617 723 L773 723 L773 334 Q773 224 830 161 Q879 107 951 107 Q1156 107 1156 508 Q1156 656 1102 805 Q1055 936 980 1024 Z " />
<glyph glyph-name="iotadieresis" unicode="&#x3ca;" horiz-adv-x="401" d="M279 1024 L279 0 L123 0 L123 1024 L279 1024 Z M125 1372 L125 1196 L-31 1196 L-31 1372 L125 1372 Z M432 1372 L432 1196 L276 1196 L276 1372 L432 1372 Z " />
<glyph glyph-name="upsilondieresis" unicode="&#x3cb;" horiz-adv-x="975" d="M429 1372 L429 1196 L273 1196 L273 1372 L429 1372 Z M735 1372 L735 1196 L579 1196 L579 1372 L735 1372 Z M279 1024 L279 487 Q279 277 330 193 Q382 107 504 107 Q640 107 690 218 Q729 304 729 487 L729 1024 L885 1024 L885 489 Q885 213 786 92 Q694 -20 504 -20 Q287 -20 197 125 Q123 246 123 487 L123 1024 L279 1024 Z " />
<glyph glyph-name="omicrontonos" unicode="&#x3cc;" horiz-adv-x="950" d="M475 -20 Q266 -20 165 141 Q82 275 82 508 Q82 781 193 919 Q293 1044 475 1044 Q682 1044 783 882 Q868 746 868 508 Q868 240 759 104 Q658 -20 475 -20 Z M475 107 Q611 107 667 227 Q712 323 712 508 Q712 917 475 917 Q238 917 238 508 Q238 296 298 200 Q355 107 475 107 Z M518 1537 L655 1488 L499 1118 L399 1155 L518 1537 Z " />
<glyph glyph-name="upsilontonos" unicode="&#x3cd;" horiz-adv-x="1008" d="M279 1024 L279 487 Q279 277 330 193 Q382 107 504 107 Q640 107 690 218 Q729 304 729 487 L729 1024 L885 1024 L885 489 Q885 213 786 92 Q694 -20 504 -20 Q287 -20 197 125 Q123 246 123 487 L123 1024 L279 1024 Z M559 1537 L696 1488 L540 1118 L440 1155 L559 1537 Z " />
<glyph glyph-name="omegatonos" unicode="&#x3ce;" horiz-adv-x="1393" d="M980 1024 L1142 1024 Q1217 931 1264.5 787 Q1312 643 1312 508 Q1312 227 1194 88 Q1103 -20 962 -20 Q779 -20 697 135 L693 135 Q607 -20 420 -20 Q267 -20 174 122 Q82 263 82 508 Q82 670 136 821 Q183 949 252 1024 L414 1024 Q335 936 286.5 794.5 Q238 653 238 508 Q238 107 445 107 Q524 107 573 178 Q617 241 617 334 L617 723 L773 723 L773 334 Q773 224 830 161 Q879 107 951 107 Q1156 107 1156 508 Q1156 656 1102 805 Q1055 936 980 1024 Z M738 1537 L875 1488 L719 1118 L619 1155 L738 1537 Z " />
<glyph glyph-name="uni0400" unicode="&#x400;" horiz-adv-x="942" d="M123 1434 L840 1434 L840 1299 L287 1299 L287 819 L717 819 L717 684 L287 684 L287 135 L860 135 L860 0 L123 0 L123 1434 Z M252 1733 L469 1733 L592 1536 L457 1536 L252 1733 Z " />
<glyph glyph-name="afii10023" unicode="&#x401;" horiz-adv-x="942" d="M123 1434 L840 1434 L840 1299 L287 1299 L287 819 L717 819 L717 684 L287 684 L287 135 L860 135 L860 0 L123 0 L123 1434 Z M406 1733 L406 1557 L250 1557 L250 1733 L406 1733 Z M713 1733 L713 1557 L557 1557 L557 1733 L713 1733 Z " />
<glyph glyph-name="uni0402" unicode="&#x402;" horiz-adv-x="1327" d="M1286 487 Q1286 -105 870 -397 L778 -279 Q1122 -32 1122 488 Q1122 705 1058 795 Q997 881 864 881 Q714 881 630 762 Q553 654 553 477 L553 0 L389 0 L389 1299 L41 1299 L41 1434 L901 1434 L901 1299 L553 1299 L553 831 L557 831 Q599 922 693 974 Q782 1024 895 1024 Q1286 1024 1286 487 Z " />
<glyph glyph-name="uni0403" unicode="&#x403;" horiz-adv-x="840" d="M287 1299 L287 0 L123 0 L123 1434 L799 1434 L799 1299 L287 1299 Z M498 1733 L715 1733 L510 1536 L375 1536 L498 1733 Z " />
<glyph glyph-name="uni0404" unicode="&#x404;" horiz-adv-x="1106" d="M873 399 L1024 362 Q972 145 859 54 Q755 -29 571 -29 Q297 -29 182 178 Q82 356 82 717 Q82 1118 213 1299 Q333 1463 571 1463 Q766 1463 872 1362 Q957 1281 1008 1112 L858 1075 Q816 1212 744 1272 Q677 1328 572 1328 Q273 1328 248 819 L717 819 L717 684 L246 684 Q249 366 338 228 Q416 106 572 106 Q699 106 774 188 Q840 259 873 399 Z " />
<glyph glyph-name="uni0405" unicode="&#x405;" horiz-adv-x="1004" d="M907 1133 L758 1096 Q689 1328 481 1328 Q375 1328 311 1256 Q254 1193 254 1096 Q254 970 361 890 Q417 848 564 786 Q763 702 836 631 Q942 527 942 360 Q942 163 801 58 Q686 -29 510 -29 Q326 -29 202 74 Q93 164 41 324 L193 361 Q233 240 319 172 Q403 106 512 106 Q636 106 711 184 Q778 253 778 360 Q778 473 675 550 Q621 590 479 654 Q276 744 200 818 Q90 927 90 1096 Q90 1278 217 1379 Q325 1463 489 1463 Q653 1463 764 1368 Q862 1284 907 1133 Z " />
<glyph glyph-name="uni0406" unicode="&#x406;" horiz-adv-x="410" d="M287 1434 L287 0 L123 0 L123 1434 L287 1434 Z " />
<glyph glyph-name="uni0407" unicode="&#x407;" horiz-adv-x="410" d="M287 1434 L287 0 L123 0 L123 1434 L287 1434 Z M140 1733 L140 1557 L-16 1557 L-16 1733 L140 1733 Z M447 1733 L447 1557 L291 1557 L291 1733 L447 1733 Z " />
<glyph glyph-name="uni0408" unicode="&#x408;" horiz-adv-x="655" d="M41 0 L41 135 L117 135 Q241 135 307 223 Q369 306 369 453 L369 1434 L533 1434 L533 453 Q533 199 409 90 Q308 0 117 0 L41 0 Z " />
<glyph glyph-name="uni0409" unicode="&#x409;" horiz-adv-x="1905" d="M1003 1299 L471 1299 L471 823 Q471 433 380 231 Q299 51 129 -20 L41 104 Q194 173 250.5 334.5 Q307 496 307 864 L307 1434 L1167 1434 L1167 819 L1310 819 Q1569 819 1694 722 Q1822 622 1822 414 Q1822 0 1310 0 L1003 0 L1003 1299 Z M1167 684 L1167 135 L1294 135 Q1484 135 1565 193 Q1658 258 1658 414 Q1658 592 1526 649 Q1446 684 1271 684 L1167 684 Z " />
<glyph glyph-name="uni040A" unicode="&#x40a;" horiz-adv-x="1761" d="M287 684 L287 0 L123 0 L123 1434 L287 1434 L287 819 L860 819 L860 1434 L1024 1434 L1024 819 L1167 819 Q1426 819 1551 722 Q1679 622 1679 414 Q1679 0 1167 0 L860 0 L860 684 L287 684 Z M1024 684 L1024 135 L1151 135 Q1341 135 1422 193 Q1515 258 1515 414 Q1515 592 1383 649 Q1303 684 1128 684 L1024 684 Z " />
<glyph glyph-name="uni040B" unicode="&#x40b;" horiz-adv-x="1413" d="M899 1299 L553 1299 L553 831 L557 831 Q600 923 695 975 Q783 1024 895 1024 Q1290 1024 1290 489 L1290 0 L1126 0 L1126 457 Q1126 676 1059 774 Q996 868 864 868 Q712 868 628 745 Q553 634 553 446 L553 0 L389 0 L389 1299 L41 1299 L41 1434 L899 1434 L899 1299 Z " />
<glyph glyph-name="uni040C" unicode="&#x40c;" horiz-adv-x="1065" d="M287 1434 L287 684 L291 684 L815 1434 L1004 1434 L576 840 L1024 0 L844 0 L471 694 L287 436 L287 0 L123 0 L123 1434 L287 1434 Z M539 1733 L756 1733 L551 1536 L416 1536 L539 1733 Z " />
<glyph glyph-name="uni040D" unicode="&#x40d;" horiz-adv-x="1126" d="M123 0 L123 1434 L270 1434 L270 367 L274 367 L873 1434 L1004 1434 L1004 0 L857 0 L857 1112 L853 1112 L229 0 L123 0 Z M348 1733 L565 1733 L688 1536 L553 1536 L348 1733 Z " />
<glyph glyph-name="uni040E" unicode="&#x40e;" horiz-adv-x="1065" d="M1024 1434 L623 346 Q540 123 441 42 Q354 -29 213 -29 L123 -29 L123 106 L191 106 Q385 106 451 346 L41 1434 L213 1434 L535 553 L539 553 L852 1434 L1024 1434 Z M666 1712 L778 1712 Q761 1609 687 1558 Q626 1515 537 1515 Q435 1515 371 1572 Q313 1623 295 1712 L408 1712 Q443 1617 537 1617 Q631 1617 666 1712 Z " />
<glyph glyph-name="uni040F" unicode="&#x40f;" horiz-adv-x="1147" d="M287 1434 L287 135 L860 135 L860 1434 L1024 1434 L1024 0 L652 0 L652 -254 L496 -254 L496 0 L123 0 L123 1434 L287 1434 Z " />
<glyph glyph-name="afii10017" unicode="&#x410;" horiz-adv-x="1065" d="M328 438 L205 0 L41 0 L457 1434 L604 1434 L1024 0 L860 0 L737 438 L328 438 Z M365 573 L700 573 L535 1170 L530 1170 L365 573 Z " />
<glyph glyph-name="afii10018" unicode="&#x411;" horiz-adv-x="1044" d="M287 1299 L287 819 L451 819 Q709 819 835 722 Q963 622 963 414 Q963 0 451 0 L123 0 L123 1434 L799 1434 L799 1299 L287 1299 Z M287 684 L287 135 L434 135 Q624 135 706 193 Q799 258 799 414 Q799 592 667 649 Q587 684 412 684 L287 684 Z " />
<glyph glyph-name="afii10019" unicode="&#x412;" horiz-adv-x="1044" d="M707 758 L707 754 Q835 729 903 623 Q963 530 963 393 Q963 180 819 81 Q701 0 496 0 L123 0 L123 1434 L449 1434 Q922 1434 922 1073 Q922 810 707 758 Z M287 135 L455 135 Q645 135 720 190 Q799 249 799 393 Q799 563 693 630 Q608 684 436 684 L287 684 L287 135 Z M287 819 L439 819 Q616 819 687 877 Q758 936 758 1073 Q758 1194 681.5 1246.5 Q605 1299 428 1299 L287 1299 L287 819 Z " />
<glyph glyph-name="afii10020" unicode="&#x413;" horiz-adv-x="840" d="M287 1299 L287 0 L123 0 L123 1434 L799 1434 L799 1299 L287 1299 Z " />
<glyph glyph-name="afii10021" unicode="&#x414;" horiz-adv-x="1323" d="M20 135 L135 135 Q266 220 303 428 Q327 559 327 865 L327 1434 L1187 1434 L1187 135 L1302 135 L1302 -254 L1146 -254 L1146 0 L176 0 L176 -254 L20 -254 L20 135 Z M491 824 Q491 340 345 135 L1023 135 L1023 1299 L491 1299 L491 824 Z " />
<glyph glyph-name="afii10022" unicode="&#x415;" horiz-adv-x="942" d="M123 1434 L840 1434 L840 1299 L287 1299 L287 819 L717 819 L717 684 L287 684 L287 135 L860 135 L860 0 L123 0 L123 1434 Z " />
<glyph glyph-name="afii10024" unicode="&#x416;" horiz-adv-x="1556" d="M860 1434 L860 819 L901 819 L1307 1434 L1495 1434 L1046 754 L1515 0 L1327 0 L901 684 L860 684 L860 0 L696 0 L696 684 L655 684 L229 0 L41 0 L512 754 L61 1434 L249 1434 L655 819 L696 819 L696 1434 L860 1434 Z " />
<glyph glyph-name="afii10025" unicode="&#x417;" horiz-adv-x="1081" d="M735 762 L735 758 Q1000 682 1000 393 Q1000 193 850 73 Q722 -29 533 -29 Q222 -29 82 260 L205 330 Q267 211 344 158.5 Q421 106 533 106 Q677 106 762 194 Q836 272 836 393 Q836 684 500 684 L465 684 L465 819 L498 819 Q795 819 795 1094 Q795 1212 720 1274 Q655 1328 547 1328 Q454 1328 389.5 1290.5 Q325 1253 256 1159 L143 1241 Q305 1463 547 1463 Q737 1463 856 1344 Q959 1241 959 1094 Q959 847 735 762 Z " />
<glyph glyph-name="afii10026" unicode="&#x418;" horiz-adv-x="1126" d="M123 0 L123 1434 L270 1434 L270 367 L274 367 L873 1434 L1004 1434 L1004 0 L857 0 L857 1112 L853 1112 L229 0 L123 0 Z " />
<glyph glyph-name="afii10027" unicode="&#x419;" horiz-adv-x="1126" d="M123 0 L123 1434 L270 1434 L270 367 L274 367 L873 1434 L1004 1434 L1004 0 L857 0 L857 1112 L853 1112 L229 0 L123 0 Z M707 1712 L819 1712 Q802 1609 728 1558 Q667 1515 578 1515 Q476 1515 412 1572 Q354 1623 336 1712 L449 1712 Q484 1617 578 1617 Q672 1617 707 1712 Z " />
<glyph glyph-name="afii10028" unicode="&#x41a;" horiz-adv-x="1065" d="M287 1434 L287 684 L291 684 L815 1434 L1004 1434 L576 840 L1024 0 L844 0 L471 694 L287 436 L287 0 L123 0 L123 1434 L287 1434 Z " />
<glyph glyph-name="afii10029" unicode="&#x41b;" horiz-adv-x="1290" d="M307 865 L307 1434 L1167 1434 L1167 0 L1003 0 L1003 1299 L471 1299 L471 824 Q471 433 380 231 Q299 51 129 -20 L41 104 Q194 173 250.5 335 Q307 497 307 865 Z " />
<glyph glyph-name="afii10030" unicode="&#x41c;" horiz-adv-x="1352" d="M1229 1434 L1229 0 L1082 0 L1082 1155 L1078 1155 L748 0 L615 0 L274 1155 L270 1155 L270 0 L123 0 L123 1434 L342 1434 L678 289 L682 289 L1014 1434 L1229 1434 Z " />
<glyph glyph-name="afii10031" unicode="&#x41d;" horiz-adv-x="1147" d="M287 684 L287 0 L123 0 L123 1434 L287 1434 L287 819 L860 819 L860 1434 L1024 1434 L1024 0 L860 0 L860 684 L287 684 Z " />
<glyph glyph-name="afii10032" unicode="&#x41e;" horiz-adv-x="1147" d="M82 717 Q82 1118 213 1299 Q333 1463 571 1463 Q846 1463 965 1249 Q1065 1068 1065 717 Q1065 305 933 129 Q815 -29 571 -29 Q297 -29 182 178 Q82 356 82 717 Z M246 717 Q246 380 334 235 Q412 106 571 106 Q755 106 833 275 Q901 422 901 717 Q901 1042 812 1192 Q731 1328 571 1328 Q392 1328 313 1151 Q246 1002 246 717 Z " />
<glyph glyph-name="afii10033" unicode="&#x41f;" horiz-adv-x="1147" d="M287 1299 L287 0 L123 0 L123 1434 L1024 1434 L1024 0 L860 0 L860 1299 L287 1299 Z " />
<glyph glyph-name="afii10034" unicode="&#x420;" horiz-adv-x="1044" d="M123 1434 L473 1434 Q963 1434 963 1012 Q963 598 490 598 L287 598 L287 0 L123 0 L123 1434 Z M287 733 L477 733 Q659 733 731 802 Q799 867 799 1012 Q799 1167 719.5 1233 Q640 1299 453 1299 L287 1299 L287 733 Z " />
<glyph glyph-name="afii10035" unicode="&#x421;" horiz-adv-x="1106" d="M873 399 L1024 363 Q972 145 859 54 Q755 -29 571 -29 Q297 -29 182 178 Q82 356 82 717 Q82 1118 213 1299 Q333 1463 571 1463 Q766 1463 871 1362 Q957 1281 1008 1112 L858 1075 Q816 1213 744 1272 Q677 1328 572 1328 Q392 1328 313 1151 Q246 1002 246 717 Q246 380 334 235 Q412 106 572 106 Q699 106 774 188 Q839 259 873 399 Z " />
<glyph glyph-name="afii10036" unicode="&#x422;" horiz-adv-x="942" d="M41 1434 L901 1434 L901 1299 L553 1299 L553 0 L389 0 L389 1299 L41 1299 L41 1434 Z " />
<glyph glyph-name="afii10037" unicode="&#x423;" horiz-adv-x="1065" d="M1024 1434 L623 346 Q540 123 441 42 Q354 -29 213 -29 L123 -29 L123 106 L191 106 Q385 106 451 346 L41 1434 L213 1434 L535 553 L539 553 L852 1434 L1024 1434 Z " />
<glyph glyph-name="afii10038" unicode="&#x424;" horiz-adv-x="1409" d="M787 1434 L787 1207 Q1071 1190 1233 1034 Q1369 902 1369 715 Q1369 493 1194 359 Q1039 240 787 225 L787 0 L623 0 L623 225 Q341 242 182 389 Q41 519 41 715 Q41 929 224 1070 Q384 1194 623 1207 L623 1434 L787 1434 Z M1205 715 Q1205 890 1094 975 Q994 1053 787 1071 L787 363 Q1021 379 1121 478 Q1205 561 1205 715 Z M205 715 Q205 389 623 363 L623 1071 Q392 1050 292 952 Q205 867 205 715 Z " />
<glyph glyph-name="afii10039" unicode="&#x425;" horiz-adv-x="1065" d="M983 1434 L619 752 L1024 0 L848 0 L541 586 L537 586 L217 0 L41 0 L451 746 L82 1434 L258 1434 L533 905 L537 905 L807 1434 L983 1434 Z " />
<glyph glyph-name="afii10040" unicode="&#x426;" horiz-adv-x="1159" d="M287 1434 L287 135 L860 135 L860 1434 L1024 1434 L1024 135 L1139 135 L1139 -254 L983 -254 L983 0 L123 0 L123 1434 L287 1434 Z " />
<glyph glyph-name="afii10041" unicode="&#x427;" horiz-adv-x="1106" d="M983 0 L819 0 L819 602 L815 602 Q754 510 675.5 470 Q597 430 477 430 Q82 430 82 965 L82 1434 L246 1434 L246 998 Q246 780 313 684 Q376 594 508 594 Q661 594 744 713 Q819 821 819 1008 L819 1434 L983 1434 L983 0 Z " />
<glyph glyph-name="afii10042" unicode="&#x428;" horiz-adv-x="1597" d="M881 1434 L881 135 L1311 135 L1311 1434 L1475 1434 L1475 0 L123 0 L123 1434 L287 1434 L287 135 L717 135 L717 1434 L881 1434 Z " />
<glyph glyph-name="afii10043" unicode="&#x429;" horiz-adv-x="1610" d="M881 1434 L881 135 L1311 135 L1311 1434 L1475 1434 L1475 135 L1589 135 L1589 -254 L1433 -254 L1433 0 L123 0 L123 1434 L287 1434 L287 135 L717 135 L717 1434 L881 1434 Z " />
<glyph glyph-name="afii10044" unicode="&#x42a;" horiz-adv-x="1372" d="M471 0 L471 1299 L41 1299 L41 1434 L635 1434 L635 819 L778 819 Q1037 819 1162 722 Q1290 622 1290 414 Q1290 0 778 0 L471 0 Z M635 684 L635 135 L762 135 Q952 135 1033 193 Q1126 258 1126 414 Q1126 592 994 649 Q914 684 740 684 L635 684 Z " />
<glyph glyph-name="afii10045" unicode="&#x42b;" horiz-adv-x="1393" d="M123 0 L123 1434 L287 1434 L287 819 L430 819 Q689 819 814 722 Q942 622 942 414 Q942 0 430 0 L123 0 Z M287 684 L287 135 L414 135 Q604 135 685 193 Q778 258 778 414 Q778 592 646 649 Q566 684 391 684 L287 684 Z M1311 1434 L1311 0 L1147 0 L1147 1434 L1311 1434 Z " />
<glyph glyph-name="afii10046" unicode="&#x42c;" horiz-adv-x="1024" d="M123 0 L123 1434 L287 1434 L287 819 L430 819 Q689 819 814 722 Q942 622 942 414 Q942 0 430 0 L123 0 Z M287 684 L287 135 L414 135 Q604 135 685 193 Q778 258 778 414 Q778 592 646 649 Q566 684 391 684 L287 684 Z " />
<glyph glyph-name="afii10047" unicode="&#x42d;" horiz-adv-x="1106" d="M82 362 L233 399 Q271 240 352 169 Q423 106 534 106 Q712 106 790 266 Q857 405 860 684 L389 684 L389 819 L858 819 Q833 1328 534 1328 Q415 1328 344 1255 Q285 1195 248 1075 L98 1112 Q156 1305 262 1386 Q363 1463 534 1463 Q806 1463 924 1249 Q1024 1067 1024 717 Q1024 305 893 129 Q775 -29 534 -29 Q327 -29 218 80 Q128 171 82 362 Z " />
<glyph glyph-name="afii10048" unicode="&#x42e;" horiz-adv-x="1597" d="M287 1434 L287 819 L535 819 Q550 1164 681 1321 Q800 1463 1022 1463 Q1297 1463 1416 1249 Q1516 1068 1516 717 Q1516 305 1384 129 Q1266 -29 1022 -29 Q753 -29 637 169 Q537 339 533 684 L287 684 L287 0 L123 0 L123 1434 L287 1434 Z M697 717 Q697 380 785 235 Q863 106 1022 106 Q1206 106 1284 275 Q1352 422 1352 717 Q1352 1042 1263 1192 Q1182 1328 1022 1328 Q843 1328 764 1151 Q697 1002 697 717 Z " />
<glyph glyph-name="afii10049" unicode="&#x42f;" horiz-adv-x="1065" d="M592 1434 L943 1434 L943 0 L779 0 L779 598 L568 598 L236 0 L62 0 L404 614 Q103 683 103 1012 Q103 1434 592 1434 Z M588 733 L779 733 L779 1299 L613 1299 Q427 1299 349 1235 Q267 1168 267 1012 Q267 848 356 785 Q429 733 588 733 Z " />
<glyph glyph-name="afii10065" unicode="&#x430;" horiz-adv-x="967" d="M844 0 L733 0 L709 106 L704 106 Q608 -20 414 -20 Q253 -20 161 70 Q82 148 82 271 Q82 380 162 457 Q242 534 414 592 L688 684 L688 702 Q688 818 639 867.5 Q590 917 477 917 Q390 917 332.5 873.5 Q275 830 256 750 L114 778 Q174 1044 477 1044 Q680 1044 766 949 Q844 863 844 684 L844 0 Z M688 344 L688 557 L414 459 Q238 394 238 271 Q238 196 285.5 151.5 Q333 107 414 107 Q543 107 620 179 Q688 243 688 344 Z " />
<glyph glyph-name="afii10066" unicode="&#x431;" horiz-adv-x="950" d="M475 -20 Q82 -20 82 488 Q82 943 186 1144 Q282 1327 479 1327 Q590 1327 638 1348 Q686 1369 725 1434 L852 1377 Q756 1202 510 1202 Q409 1202 352.5 1137 Q296 1072 277 934 L281 934 Q364 1004 475 1004 Q868 1004 868 488 Q868 -20 475 -20 Z M475 107 Q612 107 667 216 Q712 305 712 488 Q712 692 652 786 Q594 877 475 877 Q340 877 283 759 Q238 665 238 488 Q238 279 298 191 Q354 107 475 107 Z " />
<glyph glyph-name="afii10067" unicode="&#x432;" horiz-adv-x="922" d="M791 758 Q791 605 680 545 L680 541 Q755 508 797.5 441 Q840 374 840 291 Q840 134 734 60 Q648 0 498 0 L123 0 L123 1024 L445 1024 Q791 1024 791 758 Z M279 127 L467 127 Q586 127 635 165 Q684 203 684 291 Q684 398 618 439 Q564 473 455 473 L279 473 L279 127 Z M279 600 L435 600 Q545 600 592 638 Q637 675 637 758 Q637 840 574 872 Q526 897 431 897 L279 897 L279 600 Z " />
<glyph glyph-name="afii10068" unicode="&#x433;" horiz-adv-x="696" d="M123 1024 L655 1024 L655 897 L279 897 L279 0 L123 0 L123 1024 Z " />
<glyph glyph-name="afii10069" unicode="&#x434;" horiz-adv-x="1049" d="M921 135 L1028 135 L1028 -233 L881 -233 L881 0 L167 0 L167 -233 L20 -233 L20 135 L87 135 Q225 246 225 594 L225 1024 L921 1024 L921 135 Z M381 897 L381 569 Q381 300 276 135 L765 135 L765 897 L381 897 Z " />
<glyph glyph-name="afii10070" unicode="&#x435;" horiz-adv-x="971" d="M496 107 Q680 107 735 295 L875 270 Q833 111 737 43 Q649 -20 496 -20 Q274 -20 169 141 Q82 274 82 508 Q82 780 199 919 Q305 1044 496 1044 Q703 1044 803 876 Q889 730 889 467 L238 467 Q246 276 311 190 Q374 107 496 107 Z M242 594 L729 594 Q718 747 659 831 Q599 917 496 917 Q265 917 242 594 Z " />
<glyph glyph-name="afii10072" unicode="&#x436;" horiz-adv-x="1278" d="M717 1024 L717 614 L737 614 L1026 1024 L1202 1024 L867 549 L1233 0 L1057 0 L737 479 L717 479 L717 0 L561 0 L561 479 L540 479 L221 0 L45 0 L414 549 L71 1024 L248 1024 L540 614 L561 614 L561 1024 L717 1024 Z " />
<glyph glyph-name="afii10073" unicode="&#x437;" horiz-adv-x="848" d="M610 293 Q610 479 395 479 L354 479 L354 604 L393 604 Q581 604 581 776 Q581 842 540 879.5 Q499 917 426 917 Q360 917 318 890 Q276 863 235 795 L123 874 Q193 970 259 1006 Q327 1044 426 1044 Q565 1044 657 957 Q737 881 737 776 Q737 628 594 551 L594 547 Q766 481 766 293 Q766 144 665 58 Q573 -20 426 -20 Q180 -20 82 205 L200 274 Q249 181 299 144 Q349 107 426 107 Q514 107 562 155.5 Q610 204 610 293 Z " />
<glyph glyph-name="afii10074" unicode="&#x438;" horiz-adv-x="963" d="M688 0 L688 733 L684 733 L259 0 L123 0 L123 1024 L275 1024 L275 291 L279 291 L704 1024 L840 1024 L840 0 L688 0 Z " />
<glyph glyph-name="afii10075" unicode="&#x439;" horiz-adv-x="963" d="M688 0 L688 733 L684 733 L259 0 L123 0 L123 1024 L275 1024 L275 291 L279 291 L704 1024 L840 1024 L840 0 L688 0 Z M617 1352 L729 1352 Q712 1249 638 1198 Q577 1155 488 1155 Q386 1155 322 1212 Q264 1263 246 1352 L359 1352 Q394 1257 488 1257 Q582 1257 617 1352 Z " />
<glyph glyph-name="afii10076" unicode="&#x43a;" horiz-adv-x="901" d="M279 1024 L279 510 L283 510 L644 1024 L820 1024 L541 643 L861 0 L689 0 L443 504 L439 504 L279 285 L279 0 L123 0 L123 1024 L279 1024 Z " />
<glyph glyph-name="afii10077" unicode="&#x43b;" horiz-adv-x="1085" d="M402 897 L402 569 Q402 329 316 168 Q240 27 115 -20 L41 94 Q148 138 197 257.5 Q246 377 246 594 L246 1024 L963 1024 L963 0 L807 0 L807 897 L402 897 Z " />
<glyph glyph-name="afii10078" unicode="&#x43c;" horiz-adv-x="1126" d="M1004 1024 L1004 0 L852 0 L852 707 L848 707 L613 0 L516 0 L279 705 L275 705 L275 0 L123 0 L123 1024 L306 1024 L561 268 L566 268 L819 1024 L1004 1024 Z " />
<glyph glyph-name="afii10079" unicode="&#x43d;" horiz-adv-x="983" d="M279 487 L279 0 L123 0 L123 1024 L279 1024 L279 614 L704 614 L704 1024 L860 1024 L860 0 L704 0 L704 487 L279 487 Z " />
<glyph glyph-name="afii10080" unicode="&#x43e;" horiz-adv-x="950" d="M475 -20 Q266 -20 165 141 Q82 275 82 508 Q82 781 193 919 Q293 1044 475 1044 Q682 1044 783 882 Q868 746 868 508 Q868 240 759 104 Q658 -20 475 -20 Z M475 107 Q611 107 667 227 Q712 323 712 508 Q712 917 475 917 Q238 917 238 508 Q238 296 298 200 Q355 107 475 107 Z " />
<glyph glyph-name="afii10081" unicode="&#x43f;" horiz-adv-x="983" d="M279 897 L279 0 L123 0 L123 1024 L860 1024 L860 0 L704 0 L704 897 L279 897 Z " />
<glyph glyph-name="afii10082" unicode="&#x440;" horiz-adv-x="975" d="M234 1024 L258 918 L263 918 Q298 976 368 1010 Q438 1044 525 1044 Q893 1044 893 516 Q893 254 800 117 Q707 -21 525 -21 Q358 -21 283 106 L279 106 L279 -369 L123 -369 L123 1024 L234 1024 Z M279 745 L279 422 Q279 279 351 187 Q415 106 504 106 Q639 106 693 223 Q737 317 737 507 Q737 726 679 823 Q623 917 504 917 Q432 917 370.5 870 Q309 823 279 745 Z " />
<glyph glyph-name="afii10083" unicode="&#x441;" horiz-adv-x="885" d="M684 295 L823 270 Q781 110 696 43 Q615 -20 475 -20 Q266 -20 165 141 Q82 275 82 508 Q82 781 193 919 Q294 1044 475 1044 Q631 1044 719 956 Q789 886 823 750 L682 725 Q640 917 475 917 Q238 917 238 508 Q238 296 298 200 Q355 107 475 107 Q558 107 606 150.5 Q654 194 684 295 Z " />
<glyph glyph-name="afii10084" unicode="&#x442;" horiz-adv-x="778" d="M41 1024 L737 1024 L737 897 L467 897 L467 0 L311 0 L311 897 L41 897 L41 1024 Z " />
<glyph glyph-name="afii10085" unicode="&#x443;" horiz-adv-x="938" d="M876 1024 L546 0 Q477 -201 403 -282 Q324 -369 204 -369 L122 -369 L122 -242 L183 -242 Q324 -242 390 0 L61 1024 L220 1024 L466 209 L470 209 L716 1024 L876 1024 Z " />
<glyph glyph-name="afii10086" unicode="&#x444;" horiz-adv-x="1548" d="M696 946 L696 1434 L852 1434 L852 946 L856 946 Q939 1045 1098 1045 Q1466 1045 1466 516 Q1466 254 1373 117 Q1280 -21 1098 -21 Q931 -21 856 106 L852 106 L852 -369 L696 -369 L696 106 L692 106 Q617 -21 450 -21 Q244 -21 152 156 Q82 290 82 516 Q82 1045 450 1045 Q609 1045 692 946 L696 946 Z M852 745 L852 422 Q852 279 924 187 Q988 106 1077 106 Q1212 106 1266 223 Q1310 318 1310 508 Q1310 727 1252 824 Q1196 918 1077 918 Q1005 918 943.5 871 Q882 824 852 745 Z M696 422 L696 745 Q666 824 604.5 871 Q543 918 471 918 Q336 918 282 796 Q238 699 238 508 Q238 290 296 196 Q352 106 471 106 Q574 106 640 209 Q696 298 696 422 Z " />
<glyph glyph-name="afii10087" unicode="&#x445;" horiz-adv-x="901" d="M796 1024 L528 532 L839 0 L675 0 L448 397 L444 397 L225 0 L61 0 L362 532 L73 1024 L237 1024 L444 649 L448 649 L632 1024 L796 1024 Z " />
<glyph glyph-name="afii10088" unicode="&#x446;" horiz-adv-x="967" d="M279 1024 L279 127 L684 127 L684 1024 L840 1024 L840 135 L946 135 L946 -254 L799 -254 L799 0 L123 0 L123 1024 L279 1024 Z " />
<glyph glyph-name="afii10089" unicode="&#x447;" horiz-adv-x="860" d="M737 0 L581 0 L581 422 L577 422 Q549 385 495.5 362.5 Q442 340 385 340 Q225 340 146 448 Q82 536 82 680 L82 1024 L238 1024 L238 692 Q238 580 278 528.5 Q318 477 405 477 Q581 477 581 698 L581 1024 L737 1024 L737 0 Z " />
<glyph glyph-name="afii10090" unicode="&#x448;" horiz-adv-x="1360" d="M758 1024 L758 127 L1081 127 L1081 1024 L1237 1024 L1237 0 L123 0 L123 1024 L279 1024 L279 127 L602 127 L602 1024 L758 1024 Z " />
<glyph glyph-name="afii10091" unicode="&#x449;" horiz-adv-x="1364" d="M758 1024 L758 127 L1081 127 L1081 1024 L1237 1024 L1237 135 L1344 135 L1344 -254 L1197 -254 L1197 0 L123 0 L123 1024 L279 1024 L279 127 L602 127 L602 1024 L758 1024 Z " />
<glyph glyph-name="afii10092" unicode="&#x44a;" horiz-adv-x="1114" d="M41 1024 L533 1024 L533 614 L584 614 Q814 614 917 550 Q1033 476 1033 305 Q1033 138 936 69 Q839 0 605 0 L377 0 L377 897 L41 897 L41 1024 Z M533 487 L533 127 L615 127 Q765 127 818 162 Q877 201 877 305 Q877 405 813 446 Q749 487 595 487 L533 487 Z " />
<glyph glyph-name="afii10093" unicode="&#x44b;" horiz-adv-x="1262" d="M1139 1024 L1139 0 L983 0 L983 1024 L1139 1024 Z M123 0 L123 1024 L279 1024 L279 614 L330 614 Q560 614 663 550 Q779 476 779 305 Q779 138 682 69 Q585 0 351 0 L123 0 Z M279 487 L279 127 L361 127 Q511 127 564 162 Q623 201 623 305 Q623 405 559 446 Q495 487 340 487 L279 487 Z " />
<glyph glyph-name="afii10094" unicode="&#x44c;" horiz-adv-x="860" d="M123 0 L123 1024 L279 1024 L279 614 L330 614 Q560 614 663 550 Q779 476 779 305 Q779 138 682 69 Q585 0 351 0 L123 0 Z M279 487 L279 127 L361 127 Q511 127 564 162 Q623 201 623 305 Q623 405 559 446 Q495 487 340 487 L279 487 Z " />
<glyph glyph-name="afii10095" unicode="&#x44d;" horiz-adv-x="885" d="M644 440 L331 440 L331 567 L646 567 Q629 917 409 917 Q244 917 202 725 L61 749 Q100 905 188 976 Q272 1044 409 1044 Q616 1044 717 882 Q802 745 802 508 Q802 240 693 104 Q592 -20 409 -20 Q250 -20 167 62 Q98 130 61 270 L200 295 Q230 194 278 150.5 Q326 107 409 107 Q533 107 591 206 Q637 286 644 440 Z " />
<glyph glyph-name="afii10096" unicode="&#x44e;" horiz-adv-x="1360" d="M885 -20 Q691 -20 590 118 Q506 233 494 436 L279 436 L279 0 L123 0 L123 1024 L279 1024 L279 563 L492 563 Q504 809 614 932 Q713 1044 885 1044 Q1092 1044 1193 882 Q1278 745 1278 508 Q1278 240 1169 104 Q1068 -20 885 -20 Z M885 107 Q1021 107 1077 227 Q1122 323 1122 508 Q1122 917 885 917 Q648 917 648 508 Q648 296 708 200 Q765 107 885 107 Z " />
<glyph glyph-name="afii10097" unicode="&#x44f;" horiz-adv-x="868" d="M444 1024 L746 1024 L746 0 L590 0 L590 412 L434 412 L215 0 L41 0 L279 430 Q78 492 78 717 Q78 1024 444 1024 Z M436 539 L590 539 L590 897 L459 897 Q340 897 287 856 Q232 813 232 717 Q232 624 280.5 581.5 Q329 539 436 539 Z " />
<glyph glyph-name="uni0450" unicode="&#x450;" horiz-adv-x="971" d="M496 107 Q680 107 735 295 L875 270 Q833 111 737 43 Q649 -20 496 -20 Q274 -20 169 141 Q82 274 82 508 Q82 780 199 919 Q305 1044 496 1044 Q703 1044 803 876 Q889 730 889 467 L238 467 Q246 276 311 190 Q374 107 496 107 Z M242 594 L729 594 Q718 747 659 831 Q599 917 496 917 Q265 917 242 594 Z M266 1372 L483 1372 L606 1176 L471 1176 L266 1372 Z " />
<glyph glyph-name="afii10071" unicode="&#x451;" horiz-adv-x="971" d="M496 107 Q680 107 735 295 L875 270 Q833 111 737 43 Q649 -20 496 -20 Q274 -20 169 141 Q82 274 82 508 Q82 780 199 919 Q305 1044 496 1044 Q703 1044 803 876 Q889 730 889 467 L238 467 Q246 276 311 190 Q374 107 496 107 Z M242 594 L729 594 Q718 747 659 831 Q599 917 496 917 Q265 917 242 594 Z M420 1372 L420 1196 L264 1196 L264 1372 L420 1372 Z M727 1372 L727 1196 L571 1196 L571 1372 L727 1372 Z " />
<glyph glyph-name="uni0452" unicode="&#x452;" horiz-adv-x="975" d="M696 508 L696 623 Q696 757 664 818 Q624 897 524 897 Q447 897 378.5 849 Q310 801 279 725 L279 0 L123 0 L123 1147 L0 1147 L0 1270 L123 1270 L123 1434 L279 1434 L279 1270 L512 1270 L512 1147 L279 1147 L279 897 L283 897 Q319 957 389 990.5 Q459 1024 547 1024 Q718 1024 795 887 Q852 786 852 623 L852 508 Q852 189 756 -21 Q672 -205 477 -397 L385 -291 Q564 -113 633 77 Q696 251 696 508 Z " />
<glyph glyph-name="uni0453" unicode="&#x453;" horiz-adv-x="696" d="M123 1024 L655 1024 L655 897 L279 897 L279 0 L123 0 L123 1024 Z M410 1372 L627 1372 L422 1176 L287 1176 L410 1372 Z " />
<glyph glyph-name="uni0454" unicode="&#x454;" horiz-adv-x="885" d="M553 440 L240 440 Q248 264 308 184 Q366 107 475 107 Q558 107 606 150.5 Q654 194 684 295 L823 270 Q781 110 696 43 Q615 -20 475 -20 Q266 -20 165 141 Q82 274 82 508 Q82 781 193 919 Q294 1044 475 1044 Q631 1044 719 956 Q789 885 823 749 L682 725 Q640 917 475 917 Q255 917 238 567 L553 567 L553 440 Z " />
<glyph glyph-name="uni0455" unicode="&#x455;" horiz-adv-x="815" d="M737 854 L623 766 Q532 909 404 909 Q323 909 277 866 Q236 828 236 768 Q236 718 276.5 685 Q317 652 437 603 Q600 537 662 480 Q754 396 754 269 Q754 126 649 47 Q561 -20 424 -20 Q298 -20 192 43 Q98 99 41 193 L156 279 Q264 115 424 115 Q511 115 559 162 Q600 203 600 268 Q600 328 555.5 367 Q511 406 380 462 Q226 528 168 579 Q84 655 84 768 Q84 900 186 977 Q274 1044 403 1044 Q507 1044 584.5 1000 Q662 956 737 854 Z " />
<glyph glyph-name="uni0456" unicode="&#x456;" horiz-adv-x="401" d="M279 1024 L279 0 L123 0 L123 1024 L279 1024 Z M279 1372 L279 1196 L123 1196 L123 1372 L279 1372 Z " />
<glyph glyph-name="uni0457" unicode="&#x457;" horiz-adv-x="401" d="M279 1024 L279 0 L123 0 L123 1024 L279 1024 Z M136 1372 L136 1196 L-20 1196 L-20 1372 L136 1372 Z M443 1372 L443 1196 L287 1196 L287 1372 L443 1372 Z " />
<glyph glyph-name="uni0458" unicode="&#x458;" horiz-adv-x="442" d="M319 1024 L319 -94 Q319 -243 258 -307 Q200 -369 73 -369 L20 -369 L20 -242 L73 -242 Q122 -242 142.5 -199.5 Q163 -157 163 -55 L163 1024 L319 1024 Z M319 1372 L319 1196 L163 1196 L163 1372 L319 1372 Z " />
<glyph glyph-name="uni0459" unicode="&#x459;" horiz-adv-x="1524" d="M787 897 L382 897 L382 569 Q382 329 296 168 Q220 27 95 -20 L21 94 Q128 138 177 257.5 Q226 377 226 594 L226 1024 L943 1024 L943 614 L994 614 Q1224 614 1327 550 Q1443 476 1443 305 Q1443 138 1346 69 Q1249 0 1014 0 L787 0 L787 897 Z M943 487 L943 127 L1025 127 Q1175 127 1228 162 Q1287 201 1287 305 Q1287 405 1223 446 Q1159 487 1004 487 L943 487 Z " />
<glyph glyph-name="uni045A" unicode="&#x45a;" horiz-adv-x="1442" d="M279 487 L279 0 L123 0 L123 1024 L279 1024 L279 614 L705 614 L705 1024 L861 1024 L861 614 L912 614 Q1142 614 1245 549 Q1361 476 1361 305 Q1361 138 1264 69 Q1167 0 933 0 L705 0 L705 487 L279 487 Z M861 487 L861 127 L943 127 Q1093 127 1146 162 Q1205 201 1205 305 Q1205 404 1141 445.5 Q1077 487 922 487 L861 487 Z " />
<glyph glyph-name="uni045B" unicode="&#x45b;" horiz-adv-x="975" d="M279 1434 L279 1270 L512 1270 L512 1147 L279 1147 L279 897 L283 897 Q319 957 389 990.5 Q459 1024 547 1024 Q852 1024 852 664 L852 0 L696 0 L696 664 Q696 788 664 837 Q625 897 524 897 Q447 897 378.5 849 Q310 801 279 725 L279 0 L123 0 L123 1147 L0 1147 L0 1270 L123 1270 L123 1434 L279 1434 Z " />
<glyph glyph-name="uni045C" unicode="&#x45c;" horiz-adv-x="901" d="M279 1024 L279 510 L283 510 L644 1024 L820 1024 L541 643 L861 0 L689 0 L443 504 L439 504 L279 285 L279 0 L123 0 L123 1024 L279 1024 Z M463 1372 L680 1372 L475 1176 L340 1176 L463 1372 Z " />
<glyph glyph-name="uni045D" unicode="&#x45d;" horiz-adv-x="963" d="M688 0 L688 733 L684 733 L259 0 L123 0 L123 1024 L275 1024 L275 291 L279 291 L704 1024 L840 1024 L840 0 L688 0 Z M273 1372 L490 1372 L613 1176 L478 1176 L273 1372 Z " />
<glyph glyph-name="uni045E" unicode="&#x45e;" horiz-adv-x="938" d="M876 1024 L546 0 Q477 -201 403 -282 Q324 -369 204 -369 L122 -369 L122 -242 L183 -242 Q324 -242 390 0 L61 1024 L220 1024 L466 209 L470 209 L716 1024 L876 1024 Z M598 1352 L710 1352 Q693 1249 619 1198 Q558 1155 469 1155 Q367 1155 303 1212 Q245 1263 227 1352 L340 1352 Q375 1257 469 1257 Q563 1257 598 1352 Z " />
<glyph glyph-name="uni045F" unicode="&#x45f;" horiz-adv-x="983" d="M279 1024 L279 127 L704 127 L704 1024 L860 1024 L860 0 L565 0 L565 -254 L418 -254 L418 0 L123 0 L123 1024 L279 1024 Z " />
<glyph glyph-name="afii10050" unicode="&#x490;" horiz-adv-x="881" d="M287 1299 L287 0 L123 0 L123 1434 L684 1434 L684 1667 L840 1667 L840 1299 L287 1299 Z " />
<glyph glyph-name="afii10098" unicode="&#x491;" horiz-adv-x="737" d="M549 1266 L696 1266 L696 897 L279 897 L279 0 L123 0 L123 1024 L549 1024 L549 1266 Z " />
<glyph glyph-name="uni0492" unicode="&#x492;" horiz-adv-x="1004" d="M41 643 L41 778 L246 778 L246 1434 L963 1434 L963 1299 L410 1299 L410 778 L655 778 L655 643 L410 643 L410 0 L246 0 L246 643 L41 643 Z " />
<glyph glyph-name="uni0493" unicode="&#x493;" horiz-adv-x="758" d="M545 446 L361 446 L361 0 L205 0 L205 446 L41 446 L41 573 L205 573 L205 1024 L717 1024 L717 897 L361 897 L361 573 L545 573 L545 446 Z " />
<glyph glyph-name="uni0496" unicode="&#x496;" horiz-adv-x="1556" d="M1432 135 L1516 135 L1516 -254 L1360 -254 L1360 0 L1327 0 L901 684 L860 684 L860 0 L696 0 L696 684 L655 684 L229 0 L41 0 L512 754 L61 1434 L249 1434 L655 819 L696 819 L696 1434 L860 1434 L860 819 L901 819 L1307 1434 L1495 1434 L1046 754 L1432 135 Z " />
<glyph glyph-name="uni0497" unicode="&#x497;" horiz-adv-x="1270" d="M1139 135 L1229 135 L1229 -254 L1082 -254 L1082 0 L1053 0 L733 479 L713 479 L713 0 L557 0 L557 479 L536 479 L217 0 L41 0 L410 549 L67 1024 L244 1024 L536 614 L557 614 L557 1024 L713 1024 L713 614 L733 614 L1023 1024 L1198 1024 L863 549 L1139 135 Z " />
<glyph glyph-name="uni049A" unicode="&#x49a;" horiz-adv-x="1065" d="M287 1434 L287 684 L291 684 L815 1434 L1004 1434 L575 840 L950 135 L1024 135 L1024 -254 L868 -254 L868 0 L843 0 L471 694 L287 436 L287 0 L123 0 L123 1434 L287 1434 Z " />
<glyph glyph-name="uni049B" unicode="&#x49b;" horiz-adv-x="901" d="M279 1024 L279 510 L283 510 L643 1024 L819 1024 L541 643 L793 135 L860 135 L860 -254 L713 -254 L713 0 L688 0 L443 504 L439 504 L279 285 L279 0 L123 0 L123 1024 L279 1024 Z " />
<glyph glyph-name="uni04A2" unicode="&#x4a2;" horiz-adv-x="1159" d="M287 684 L287 0 L123 0 L123 1434 L287 1434 L287 819 L860 819 L860 1434 L1024 1434 L1024 135 L1139 135 L1139 -254 L983 -254 L983 0 L860 0 L860 684 L287 684 Z " />
<glyph glyph-name="uni04A3" unicode="&#x4a3;" horiz-adv-x="987" d="M279 487 L279 0 L123 0 L123 1024 L279 1024 L279 614 L704 614 L704 1024 L860 1024 L860 135 L967 135 L967 -254 L820 -254 L820 0 L704 0 L704 487 L279 487 Z " />
<glyph glyph-name="uni04AE" unicode="&#x4ae;" horiz-adv-x="1065" d="M1024 1434 L617 606 L617 0 L453 0 L453 606 L41 1434 L213 1434 L535 758 L539 758 L852 1434 L1024 1434 Z " />
<glyph glyph-name="uni04AF" unicode="&#x4af;" horiz-adv-x="975" d="M934 1024 L568 135 L568 -369 L412 -369 L412 135 L41 1024 L209 1024 L490 307 L494 307 L766 1024 L934 1024 Z " />
<glyph glyph-name="uni04B0" unicode="&#x4b0;" horiz-adv-x="1065" d="M125 471 L125 606 L453 606 L41 1434 L213 1434 L535 758 L539 758 L852 1434 L1024 1434 L617 606 L944 606 L944 471 L617 471 L617 0 L453 0 L453 471 L125 471 Z " />
<glyph glyph-name="uni04B1" unicode="&#x4b1;" horiz-adv-x="975" d="M125 0 L125 127 L412 127 L412 135 L41 1024 L209 1024 L490 307 L494 307 L766 1024 L934 1024 L568 135 L568 127 L854 127 L854 0 L568 0 L568 -369 L412 -369 L412 0 L125 0 Z " />
<glyph glyph-name="uni04B2" unicode="&#x4b2;" horiz-adv-x="1065" d="M983 1434 L618 752 L950 135 L1024 135 L1024 -254 L868 -254 L868 0 L848 0 L540 586 L536 586 L217 0 L41 0 L450 746 L82 1434 L258 1434 L532 905 L536 905 L807 1434 L983 1434 Z " />
<glyph glyph-name="uni04B3" unicode="&#x4b3;" horiz-adv-x="901" d="M797 1024 L529 532 L760 135 L840 135 L840 -254 L693 -254 L693 0 L676 0 L449 397 L445 397 L226 0 L62 0 L363 532 L74 1024 L238 1024 L445 649 L449 649 L633 1024 L797 1024 Z " />
<glyph glyph-name="uni04B6" unicode="&#x4b6;" horiz-adv-x="1118" d="M942 -254 L942 0 L819 0 L819 623 L815 623 Q747 519 697 485 Q615 430 477 430 Q82 430 82 965 L82 1434 L246 1434 L246 998 Q246 780 313 684 Q376 594 508 594 Q661 594 744 713 Q819 821 819 1008 L819 1434 L983 1434 L983 135 L1098 135 L1098 -254 L942 -254 Z " />
<glyph glyph-name="uni04B7" unicode="&#x4b7;" horiz-adv-x="864" d="M697 -254 L697 0 L581 0 L581 422 L577 422 Q549 385 495.5 362.5 Q442 340 385 340 Q225 340 146 448 Q82 536 82 680 L82 1024 L238 1024 L238 692 Q238 580 278 528.5 Q318 477 405 477 Q581 477 581 698 L581 1024 L737 1024 L737 135 L844 135 L844 -254 L697 -254 Z " />
<glyph glyph-name="uni04BA" unicode="&#x4ba;" horiz-adv-x="1147" d="M123 1434 L287 1434 L287 872 L291 872 Q352 965 430.5 1005 Q509 1045 629 1045 Q1024 1045 1024 510 L1024 0 L860 0 L860 477 Q860 695 793 791 Q730 881 598 881 Q445 881 362 762 Q287 654 287 467 L287 0 L123 0 L123 1434 Z " />
<glyph glyph-name="uni04BB" unicode="&#x4bb;" horiz-adv-x="901" d="M123 1024 L279 1024 L279 602 L283 602 Q311 639 364.5 661.5 Q418 684 475 684 Q635 684 714 576 Q778 488 778 344 L778 0 L622 0 L622 332 Q622 444 582 495.5 Q542 547 455 547 Q279 547 279 326 L279 0 L123 0 L123 1024 Z " />
<glyph glyph-name="uni04C0" unicode="&#x4c0;" horiz-adv-x="410" d="M287 1434 L287 0 L123 0 L123 1434 L287 1434 Z " />
<glyph glyph-name="uni04C1" unicode="&#x4c1;" horiz-adv-x="1556" d="M860 1434 L860 819 L901 819 L1307 1434 L1495 1434 L1046 754 L1515 0 L1327 0 L901 684 L860 684 L860 0 L696 0 L696 684 L655 684 L229 0 L41 0 L512 754 L61 1434 L249 1434 L655 819 L696 819 L696 1434 L860 1434 Z M909 1712 L1022 1712 Q1004 1609 931 1558 Q870 1515 780 1515 Q679 1515 615 1572 Q557 1623 539 1712 L651 1712 Q687 1617 780 1617 Q875 1617 909 1712 Z " />
<glyph glyph-name="uni04C2" unicode="&#x4c2;" horiz-adv-x="1270" d="M713 1024 L713 614 L733 614 L1022 1024 L1198 1024 L863 549 L1229 0 L1053 0 L733 479 L713 479 L713 0 L557 0 L557 479 L536 479 L217 0 L41 0 L410 549 L67 1024 L244 1024 L536 614 L557 614 L557 1024 L713 1024 Z M764 1352 L877 1352 Q859 1249 786 1198 Q724 1155 635 1155 Q533 1155 469 1212 Q412 1263 393 1352 L506 1352 Q542 1257 635 1257 Q729 1257 764 1352 Z " />
<glyph glyph-name="uni04CF" unicode="&#x4cf;" horiz-adv-x="410" d="M287 1434 L287 0 L123 0 L123 1434 L287 1434 Z " />
<glyph glyph-name="uni04D8" unicode="&#x4d8;" horiz-adv-x="1188" d="M580 1328 Q451 1328 376 1252 Q314 1189 266 1053 Q123 1082 111 1082 Q185 1299 279 1377 Q383 1463 580 1463 Q882 1463 1008 1237 Q1106 1060 1106 723 Q1106 332 969 147 Q839 -29 580 -29 Q305 -29 185 204 Q86 395 82 762 L942 762 Q928 1070 846 1197 Q762 1328 580 1328 Z M940 621 L248 621 Q267 369 341 244 Q424 106 580 106 Q781 106 867 282 Q923 398 940 621 Z " />
<glyph glyph-name="uni04D9" unicode="&#x4d9;" horiz-adv-x="971" d="M475 917 Q291 917 236 729 L96 754 Q138 913 234 981 Q322 1044 475 1044 Q697 1044 802 883 Q889 750 889 516 Q889 244 772 105 Q666 -20 475 -20 Q268 -20 168 148 Q82 294 82 557 L733 557 Q725 748 660 834 Q597 917 475 917 Z M729 430 L242 430 Q253 277 312 193 Q372 107 475 107 Q706 107 729 430 Z " />
<glyph glyph-name="uni04E2" unicode="&#x4e2;" horiz-adv-x="1126" d="M123 0 L123 1434 L270 1434 L270 367 L274 367 L873 1434 L1004 1434 L1004 0 L857 0 L857 1112 L853 1112 L229 0 L123 0 Z M318 1556 L318 1671 L822 1671 L822 1556 L318 1556 Z " />
<glyph glyph-name="uni04E3" unicode="&#x4e3;" horiz-adv-x="963" d="M688 0 L688 733 L684 733 L259 0 L123 0 L123 1024 L275 1024 L275 291 L279 291 L704 1024 L840 1024 L840 0 L688 0 Z M246 1212 L246 1327 L750 1327 L750 1212 L246 1212 Z " />
<glyph glyph-name="uni04E8" unicode="&#x4e8;" horiz-adv-x="1147" d="M82 717 Q82 1118 213 1299 Q333 1463 571 1463 Q846 1463 965 1249 Q1065 1068 1065 717 Q1065 305 933 129 Q815 -29 571 -29 Q297 -29 182 178 Q82 356 82 717 Z M571 106 Q749 106 828 265 Q897 403 901 680 L246 680 Q251 363 338 227 Q416 106 571 106 Z M571 1328 Q273 1328 248 823 L897 823 Q872 1328 571 1328 Z " />
<glyph glyph-name="uni04E9" unicode="&#x4e9;" horiz-adv-x="950" d="M475 -20 Q266 -20 165 141 Q82 275 82 508 Q82 781 193 919 Q293 1044 475 1044 Q682 1044 783 882 Q868 746 868 508 Q868 240 759 104 Q658 -20 475 -20 Z M475 917 Q251 917 238 553 L711 553 Q700 917 475 917 Z M475 107 Q595 107 652 200 Q698 275 709 418 L240 418 Q262 107 475 107 Z " />
<glyph glyph-name="uni04EE" unicode="&#x4ee;" horiz-adv-x="1065" d="M1024 1434 L623 346 Q540 123 441 42 Q354 -29 213 -29 L123 -29 L123 106 L191 106 Q385 106 451 346 L41 1434 L213 1434 L535 553 L539 553 L852 1434 L1024 1434 Z M285 1556 L285 1671 L789 1671 L789 1556 L285 1556 Z " />
<glyph glyph-name="uni04EF" unicode="&#x4ef;" horiz-adv-x="938" d="M876 1024 L546 0 Q477 -201 403 -282 Q324 -369 204 -369 L122 -369 L122 -242 L183 -242 Q324 -242 390 0 L61 1024 L220 1024 L466 209 L470 209 L716 1024 L876 1024 Z M217 1212 L217 1327 L721 1327 L721 1212 L217 1212 Z " />
<glyph glyph-name="uni2011" unicode="&#x2011;" horiz-adv-x="696" d="M102 528 L102 684 L594 684 L594 528 L102 528 Z " />
<glyph glyph-name="figuredash" unicode="&#x2012;" horiz-adv-x="1024" d="M102 631 L102 766 L921 766 L921 631 L102 631 Z " />
<glyph glyph-name="afii00208" unicode="&#x2015;" horiz-adv-x="1536" d="M102 631 L102 766 L1433 766 L1433 631 L102 631 Z " />
<glyph glyph-name="uni20BD" unicode="&#x20bd;" horiz-adv-x="1106" d="M41 442 L205 442 L205 598 L41 598 L41 733 L205 733 L205 1434 L555 1434 Q1045 1434 1045 1012 Q1045 598 572 598 L369 598 L369 442 L834 442 L834 307 L369 307 L369 0 L205 0 L205 307 L41 307 L41 442 Z M369 733 L560 733 Q741 733 813 802 Q881 867 881 1012 Q881 1167 801.5 1233 Q722 1299 535 1299 L369 1299 L369 733 Z " />
<glyph glyph-name="afii61352" unicode="&#x2116;" horiz-adv-x="2077" d="M1249 135 L1954 135 L1954 0 L1249 0 L1249 135 Z M1003 1434 L1003 0 L897 0 L274 1112 L270 1112 L270 0 L123 0 L123 1434 L254 1434 L852 367 L856 367 L856 1434 L1003 1434 Z M1602 260 Q1392 260 1292 421 Q1208 555 1208 788 Q1208 1062 1319 1200 Q1420 1325 1602 1325 Q1809 1325 1910 1163 Q1995 1026 1995 788 Q1995 520 1886 384 Q1785 260 1602 260 Z M1602 387 Q1738 387 1794 507 Q1839 603 1839 788 Q1839 1198 1602 1198 Q1364 1198 1364 788 Q1364 576 1424 480 Q1481 387 1602 387 Z " />
<glyph glyph-name="minus" unicode="&#x2212;" horiz-adv-x="1106" d="M102 631 L102 766 L1003 766 L1003 631 L102 631 Z " />
<glyph glyph-name="fraction014" unicode="&#x2215;" horiz-adv-x="922" d="M922 1434 L143 -29 L0 -29 L778 1434 L922 1434 Z " />
<glyph glyph-name="dotmath" unicode="&#x22c5;" horiz-adv-x="565" d="M361 819 L361 643 L205 643 L205 819 L361 819 Z " />
<glyph glyph-name="uniE001" unicode="&#xe001;" horiz-adv-x="586" d="M123 -328 L157 -266 Q223 -319 299 -319 Q342 -319 370.5 -297 Q399 -275 399 -242 Q399 -209 370 -186.5 Q341 -164 299 -164 Q260 -164 237 -180 L215 -168 L322 16 Q249 43 216.5 111 Q184 179 184 305 L184 897 L41 897 L41 1024 L184 1024 L213 1327 L340 1327 L340 1024 L504 1024 L504 897 L340 897 L340 307 Q340 201 361 166 Q384 127 451 127 L524 127 L524 0 L436 0 Q408 0 395 2 L340 -94 L342 -96 Q358 -92 375 -92 Q430 -92 475 -139 Q520 -186 520 -243 Q520 -397 305 -397 Q192 -397 123 -328 Z " />
<glyph glyph-name="uniE002" unicode="&#xe002;" horiz-adv-x="655" d="M244 1358 L317 1358 Q424 1358 424 1268 Q424 1205 379 1186 L438 1081 L371 1081 L315 1176 L301 1176 L301 1081 L244 1081 L244 1358 Z M301 1235 L319 1235 Q363 1235 363 1268 Q363 1299 315 1299 L301 1299 L301 1235 Z M82 1217 Q82 1326 163 1399 Q234 1463 328 1463 Q437 1463 510 1382 Q574 1311 574 1217 Q574 1108 493 1035 Q422 971 328 971 Q219 971 146 1052 Q82 1123 82 1217 Z M139 1217 Q139 1133 201 1077 Q255 1028 328 1028 Q412 1028 468 1090 Q517 1144 517 1217 Q517 1301 455 1357 Q401 1406 328 1406 Q244 1406 188 1344 Q139 1290 139 1217 Z " />
<glyph glyph-name="uniE003" unicode="&#xe003;" horiz-adv-x="655" d="M41 1434 L247 1434 L247 1381 L176 1381 L176 1133 L113 1133 L113 1381 L41 1381 L41 1434 Z M430 1248 L434 1248 L501 1434 L573 1434 L573 1133 L516 1133 L516 1301 L512 1301 L454 1133 L407 1133 L348 1301 L344 1301 L344 1133 L287 1133 L287 1434 L362 1434 L430 1248 Z " />
<glyph glyph-name="uniE004" unicode="&#xe004;" horiz-adv-x="8319" d="M287 684 L287 0 L123 0 L123 1434 L287 1434 L287 819 L860 819 L860 1434 L1024 1434 L1024 0 L860 0 L860 684 L287 684 Z M1892 0 L1868 106 L1864 106 Q1830 50 1749.5 15 Q1669 -20 1575 -20 Q1270 -20 1270 340 L1270 1024 L1426 1024 L1426 340 Q1426 216 1458 167 Q1497 107 1598 107 Q1676 107 1744 154.5 Q1812 202 1843 279 L1843 1024 L1999 1024 L1999 0 L1892 0 Z M2859 854 L2744 766 Q2655 909 2526 909 Q2445 909 2399 866 Q2358 828 2358 768 Q2358 718 2398.5 685 Q2439 652 2559 603 Q2722 536 2784 480 Q2876 397 2876 269 Q2876 126 2771 47 Q2683 -20 2546 -20 Q2420 -20 2314 43 Q2220 99 2163 193 L2277 279 Q2386 115 2546 115 Q2634 115 2681 162 Q2723 203 2723 268 Q2723 328 2678 367.5 Q2633 407 2503 462 Q2348 528 2290 580 Q2206 655 2206 768 Q2206 900 2308 977 Q2396 1044 2525 1044 Q2629 1044 2706.5 1000 Q2784 956 2859 854 Z M3653 918 L3678 1024 L3789 1024 L3789 -369 L3633 -369 L3633 106 L3629 106 Q3554 -21 3388 -21 Q3181 -21 3089 156 Q3019 289 3019 516 Q3019 1044 3388 1044 Q3474 1044 3544 1010 Q3614 976 3649 918 L3653 918 Z M3633 422 L3633 745 Q3603 823 3541.5 870 Q3480 917 3408 917 Q3274 917 3219 795 Q3175 698 3175 507 Q3175 290 3233 196 Q3289 106 3408 106 Q3511 106 3577 209 Q3633 298 3633 422 Z M4768 1024 L4438 0 L4283 0 L3953 1024 L4113 1024 L4358 209 L4362 209 L4608 1024 L4768 1024 Z M5632 0 L5521 0 L5497 106 L5493 106 Q5396 -20 5202 -20 Q5041 -20 4949 70 Q4870 148 4870 271 Q4870 380 4950 457.5 Q5030 535 5202 592 L5476 684 L5476 703 Q5476 818 5427.5 867.5 Q5379 917 5265 917 Q5178 917 5121 873.5 Q5064 830 5044 750 L4903 778 Q4962 1044 5265 1044 Q5468 1044 5554 949 Q5632 863 5632 684 L5632 0 Z M5476 344 L5476 557 L5202 459 Q5026 394 5026 271 Q5026 196 5074 151.5 Q5122 107 5202 107 Q5331 107 5408 179 Q5476 243 5476 344 Z M5989 1024 L6014 918 L6018 918 Q6058 984 6134 1014 Q6210 1044 6337 1044 L6337 889 Q6308 897 6270 897 Q6139 897 6084 821 Q6034 752 6034 602 L6034 0 L5878 0 L5878 1024 L5989 1024 Z M6611 1024 L6636 918 L6640 918 Q6674 974 6752.5 1009 Q6831 1044 6925 1044 Q7230 1044 7230 684 L7230 0 L7074 0 L7074 684 Q7074 808 7042 857 Q7003 917 6902 917 Q6824 917 6756 869.5 Q6688 822 6656 745 L6656 0 L6500 0 L6500 1024 L6611 1024 Z M8196 0 L8085 0 L8061 106 L8056 106 Q7960 -20 7766 -20 Q7605 -20 7513 70 Q7434 148 7434 271 Q7434 380 7514 457.5 Q7594 535 7766 592 L8040 684 L8040 703 Q8040 818 7991 867.5 Q7942 917 7829 917 Q7742 917 7684.5 873.5 Q7627 830 7608 750 L7467 778 Q7526 1044 7829 1044 Q8032 1044 8118 949 Q8196 863 8196 684 L8196 0 Z M8040 344 L8040 557 L7766 459 Q7590 394 7590 271 Q7590 196 7637.5 151.5 Q7685 107 7766 107 Q7895 107 7972 179 Q8040 243 8040 344 Z " />
<glyph glyph-name="uniE005" unicode="&#xe005;" horiz-adv-x="848" d="M610 293 Q610 479 395 479 L354 479 L354 604 L393 604 Q581 604 581 776 Q581 842 540 879.5 Q499 917 426 917 Q360 917 318 890 Q276 863 235 795 L123 874 Q193 970 259 1006 Q327 1044 426 1044 Q565 1044 657 957 Q737 881 737 776 Q737 628 594 551 L594 547 Q766 481 766 293 Q766 144 665 58 Q573 -20 426 -20 Q180 -20 82 205 L200 274 Q249 181 299 144 Q349 107 426 107 Q514 107 562 155.5 Q610 204 610 293 Z M442 1372 L660 1372 L455 1176 L320 1176 L442 1372 Z " />
<glyph glyph-name="uniE006" unicode="&#xe006;" horiz-adv-x="885" d="M684 295 L823 270 Q781 110 696 43 Q615 -20 475 -20 Q266 -20 165 141 Q82 275 82 508 Q82 781 193 919 Q294 1044 475 1044 Q631 1044 719 956 Q789 886 823 750 L682 725 Q640 917 475 917 Q238 917 238 508 Q238 296 298 200 Q355 107 475 107 Q558 107 606 150.5 Q654 194 684 295 Z M492 1372 L709 1372 L504 1176 L369 1176 L492 1372 Z " />
<glyph glyph-name="uniE007" unicode="&#xe007;" horiz-adv-x="942" d="M280 -328 L315 -266 Q381 -319 457 -319 Q500 -319 528.5 -297 Q557 -275 557 -242 Q557 -209 528 -186.5 Q499 -164 457 -164 Q418 -164 395 -180 L373 -168 L471 0 L389 0 L389 1299 L41 1299 L41 1434 L901 1434 L901 1299 L553 1299 L553 0 L498 -94 L500 -96 Q516 -92 533 -92 Q587 -92 632.5 -139 Q678 -186 678 -243 Q678 -397 463 -397 Q350 -397 280 -328 Z " />
<glyph glyph-name="uniE008" unicode="&#xe008;" horiz-adv-x="1106" d="M873 399 L1024 363 Q972 145 859 54 Q755 -29 571 -29 Q297 -29 182 178 Q82 356 82 717 Q82 1118 213 1299 Q333 1463 571 1463 Q766 1463 871 1362 Q957 1281 1008 1112 L858 1075 Q816 1213 744 1272 Q677 1328 572 1328 Q392 1328 313 1151 Q246 1002 246 717 Q246 380 334 235 Q412 106 572 106 Q699 106 774 188 Q839 259 873 399 Z M594 1733 L811 1733 L606 1536 L471 1536 L594 1733 Z " />
<glyph glyph-name="uniE009" unicode="&#xe009;" horiz-adv-x="1081" d="M735 762 L735 758 Q1000 682 1000 393 Q1000 193 850 73 Q722 -29 533 -29 Q222 -29 82 260 L205 330 Q267 211 344 158.5 Q421 106 533 106 Q677 106 762 194 Q836 272 836 393 Q836 684 500 684 L465 684 L465 819 L498 819 Q795 819 795 1094 Q795 1212 720 1274 Q655 1328 547 1328 Q454 1328 389.5 1290.5 Q325 1253 256 1159 L143 1241 Q305 1463 547 1463 Q737 1463 856 1344 Q959 1241 959 1094 Q959 847 735 762 Z M584 1733 L801 1733 L596 1536 L461 1536 L584 1733 Z " />
<glyph glyph-name="uniE00A" unicode="&#xe00a;" horiz-adv-x="1253" d="M469 1327 L592 1327 L529 936 L813 936 L877 1327 L1000 1327 L936 936 L1131 936 L1110 817 L918 817 L868 510 L1061 510 L1041 395 L848 395 L787 0 L664 0 L725 395 L440 395 L379 0 L256 0 L318 395 L123 395 L143 510 L338 510 L387 817 L191 817 L213 936 L406 936 L469 1327 Z M510 817 L459 510 L746 510 L795 817 L510 817 Z " />
<glyph glyph-name="uniE00B" unicode="&#xe00b;" horiz-adv-x="1884" d="M1884 1171 L942 -20 L0 1171 L811 1171 L811 1749 L1073 1749 L1073 1171 L1884 1171 Z M942 338 L1425 948 L459 948 L942 338 Z " />
<glyph glyph-name="uniE00C" unicode="&#xe00c;" horiz-adv-x="1884" d="M1884 578 L1073 578 L1073 0 L811 0 L811 578 L0 578 L942 1770 L1884 578 Z M942 1411 L459 801 L1425 801 L942 1411 Z " />
<glyph glyph-name="uniE00F" unicode="&#xe00f;" horiz-adv-x="1098" d="M549 1463 Q809 1463 923 1239 Q1016 1056 1016 717 Q1016 342 893 153 Q775 -29 547 -29 Q278 -29 167 205 Q82 384 82 717 Q82 1096 218 1291 Q339 1463 549 1463 Z M555 1328 Q246 1328 246 717 Q246 106 545 106 Q852 106 852 717 Q852 1048 774 1194 Q703 1328 555 1328 Z " />
<glyph glyph-name="uniE010" unicode="&#xe010;" horiz-adv-x="1098" d="M983 135 L983 0 L123 0 L123 106 L402 395 Q656 660 740 798 Q819 929 819 1057 Q819 1187 744 1261 Q675 1328 561 1328 Q463 1328 388 1254.5 Q313 1181 273 1045 L129 1082 Q240 1463 563 1463 Q764 1463 878 1348 Q983 1240 983 1057 Q983 907 876 733.5 Q769 560 532 328 L348 135 L983 135 Z " />
<glyph glyph-name="uniE011" unicode="&#xe011;" horiz-adv-x="1098" d="M735 762 L735 758 Q1000 682 1000 393 Q1000 193 850 73 Q722 -29 533 -29 Q222 -29 82 260 L205 330 Q267 211 344 158.5 Q421 106 533 106 Q677 106 762 194 Q836 272 836 393 Q836 684 500 684 L465 684 L465 819 L498 819 Q795 819 795 1094 Q795 1212 720 1274 Q655 1328 547 1328 Q454 1328 389.5 1290.5 Q325 1253 256 1159 L143 1241 Q305 1463 547 1463 Q737 1463 856 1344 Q959 1241 959 1094 Q959 847 735 762 Z " />
<glyph glyph-name="uniE012" unicode="&#xe012;" horiz-adv-x="1098" d="M831 1434 L831 491 L1056 491 L1056 356 L831 356 L831 0 L667 0 L667 356 L57 356 L57 470 L647 1434 L831 1434 Z M667 491 L667 1215 L663 1215 L221 491 L667 491 Z " />
<glyph glyph-name="uniE013" unicode="&#xe013;" horiz-adv-x="1098" d="M921 1434 L921 1299 L335 1299 L301 863 L305 863 Q347 905 412.5 930 Q478 955 548 955 Q776 955 897 809 Q1003 680 1003 463 Q1003 219 854 85 Q727 -29 528 -29 Q383 -29 266 54 Q165 125 102 248 L225 320 Q288 209 378 152 Q452 106 528 106 Q671 106 758 210 Q839 307 839 463 Q839 638 746 737 Q667 820 548 820 Q464 820 389.5 773.5 Q315 727 268 645 L141 684 L204 1434 L921 1434 Z " />
<glyph glyph-name="uniE014" unicode="&#xe014;" horiz-adv-x="1098" d="M950 1299 L821 1217 Q736 1328 587 1328 Q394 1328 306 1106 Q248 959 248 760 L252 760 Q369 893 588 893 Q786 893 910 742 Q1016 612 1016 432 Q1016 220 893 94 Q774 -29 567 -29 Q98 -29 98 615 Q98 1065 220 1267 Q338 1463 587 1463 Q826 1463 950 1299 Z M272 432 Q272 269 366 181 Q444 106 567 106 Q709 106 790 204 Q862 291 862 432 Q862 591 769 682 Q690 758 567 760 Q426 762 344 661 Q272 572 272 432 Z " />
<glyph glyph-name="uniE015" unicode="&#xe015;" horiz-adv-x="1098" d="M123 1434 L963 1434 L963 1328 L410 0 L246 0 L807 1299 L123 1299 L123 1434 Z " />
<glyph glyph-name="uniE016" unicode="&#xe016;" horiz-adv-x="1098" d="M764 776 L764 772 Q1026 679 1026 379 Q1026 185 875 71 Q743 -29 539 -29 Q316 -29 185 98 Q72 207 72 371 Q72 678 328 772 L328 776 Q208 843 166 930 Q133 997 133 1106 Q133 1272 261 1373 Q375 1463 549 1463 Q744 1463 863 1348 Q965 1249 965 1106 Q965 986 920.5 913 Q876 840 764 776 Z M236 403 Q236 256 340 173 Q425 106 549 106 Q692 106 780 196 Q858 277 858 403 Q858 548 757 631 Q673 701 549 701 Q406 701 317 611 Q236 529 236 403 Z M297 1086 Q297 973 380 903 Q450 844 549 844 Q664 844 736 918 Q801 985 801 1086 Q801 1202 718 1271 Q648 1328 549 1328 Q434 1328 362 1254 Q297 1187 297 1086 Z " />
<glyph glyph-name="uniE017" unicode="&#xe017;" horiz-adv-x="1098" d="M148 135 L277 217 Q362 106 510 106 Q704 106 792 328 Q850 475 850 674 L846 674 Q728 541 510 541 Q312 541 188 693 Q82 822 82 1002 Q82 1214 205 1340 Q324 1463 531 1463 Q1000 1463 1000 819 Q1000 369 878 167 Q760 -29 510 -29 Q272 -29 148 135 Z M826 1002 Q826 1165 732 1253 Q654 1328 531 1328 Q389 1328 308 1230 Q236 1143 236 1002 Q236 843 329 753 Q408 676 531 674 Q672 672 754 773 Q826 861 826 1002 Z " />
<glyph glyph-name="uniE018" unicode="&#xe018;" horiz-adv-x="360" d="M258 -127 L258 -283 L196 -418 L122 -418 L164 -283 L102 -283 L102 -127 L258 -127 Z " />
<glyph glyph-name="uniE019" unicode="&#xe019;" horiz-adv-x="1098" d="M270 135 L557 135 L557 1248 L342 1108 L266 1225 L578 1434 L709 1434 L709 135 L995 135 L995 0 L270 0 L270 135 Z " />
</font>
</svg>
